<svg xmlns="http://www.w3.org/2000/svg" xmlns:xlink="http://www.w3.org/1999/xlink" width="1920" zoomAndPan="magnify" viewBox="0 0 1440 809.999993" height="1080" preserveAspectRatio="xMidYMid meet" version="1.0"><defs><g/><clipPath id="d60639548b"><path d="M 412.453125 656.761719 L 1067.871094 656.761719 L 1067.871094 670.699219 L 412.453125 670.699219 Z M 412.453125 656.761719 " clip-rule="nonzero"/></clipPath><clipPath id="8a3b1587ce"><path d="M 419.421875 656.761719 L 1060.859375 656.761719 C 1064.710938 656.761719 1067.828125 659.882812 1067.828125 663.730469 C 1067.828125 667.578125 1064.710938 670.699219 1060.859375 670.699219 L 419.421875 670.699219 C 415.574219 670.699219 412.453125 667.578125 412.453125 663.730469 C 412.453125 659.882812 415.574219 656.761719 419.421875 656.761719 Z M 419.421875 656.761719 " clip-rule="nonzero"/></clipPath></defs><rect x="-144" width="1728" fill="#ffffff" y="-80.999999" height="971.999992" fill-opacity="1"/><rect x="-144" width="1728" fill="#ffffff" y="-80.999999" height="971.999992" fill-opacity="1"/><g clip-path="url(#d60639548b)"><g clip-path="url(#8a3b1587ce)"><path fill="#ff83b7" d="M 412.453125 656.761719 L 1067.816406 656.761719 L 1067.816406 670.699219 L 412.453125 670.699219 Z M 412.453125 656.761719 " fill-opacity="1" fill-rule="nonzero"/></g></g><g fill="#ff83b7" fill-opacity="1"><g transform="translate(365.096615, 108.37894)"><g><path d="M 18.265625 -44.3125 L 18.265625 -33.171875 L 36.234375 -33.171875 L 36.234375 -22.828125 L 18.265625 -22.828125 L 18.265625 -10.75 L 38.578125 -10.75 L 38.578125 0 L 4.859375 0 L 4.859375 -55.046875 L 38.578125 -55.046875 L 38.578125 -44.3125 Z M 18.265625 -44.3125 "/></g></g></g><g fill="#ff83b7" fill-opacity="1"><g transform="translate(407.516473, 108.37894)"><g><path d="M 11.53125 -48.3125 C 9.175781 -48.3125 7.253906 -49.003906 5.765625 -50.390625 C 4.273438 -51.773438 3.53125 -53.484375 3.53125 -55.515625 C 3.53125 -57.609375 4.273438 -59.347656 5.765625 -60.734375 C 7.253906 -62.117188 9.175781 -62.8125 11.53125 -62.8125 C 13.832031 -62.8125 15.726562 -62.117188 17.21875 -60.734375 C 18.707031 -59.347656 19.453125 -57.609375 19.453125 -55.515625 C 19.453125 -53.484375 18.707031 -51.773438 17.21875 -50.390625 C 15.726562 -49.003906 13.832031 -48.3125 11.53125 -48.3125 Z M 18.265625 5.640625 C 18.265625 11.023438 16.90625 14.90625 14.1875 17.28125 C 11.46875 19.664062 7.679688 20.859375 2.828125 20.859375 L -2.4375 20.859375 L -2.4375 9.484375 L 0.78125 9.484375 C 2.25 9.484375 3.296875 9.195312 3.921875 8.625 C 4.546875 8.050781 4.859375 7.109375 4.859375 5.796875 L 4.859375 -43.765625 L 18.265625 -43.765625 Z M 18.265625 5.640625 "/></g></g></g><g fill="#ff83b7" fill-opacity="1"><g transform="translate(430.569038, 108.37894)"><g><path d="M 46.109375 -22.578125 C 46.109375 -21.328125 46.03125 -20.023438 45.875 -18.671875 L 15.53125 -18.671875 C 15.738281 -15.953125 16.613281 -13.867188 18.15625 -12.421875 C 19.695312 -10.984375 21.59375 -10.265625 23.84375 -10.265625 C 27.1875 -10.265625 29.507812 -11.679688 30.8125 -14.515625 L 45.09375 -14.515625 C 44.363281 -11.628906 43.039062 -9.035156 41.125 -6.734375 C 39.21875 -4.441406 36.828125 -2.640625 33.953125 -1.328125 C 31.078125 -0.0234375 27.863281 0.625 24.3125 0.625 C 20.019531 0.625 16.203125 -0.285156 12.859375 -2.109375 C 9.515625 -3.941406 6.898438 -6.554688 5.015625 -9.953125 C 3.140625 -13.359375 2.203125 -17.332031 2.203125 -21.875 C 2.203125 -26.425781 3.128906 -30.398438 4.984375 -33.796875 C 6.835938 -37.191406 9.4375 -39.804688 12.78125 -41.640625 C 16.125 -43.472656 19.96875 -44.390625 24.3125 -44.390625 C 28.539062 -44.390625 32.300781 -43.5 35.59375 -41.71875 C 38.894531 -39.9375 41.472656 -37.398438 43.328125 -34.109375 C 45.179688 -30.816406 46.109375 -26.972656 46.109375 -22.578125 Z M 32.390625 -26.109375 C 32.390625 -28.410156 31.601562 -30.238281 30.03125 -31.59375 C 28.46875 -32.957031 26.507812 -33.640625 24.15625 -33.640625 C 21.90625 -33.640625 20.007812 -32.984375 18.46875 -31.671875 C 16.925781 -30.367188 15.972656 -28.515625 15.609375 -26.109375 Z M 32.390625 -26.109375 "/></g></g></g><g fill="#ff83b7" fill-opacity="1"><g transform="translate(478.869649, 108.37894)"><g><path d="M 60.703125 -44.234375 C 66.140625 -44.234375 70.460938 -42.582031 73.671875 -39.28125 C 76.890625 -35.988281 78.5 -31.414062 78.5 -25.5625 L 78.5 0 L 65.171875 0 L 65.171875 -23.765625 C 65.171875 -26.585938 64.425781 -28.769531 62.9375 -30.3125 C 61.445312 -31.851562 59.394531 -32.625 56.78125 -32.625 C 54.164062 -32.625 52.113281 -31.851562 50.625 -30.3125 C 49.132812 -28.769531 48.390625 -26.585938 48.390625 -23.765625 L 48.390625 0 L 35.046875 0 L 35.046875 -23.765625 C 35.046875 -26.585938 34.300781 -28.769531 32.8125 -30.3125 C 31.320312 -31.851562 29.269531 -32.625 26.65625 -32.625 C 24.050781 -32.625 22 -31.851562 20.5 -30.3125 C 19.007812 -28.769531 18.265625 -26.585938 18.265625 -23.765625 L 18.265625 0 L 4.859375 0 L 4.859375 -43.765625 L 18.265625 -43.765625 L 18.265625 -38.265625 C 19.628906 -40.097656 21.410156 -41.550781 23.609375 -42.625 C 25.804688 -43.695312 28.289062 -44.234375 31.0625 -44.234375 C 34.351562 -44.234375 37.289062 -43.523438 39.875 -42.109375 C 42.46875 -40.703125 44.492188 -38.691406 45.953125 -36.078125 C 47.472656 -38.484375 49.539062 -40.441406 52.15625 -41.953125 C 54.769531 -43.472656 57.617188 -44.234375 60.703125 -44.234375 Z M 60.703125 -44.234375 "/></g></g></g><g fill="#ff83b7" fill-opacity="1"><g transform="translate(561.905916, 108.37894)"><g><path d="M 18.265625 -37.5625 C 19.578125 -39.601562 21.382812 -41.25 23.6875 -42.5 C 25.988281 -43.757812 28.679688 -44.390625 31.765625 -44.390625 C 35.367188 -44.390625 38.632812 -43.472656 41.5625 -41.640625 C 44.488281 -39.804688 46.800781 -37.191406 48.5 -33.796875 C 50.195312 -30.398438 51.046875 -26.453125 51.046875 -21.953125 C 51.046875 -17.460938 50.195312 -13.503906 48.5 -10.078125 C 46.800781 -6.648438 44.488281 -4.007812 41.5625 -2.15625 C 38.632812 -0.300781 35.367188 0.625 31.765625 0.625 C 28.734375 0.625 26.050781 0 23.71875 -1.25 C 21.394531 -2.507812 19.578125 -4.128906 18.265625 -6.109375 L 18.265625 20.859375 L 4.859375 20.859375 L 4.859375 -43.765625 L 18.265625 -43.765625 Z M 37.40625 -21.953125 C 37.40625 -25.304688 36.476562 -27.9375 34.625 -29.84375 C 32.769531 -31.75 30.484375 -32.703125 27.765625 -32.703125 C 25.097656 -32.703125 22.832031 -31.734375 20.96875 -29.796875 C 19.113281 -27.867188 18.1875 -25.226562 18.1875 -21.875 C 18.1875 -18.53125 19.113281 -15.890625 20.96875 -13.953125 C 22.832031 -12.023438 25.097656 -11.0625 27.765625 -11.0625 C 30.429688 -11.0625 32.703125 -12.039062 34.578125 -14 C 36.460938 -15.957031 37.40625 -18.609375 37.40625 -21.953125 Z M 37.40625 -21.953125 "/></g></g></g><g fill="#ff83b7" fill-opacity="1"><g transform="translate(615.146368, 108.37894)"><g><path d="M 18.265625 -58.03125 L 18.265625 0 L 4.859375 0 L 4.859375 -58.03125 Z M 18.265625 -58.03125 "/></g></g></g><g fill="#ff83b7" fill-opacity="1"><g transform="translate(638.277349, 108.37894)"><g><path d="M 24.78125 0.625 C 20.488281 0.625 16.628906 -0.285156 13.203125 -2.109375 C 9.785156 -3.941406 7.097656 -6.554688 5.140625 -9.953125 C 3.179688 -13.359375 2.203125 -17.332031 2.203125 -21.875 C 2.203125 -26.375 3.191406 -30.332031 5.171875 -33.75 C 7.160156 -37.175781 9.878906 -39.804688 13.328125 -41.640625 C 16.773438 -43.472656 20.644531 -44.390625 24.9375 -44.390625 C 29.226562 -44.390625 33.097656 -43.472656 36.546875 -41.640625 C 39.992188 -39.804688 42.710938 -37.175781 44.703125 -33.75 C 46.691406 -30.332031 47.6875 -26.375 47.6875 -21.875 C 47.6875 -17.382812 46.675781 -13.425781 44.65625 -10 C 42.644531 -6.570312 39.898438 -3.941406 36.421875 -2.109375 C 32.953125 -0.285156 29.070312 0.625 24.78125 0.625 Z M 24.78125 -10.984375 C 27.34375 -10.984375 29.523438 -11.921875 31.328125 -13.796875 C 33.128906 -15.679688 34.03125 -18.375 34.03125 -21.875 C 34.03125 -25.382812 33.15625 -28.078125 31.40625 -29.953125 C 29.65625 -31.835938 27.5 -32.78125 24.9375 -32.78125 C 22.320312 -32.78125 20.148438 -31.851562 18.421875 -30 C 16.703125 -28.144531 15.84375 -25.4375 15.84375 -21.875 C 15.84375 -18.375 16.691406 -15.679688 18.390625 -13.796875 C 20.085938 -11.921875 22.21875 -10.984375 24.78125 -10.984375 Z M 24.78125 -10.984375 "/></g></g></g><g fill="#ff83b7" fill-opacity="1"><g transform="translate(688.224559, 108.37894)"><g/></g></g><g fill="#ff83b7" fill-opacity="1"><g transform="translate(704.847513, 108.37894)"><g><path d="M 18.265625 -37.5625 C 19.578125 -39.601562 21.382812 -41.25 23.6875 -42.5 C 25.988281 -43.757812 28.679688 -44.390625 31.765625 -44.390625 C 35.367188 -44.390625 38.632812 -43.472656 41.5625 -41.640625 C 44.488281 -39.804688 46.800781 -37.191406 48.5 -33.796875 C 50.195312 -30.398438 51.046875 -26.453125 51.046875 -21.953125 C 51.046875 -17.460938 50.195312 -13.503906 48.5 -10.078125 C 46.800781 -6.648438 44.488281 -4.007812 41.5625 -2.15625 C 38.632812 -0.300781 35.367188 0.625 31.765625 0.625 C 28.734375 0.625 26.050781 0 23.71875 -1.25 C 21.394531 -2.507812 19.578125 -4.128906 18.265625 -6.109375 L 18.265625 20.859375 L 4.859375 20.859375 L 4.859375 -43.765625 L 18.265625 -43.765625 Z M 37.40625 -21.953125 C 37.40625 -25.304688 36.476562 -27.9375 34.625 -29.84375 C 32.769531 -31.75 30.484375 -32.703125 27.765625 -32.703125 C 25.097656 -32.703125 22.832031 -31.734375 20.96875 -29.796875 C 19.113281 -27.867188 18.1875 -25.226562 18.1875 -21.875 C 18.1875 -18.53125 19.113281 -15.890625 20.96875 -13.953125 C 22.832031 -12.023438 25.097656 -11.0625 27.765625 -11.0625 C 30.429688 -11.0625 32.703125 -12.039062 34.578125 -14 C 36.460938 -15.957031 37.40625 -18.609375 37.40625 -21.953125 Z M 37.40625 -21.953125 "/></g></g></g><g fill="#ff83b7" fill-opacity="1"><g transform="translate(758.087989, 108.37894)"><g><path d="M 18.265625 -36.46875 C 19.835938 -38.875 21.800781 -40.769531 24.15625 -42.15625 C 26.507812 -43.539062 29.125 -44.234375 32 -44.234375 L 32 -30.03125 L 28.3125 -30.03125 C 24.96875 -30.03125 22.457031 -29.3125 20.78125 -27.875 C 19.101562 -26.4375 18.265625 -23.914062 18.265625 -20.3125 L 18.265625 0 L 4.859375 0 L 4.859375 -43.765625 L 18.265625 -43.765625 Z M 18.265625 -36.46875 "/></g></g></g><g fill="#ff83b7" fill-opacity="1"><g transform="translate(791.647512, 108.37894)"><g><path d="M 2.203125 -21.953125 C 2.203125 -26.453125 3.050781 -30.398438 4.75 -33.796875 C 6.445312 -37.191406 8.757812 -39.804688 11.6875 -41.640625 C 14.613281 -43.472656 17.878906 -44.390625 21.484375 -44.390625 C 24.566406 -44.390625 27.269531 -43.757812 29.59375 -42.5 C 31.925781 -41.25 33.71875 -39.601562 34.96875 -37.5625 L 34.96875 -43.765625 L 48.390625 -43.765625 L 48.390625 0 L 34.96875 0 L 34.96875 -6.203125 C 33.664062 -4.160156 31.847656 -2.507812 29.515625 -1.25 C 27.191406 0 24.488281 0.625 21.40625 0.625 C 17.851562 0.625 14.613281 -0.300781 11.6875 -2.15625 C 8.757812 -4.007812 6.445312 -6.648438 4.75 -10.078125 C 3.050781 -13.503906 2.203125 -17.460938 2.203125 -21.953125 Z M 34.96875 -21.875 C 34.96875 -25.226562 34.039062 -27.867188 32.1875 -29.796875 C 30.332031 -31.734375 28.070312 -32.703125 25.40625 -32.703125 C 22.738281 -32.703125 20.476562 -31.75 18.625 -29.84375 C 16.769531 -27.9375 15.84375 -25.304688 15.84375 -21.953125 C 15.84375 -18.609375 16.769531 -15.957031 18.625 -14 C 20.476562 -12.039062 22.738281 -11.0625 25.40625 -11.0625 C 28.070312 -11.0625 30.332031 -12.023438 32.1875 -13.953125 C 34.039062 -15.890625 34.96875 -18.53125 34.96875 -21.875 Z M 36 -54.65625 L 17.09375 -46.734375 L 17.09375 -56 L 36 -65.09375 Z M 36 -54.65625 "/></g></g></g><g fill="#ff83b7" fill-opacity="1"><g transform="translate(844.887942, 108.37894)"><g><path d="M 2.203125 -21.875 C 2.203125 -26.425781 3.128906 -30.398438 4.984375 -33.796875 C 6.835938 -37.191406 9.421875 -39.804688 12.734375 -41.640625 C 16.054688 -43.472656 19.863281 -44.390625 24.15625 -44.390625 C 29.644531 -44.390625 34.234375 -42.953125 37.921875 -40.078125 C 41.609375 -37.203125 44.023438 -33.148438 45.171875 -27.921875 L 30.890625 -27.921875 C 29.691406 -31.265625 27.367188 -32.9375 23.921875 -32.9375 C 21.460938 -32.9375 19.5 -31.984375 18.03125 -30.078125 C 16.570312 -28.171875 15.84375 -25.4375 15.84375 -21.875 C 15.84375 -18.320312 16.570312 -15.59375 18.03125 -13.6875 C 19.5 -11.78125 21.460938 -10.828125 23.921875 -10.828125 C 27.367188 -10.828125 29.691406 -12.5 30.890625 -15.84375 L 45.171875 -15.84375 C 44.023438 -10.71875 41.59375 -6.691406 37.875 -3.765625 C 34.164062 -0.835938 29.59375 0.625 24.15625 0.625 C 19.863281 0.625 16.054688 -0.285156 12.734375 -2.109375 C 9.421875 -3.941406 6.835938 -6.554688 4.984375 -9.953125 C 3.128906 -13.359375 2.203125 -17.332031 2.203125 -21.875 Z M 2.203125 -21.875 "/></g></g></g><g fill="#ff83b7" fill-opacity="1"><g transform="translate(892.326035, 108.37894)"><g><path d="M 29.25 -11.375 L 29.25 0 L 22.421875 0 C 17.566406 0 13.78125 -1.1875 11.0625 -3.5625 C 8.34375 -5.945312 6.984375 -9.832031 6.984375 -15.21875 L 6.984375 -32.625 L 1.640625 -32.625 L 1.640625 -43.765625 L 6.984375 -43.765625 L 6.984375 -54.421875 L 20.390625 -54.421875 L 20.390625 -43.765625 L 29.171875 -43.765625 L 29.171875 -32.625 L 20.390625 -32.625 L 20.390625 -15.0625 C 20.390625 -13.75 20.703125 -12.804688 21.328125 -12.234375 C 21.953125 -11.660156 23 -11.375 24.46875 -11.375 Z M 29.25 -11.375 "/></g></g></g><g fill="#ff83b7" fill-opacity="1"><g transform="translate(924.160521, 108.37894)"><g><path d="M 11.609375 -48.3125 C 9.253906 -48.3125 7.332031 -49.003906 5.84375 -50.390625 C 4.351562 -51.773438 3.609375 -53.484375 3.609375 -55.515625 C 3.609375 -57.609375 4.351562 -59.347656 5.84375 -60.734375 C 7.332031 -62.117188 9.253906 -62.8125 11.609375 -62.8125 C 13.910156 -62.8125 15.804688 -62.117188 17.296875 -60.734375 C 18.785156 -59.347656 19.53125 -57.609375 19.53125 -55.515625 C 19.53125 -53.484375 18.785156 -51.773438 17.296875 -50.390625 C 15.804688 -49.003906 13.910156 -48.3125 11.609375 -48.3125 Z M 18.265625 -43.765625 L 18.265625 0 L 4.859375 0 L 4.859375 -43.765625 Z M 18.265625 -43.765625 "/></g></g></g><g fill="#ff83b7" fill-opacity="1"><g transform="translate(947.291502, 108.37894)"><g><path d="M 2.203125 -21.875 C 2.203125 -26.425781 3.128906 -30.398438 4.984375 -33.796875 C 6.835938 -37.191406 9.421875 -39.804688 12.734375 -41.640625 C 16.054688 -43.472656 19.863281 -44.390625 24.15625 -44.390625 C 29.644531 -44.390625 34.234375 -42.953125 37.921875 -40.078125 C 41.609375 -37.203125 44.023438 -33.148438 45.171875 -27.921875 L 30.890625 -27.921875 C 29.691406 -31.265625 27.367188 -32.9375 23.921875 -32.9375 C 21.460938 -32.9375 19.5 -31.984375 18.03125 -30.078125 C 16.570312 -28.171875 15.84375 -25.4375 15.84375 -21.875 C 15.84375 -18.320312 16.570312 -15.59375 18.03125 -13.6875 C 19.5 -11.78125 21.460938 -10.828125 23.921875 -10.828125 C 27.367188 -10.828125 29.691406 -12.5 30.890625 -15.84375 L 45.171875 -15.84375 C 44.023438 -10.71875 41.59375 -6.691406 37.875 -3.765625 C 34.164062 -0.835938 29.59375 0.625 24.15625 0.625 C 19.863281 0.625 16.054688 -0.285156 12.734375 -2.109375 C 9.421875 -3.941406 6.835938 -6.554688 4.984375 -9.953125 C 3.128906 -13.359375 2.203125 -17.332031 2.203125 -21.875 Z M 2.203125 -21.875 "/></g></g></g><g fill="#ff83b7" fill-opacity="1"><g transform="translate(994.729594, 108.37894)"><g><path d="M 24.78125 0.625 C 20.488281 0.625 16.628906 -0.285156 13.203125 -2.109375 C 9.785156 -3.941406 7.097656 -6.554688 5.140625 -9.953125 C 3.179688 -13.359375 2.203125 -17.332031 2.203125 -21.875 C 2.203125 -26.375 3.191406 -30.332031 5.171875 -33.75 C 7.160156 -37.175781 9.878906 -39.804688 13.328125 -41.640625 C 16.773438 -43.472656 20.644531 -44.390625 24.9375 -44.390625 C 29.226562 -44.390625 33.097656 -43.472656 36.546875 -41.640625 C 39.992188 -39.804688 42.710938 -37.175781 44.703125 -33.75 C 46.691406 -30.332031 47.6875 -26.375 47.6875 -21.875 C 47.6875 -17.382812 46.675781 -13.425781 44.65625 -10 C 42.644531 -6.570312 39.898438 -3.941406 36.421875 -2.109375 C 32.953125 -0.285156 29.070312 0.625 24.78125 0.625 Z M 24.78125 -10.984375 C 27.34375 -10.984375 29.523438 -11.921875 31.328125 -13.796875 C 33.128906 -15.679688 34.03125 -18.375 34.03125 -21.875 C 34.03125 -25.382812 33.15625 -28.078125 31.40625 -29.953125 C 29.65625 -31.835938 27.5 -32.78125 24.9375 -32.78125 C 22.320312 -32.78125 20.148438 -31.851562 18.421875 -30 C 16.703125 -28.144531 15.84375 -25.4375 15.84375 -21.875 C 15.84375 -18.375 16.691406 -15.679688 18.390625 -13.796875 C 20.085938 -11.921875 22.21875 -10.984375 24.78125 -10.984375 Z M 24.78125 -10.984375 "/></g></g></g><g fill="#000000" fill-opacity="1"><g transform="translate(285.881711, 177.670909)"><g><path d="M 12.984375 0.453125 C 11.015625 0.453125 9.234375 0.0664062 7.640625 -0.703125 C 6.054688 -1.484375 4.796875 -2.664062 3.859375 -4.25 C 2.921875 -5.84375 2.453125 -7.859375 2.453125 -10.296875 L 2.453125 -26.890625 L 7.375 -26.890625 L 7.375 -10.25 C 7.375 -8.15625 7.878906 -6.59375 8.890625 -5.5625 C 9.898438 -4.539062 11.300781 -4.03125 13.09375 -4.03125 C 14.863281 -4.03125 16.257812 -4.539062 17.28125 -5.5625 C 18.300781 -6.59375 18.8125 -8.15625 18.8125 -10.25 L 18.8125 -26.890625 L 23.734375 -26.890625 L 23.734375 -10.296875 C 23.734375 -7.859375 23.242188 -5.84375 22.265625 -4.25 C 21.296875 -2.664062 20 -1.484375 18.375 -0.703125 C 16.75 0.0664062 14.953125 0.453125 12.984375 0.453125 Z M 12.984375 0.453125 "/></g></g></g><g fill="#000000" fill-opacity="1"><g transform="translate(314.329876, 177.670909)"><g><path d="M 2.5 0 L 2.5 -19.046875 L 6.84375 -19.046875 L 7.21875 -15.828125 C 7.8125 -16.953125 8.660156 -17.847656 9.765625 -18.515625 C 10.878906 -19.179688 12.195312 -19.515625 13.71875 -19.515625 C 16.070312 -19.515625 17.898438 -18.769531 19.203125 -17.28125 C 20.503906 -15.800781 21.15625 -13.625 21.15625 -10.75 L 21.15625 0 L 16.25 0 L 16.25 -10.296875 C 16.25 -11.929688 15.914062 -13.179688 15.25 -14.046875 C 14.582031 -14.921875 13.546875 -15.359375 12.140625 -15.359375 C 10.753906 -15.359375 9.617188 -14.867188 8.734375 -13.890625 C 7.847656 -12.921875 7.40625 -11.566406 7.40625 -9.828125 L 7.40625 0 Z M 2.5 0 "/></g></g></g><g fill="#000000" fill-opacity="1"><g transform="translate(339.975521, 177.670909)"><g/></g></g><g fill="#000000" fill-opacity="1"><g transform="translate(351.416631, 177.670909)"><g><path d="M 2.5 0 L 2.5 -19.046875 L 6.84375 -19.046875 L 7.21875 -15.828125 C 7.8125 -16.953125 8.660156 -17.847656 9.765625 -18.515625 C 10.878906 -19.179688 12.195312 -19.515625 13.71875 -19.515625 C 16.070312 -19.515625 17.898438 -18.769531 19.203125 -17.28125 C 20.503906 -15.800781 21.15625 -13.625 21.15625 -10.75 L 21.15625 0 L 16.25 0 L 16.25 -10.296875 C 16.25 -11.929688 15.914062 -13.179688 15.25 -14.046875 C 14.582031 -14.921875 13.546875 -15.359375 12.140625 -15.359375 C 10.753906 -15.359375 9.617188 -14.867188 8.734375 -13.890625 C 7.847656 -12.921875 7.40625 -11.566406 7.40625 -9.828125 L 7.40625 0 Z M 2.5 0 "/></g></g></g><g fill="#000000" fill-opacity="1"><g transform="translate(377.062279, 177.670909)"><g><path d="M 5.140625 -22 C 4.242188 -22 3.507812 -22.269531 2.9375 -22.8125 C 2.363281 -23.351562 2.078125 -24.03125 2.078125 -24.84375 C 2.078125 -25.664062 2.363281 -26.335938 2.9375 -26.859375 C 3.507812 -27.390625 4.242188 -27.65625 5.140625 -27.65625 C 6.035156 -27.65625 6.769531 -27.390625 7.34375 -26.859375 C 7.925781 -26.335938 8.21875 -25.664062 8.21875 -24.84375 C 8.21875 -24.03125 7.925781 -23.351562 7.34375 -22.8125 C 6.769531 -22.269531 6.035156 -22 5.140625 -22 Z M 2.6875 0 L 2.6875 -19.046875 L 7.609375 -19.046875 L 7.609375 0 Z M 2.6875 0 "/></g></g></g><g fill="#000000" fill-opacity="1"><g transform="translate(389.616722, 177.670909)"><g><path d="M 2.5 0 L 2.5 -19.046875 L 6.84375 -19.046875 L 7.21875 -15.828125 C 7.8125 -16.953125 8.660156 -17.847656 9.765625 -18.515625 C 10.878906 -19.179688 12.195312 -19.515625 13.71875 -19.515625 C 16.070312 -19.515625 17.898438 -18.769531 19.203125 -17.28125 C 20.503906 -15.800781 21.15625 -13.625 21.15625 -10.75 L 21.15625 0 L 16.25 0 L 16.25 -10.296875 C 16.25 -11.929688 15.914062 -13.179688 15.25 -14.046875 C 14.582031 -14.921875 13.546875 -15.359375 12.140625 -15.359375 C 10.753906 -15.359375 9.617188 -14.867188 8.734375 -13.890625 C 7.847656 -12.921875 7.40625 -11.566406 7.40625 -9.828125 L 7.40625 0 Z M 14.828125 -21.046875 C 14.109375 -21.046875 13.492188 -21.191406 12.984375 -21.484375 C 12.472656 -21.785156 12 -22.082031 11.5625 -22.375 C 11.125 -22.664062 10.648438 -22.8125 10.140625 -22.8125 C 9.191406 -22.8125 8.628906 -22.234375 8.453125 -21.078125 L 5.84375 -21.078125 C 6.101562 -22.722656 6.617188 -23.925781 7.390625 -24.6875 C 8.171875 -25.457031 9.15625 -25.84375 10.34375 -25.84375 C 11.050781 -25.84375 11.660156 -25.695312 12.171875 -25.40625 C 12.691406 -25.113281 13.164062 -24.816406 13.59375 -24.515625 C 14.03125 -24.222656 14.519531 -24.078125 15.0625 -24.078125 C 15.5 -24.078125 15.863281 -24.21875 16.15625 -24.5 C 16.445312 -24.78125 16.632812 -25.21875 16.71875 -25.8125 L 19.359375 -25.8125 C 19.109375 -24.164062 18.582031 -22.957031 17.78125 -22.1875 C 16.988281 -21.425781 16.003906 -21.046875 14.828125 -21.046875 Z M 14.828125 -21.046875 "/></g></g></g><g fill="#000000" fill-opacity="1"><g transform="translate(415.26237, 177.670909)"><g><path d="M 11.640625 0.453125 C 9.796875 0.453125 8.132812 0.03125 6.65625 -0.8125 C 5.1875 -1.65625 4.019531 -2.820312 3.15625 -4.3125 C 2.300781 -5.8125 1.875 -7.550781 1.875 -9.53125 C 1.875 -11.5 2.3125 -13.226562 3.1875 -14.71875 C 4.0625 -16.21875 5.234375 -17.390625 6.703125 -18.234375 C 8.171875 -19.085938 9.828125 -19.515625 11.671875 -19.515625 C 13.492188 -19.515625 15.140625 -19.085938 16.609375 -18.234375 C 18.078125 -17.390625 19.238281 -16.21875 20.09375 -14.71875 C 20.957031 -13.226562 21.390625 -11.5 21.390625 -9.53125 C 21.390625 -7.550781 20.957031 -5.8125 20.09375 -4.3125 C 19.238281 -2.820312 18.066406 -1.65625 16.578125 -0.8125 C 15.097656 0.03125 13.453125 0.453125 11.640625 0.453125 Z M 11.640625 -3.796875 C 12.921875 -3.796875 14.035156 -4.273438 14.984375 -5.234375 C 15.929688 -6.203125 16.40625 -7.632812 16.40625 -9.53125 C 16.40625 -11.414062 15.929688 -12.835938 14.984375 -13.796875 C 14.035156 -14.765625 12.929688 -15.25 11.671875 -15.25 C 10.367188 -15.25 9.25 -14.765625 8.3125 -13.796875 C 7.375 -12.835938 6.90625 -11.414062 6.90625 -9.53125 C 6.90625 -7.632812 7.375 -6.203125 8.3125 -5.234375 C 9.25 -4.273438 10.359375 -3.796875 11.640625 -3.796875 Z M 11.640625 -3.796875 "/></g></g></g><g fill="#000000" fill-opacity="1"><g transform="translate(440.831238, 177.670909)"><g/></g></g><g fill="#000000" fill-opacity="1"><g transform="translate(452.272354, 177.670909)"><g><path d="M 11.828125 0.453125 C 9.878906 0.453125 8.160156 0.03125 6.671875 -0.8125 C 5.191406 -1.65625 4.019531 -2.832031 3.15625 -4.34375 C 2.300781 -5.851562 1.875 -7.582031 1.875 -9.53125 C 1.875 -11.46875 2.300781 -13.191406 3.15625 -14.703125 C 4.019531 -16.210938 5.191406 -17.390625 6.671875 -18.234375 C 8.160156 -19.085938 9.878906 -19.515625 11.828125 -19.515625 C 14.265625 -19.515625 16.3125 -18.878906 17.96875 -17.609375 C 19.632812 -16.335938 20.695312 -14.585938 21.15625 -12.359375 L 15.984375 -12.359375 C 15.722656 -13.285156 15.210938 -14.007812 14.453125 -14.53125 C 13.703125 -15.0625 12.816406 -15.328125 11.796875 -15.328125 C 10.429688 -15.328125 9.273438 -14.8125 8.328125 -13.78125 C 7.378906 -12.757812 6.90625 -11.34375 6.90625 -9.53125 C 6.90625 -7.707031 7.378906 -6.28125 8.328125 -5.25 C 9.273438 -4.226562 10.429688 -3.71875 11.796875 -3.71875 C 12.816406 -3.71875 13.703125 -3.972656 14.453125 -4.484375 C 15.210938 -5.003906 15.722656 -5.738281 15.984375 -6.6875 L 21.15625 -6.6875 C 20.695312 -4.53125 19.632812 -2.800781 17.96875 -1.5 C 16.3125 -0.195312 14.265625 0.453125 11.828125 0.453125 Z M 11.828125 0.453125 "/></g></g></g><g fill="#000000" fill-opacity="1"><g transform="translate(477.610876, 177.670909)"><g><path d="M 11.640625 0.453125 C 9.796875 0.453125 8.132812 0.03125 6.65625 -0.8125 C 5.1875 -1.65625 4.019531 -2.820312 3.15625 -4.3125 C 2.300781 -5.8125 1.875 -7.550781 1.875 -9.53125 C 1.875 -11.5 2.3125 -13.226562 3.1875 -14.71875 C 4.0625 -16.21875 5.234375 -17.390625 6.703125 -18.234375 C 8.171875 -19.085938 9.828125 -19.515625 11.671875 -19.515625 C 13.492188 -19.515625 15.140625 -19.085938 16.609375 -18.234375 C 18.078125 -17.390625 19.238281 -16.21875 20.09375 -14.71875 C 20.957031 -13.226562 21.390625 -11.5 21.390625 -9.53125 C 21.390625 -7.550781 20.957031 -5.8125 20.09375 -4.3125 C 19.238281 -2.820312 18.066406 -1.65625 16.578125 -0.8125 C 15.097656 0.03125 13.453125 0.453125 11.640625 0.453125 Z M 11.640625 -3.796875 C 12.921875 -3.796875 14.035156 -4.273438 14.984375 -5.234375 C 15.929688 -6.203125 16.40625 -7.632812 16.40625 -9.53125 C 16.40625 -11.414062 15.929688 -12.835938 14.984375 -13.796875 C 14.035156 -14.765625 12.929688 -15.25 11.671875 -15.25 C 10.367188 -15.25 9.25 -14.765625 8.3125 -13.796875 C 7.375 -12.835938 6.90625 -11.414062 6.90625 -9.53125 C 6.90625 -7.632812 7.375 -6.203125 8.3125 -5.234375 C 9.25 -4.273438 10.359375 -3.796875 11.640625 -3.796875 Z M 11.640625 -3.796875 "/></g></g></g><g fill="#000000" fill-opacity="1"><g transform="translate(503.179734, 177.670909)"><g><path d="M 2.5 0 L 2.5 -19.046875 L 6.84375 -19.046875 L 7.21875 -15.828125 C 7.8125 -16.953125 8.660156 -17.847656 9.765625 -18.515625 C 10.878906 -19.179688 12.195312 -19.515625 13.71875 -19.515625 C 16.070312 -19.515625 17.898438 -18.769531 19.203125 -17.28125 C 20.503906 -15.800781 21.15625 -13.625 21.15625 -10.75 L 21.15625 0 L 16.25 0 L 16.25 -10.296875 C 16.25 -11.929688 15.914062 -13.179688 15.25 -14.046875 C 14.582031 -14.921875 13.546875 -15.359375 12.140625 -15.359375 C 10.753906 -15.359375 9.617188 -14.867188 8.734375 -13.890625 C 7.847656 -12.921875 7.40625 -11.566406 7.40625 -9.828125 L 7.40625 0 Z M 2.5 0 "/></g></g></g><g fill="#000000" fill-opacity="1"><g transform="translate(528.82537, 177.670909)"><g/></g></g><g fill="#000000" fill-opacity="1"><g transform="translate(540.266486, 177.670909)"><g><path d="M 9.640625 0.453125 C 7.253906 0.453125 5.414062 -0.285156 4.125 -1.765625 C 2.832031 -3.253906 2.1875 -5.429688 2.1875 -8.296875 L 2.1875 -19.046875 L 7.0625 -19.046875 L 7.0625 -8.75 C 7.0625 -7.113281 7.394531 -5.859375 8.0625 -4.984375 C 8.726562 -4.117188 9.78125 -3.6875 11.21875 -3.6875 C 12.570312 -3.6875 13.691406 -4.171875 14.578125 -5.140625 C 15.460938 -6.117188 15.90625 -7.476562 15.90625 -9.21875 L 15.90625 -19.046875 L 20.8125 -19.046875 L 20.8125 0 L 16.46875 0 L 16.09375 -3.21875 C 15.5 -2.09375 14.644531 -1.195312 13.53125 -0.53125 C 12.425781 0.125 11.128906 0.453125 9.640625 0.453125 Z M 9.640625 0.453125 "/></g></g></g><g fill="#000000" fill-opacity="1"><g transform="translate(565.912122, 177.670909)"><g><path d="M 2.5 0 L 2.5 -19.046875 L 6.84375 -19.046875 L 7.21875 -15.828125 C 7.8125 -16.953125 8.660156 -17.847656 9.765625 -18.515625 C 10.878906 -19.179688 12.195312 -19.515625 13.71875 -19.515625 C 16.070312 -19.515625 17.898438 -18.769531 19.203125 -17.28125 C 20.503906 -15.800781 21.15625 -13.625 21.15625 -10.75 L 21.15625 0 L 16.25 0 L 16.25 -10.296875 C 16.25 -11.929688 15.914062 -13.179688 15.25 -14.046875 C 14.582031 -14.921875 13.546875 -15.359375 12.140625 -15.359375 C 10.753906 -15.359375 9.617188 -14.867188 8.734375 -13.890625 C 7.847656 -12.921875 7.40625 -11.566406 7.40625 -9.828125 L 7.40625 0 Z M 2.5 0 "/></g></g></g><g fill="#000000" fill-opacity="1"><g transform="translate(591.557758, 177.670909)"><g/></g></g><g fill="#000000" fill-opacity="1"><g transform="translate(602.998874, 177.670909)"><g><path d="M 5.140625 -22 C 4.242188 -22 3.507812 -22.269531 2.9375 -22.8125 C 2.363281 -23.351562 2.078125 -24.03125 2.078125 -24.84375 C 2.078125 -25.664062 2.363281 -26.335938 2.9375 -26.859375 C 3.507812 -27.390625 4.242188 -27.65625 5.140625 -27.65625 C 6.035156 -27.65625 6.769531 -27.390625 7.34375 -26.859375 C 7.925781 -26.335938 8.21875 -25.664062 8.21875 -24.84375 C 8.21875 -24.03125 7.925781 -23.351562 7.34375 -22.8125 C 6.769531 -22.269531 6.035156 -22 5.140625 -22 Z M 2.6875 0 L 2.6875 -19.046875 L 7.609375 -19.046875 L 7.609375 0 Z M 2.6875 0 "/></g></g></g><g fill="#000000" fill-opacity="1"><g transform="translate(615.553316, 177.670909)"><g><path d="M 2.5 0 L 2.5 -19.046875 L 6.84375 -19.046875 L 7.21875 -15.828125 C 7.8125 -16.953125 8.660156 -17.847656 9.765625 -18.515625 C 10.878906 -19.179688 12.195312 -19.515625 13.71875 -19.515625 C 16.070312 -19.515625 17.898438 -18.769531 19.203125 -17.28125 C 20.503906 -15.800781 21.15625 -13.625 21.15625 -10.75 L 21.15625 0 L 16.25 0 L 16.25 -10.296875 C 16.25 -11.929688 15.914062 -13.179688 15.25 -14.046875 C 14.582031 -14.921875 13.546875 -15.359375 12.140625 -15.359375 C 10.753906 -15.359375 9.617188 -14.867188 8.734375 -13.890625 C 7.847656 -12.921875 7.40625 -11.566406 7.40625 -9.828125 L 7.40625 0 Z M 2.5 0 "/></g></g></g><g fill="#000000" fill-opacity="1"><g transform="translate(641.198952, 177.670909)"><g><path d="M 10.984375 0 C 8.984375 0 7.378906 -0.484375 6.171875 -1.453125 C 4.972656 -2.429688 4.375 -4.160156 4.375 -6.640625 L 4.375 -14.9375 L 1.109375 -14.9375 L 1.109375 -19.046875 L 4.375 -19.046875 L 4.953125 -24.15625 L 9.296875 -24.15625 L 9.296875 -19.046875 L 14.4375 -19.046875 L 14.4375 -14.9375 L 9.296875 -14.9375 L 9.296875 -6.609375 C 9.296875 -5.679688 9.492188 -5.046875 9.890625 -4.703125 C 10.285156 -4.359375 10.96875 -4.1875 11.9375 -4.1875 L 14.328125 -4.1875 L 14.328125 0 Z M 10.984375 0 "/></g></g></g><g fill="#000000" fill-opacity="1"><g transform="translate(659.66555, 177.670909)"><g><path d="M 11.75 0.453125 C 9.832031 0.453125 8.128906 0.046875 6.640625 -0.765625 C 5.160156 -1.585938 3.992188 -2.738281 3.140625 -4.21875 C 2.296875 -5.707031 1.875 -7.425781 1.875 -9.375 C 1.875 -11.34375 2.289062 -13.09375 3.125 -14.625 C 3.957031 -16.164062 5.109375 -17.363281 6.578125 -18.21875 C 8.054688 -19.082031 9.796875 -19.515625 11.796875 -19.515625 C 13.660156 -19.515625 15.304688 -19.101562 16.734375 -18.28125 C 18.171875 -17.457031 19.289062 -16.335938 20.09375 -14.921875 C 20.90625 -13.503906 21.3125 -11.921875 21.3125 -10.171875 C 21.3125 -9.890625 21.304688 -9.59375 21.296875 -9.28125 C 21.285156 -8.976562 21.265625 -8.660156 21.234375 -8.328125 L 6.765625 -8.328125 C 6.859375 -6.847656 7.375 -5.6875 8.3125 -4.84375 C 9.25 -4 10.382812 -3.578125 11.71875 -3.578125 C 12.71875 -3.578125 13.554688 -3.800781 14.234375 -4.25 C 14.910156 -4.695312 15.414062 -5.273438 15.75 -5.984375 L 20.734375 -5.984375 C 20.378906 -4.785156 19.785156 -3.691406 18.953125 -2.703125 C 18.117188 -1.722656 17.09375 -0.953125 15.875 -0.390625 C 14.664062 0.171875 13.289062 0.453125 11.75 0.453125 Z M 11.796875 -15.515625 C 10.585938 -15.515625 9.519531 -15.175781 8.59375 -14.5 C 7.675781 -13.820312 7.09375 -12.789062 6.84375 -11.40625 L 16.328125 -11.40625 C 16.242188 -12.65625 15.78125 -13.648438 14.9375 -14.390625 C 14.09375 -15.140625 13.046875 -15.515625 11.796875 -15.515625 Z M 11.796875 -15.515625 "/></g></g></g><g fill="#000000" fill-opacity="1"><g transform="translate(684.927282, 177.670909)"><g><path d="M 2.5 0 L 2.5 -19.046875 L 6.875 -19.046875 L 7.328125 -15.484375 C 8.023438 -16.710938 8.96875 -17.691406 10.15625 -18.421875 C 11.34375 -19.148438 12.742188 -19.515625 14.359375 -19.515625 L 14.359375 -14.328125 L 12.984375 -14.328125 C 11.910156 -14.328125 10.945312 -14.160156 10.09375 -13.828125 C 9.25 -13.492188 8.585938 -12.914062 8.109375 -12.09375 C 7.640625 -11.28125 7.40625 -10.144531 7.40625 -8.6875 L 7.40625 0 Z M 2.5 0 "/></g></g></g><g fill="#000000" fill-opacity="1"><g transform="translate(702.434132, 177.670909)"><g><path d="M 11.75 0.453125 C 9.832031 0.453125 8.128906 0.046875 6.640625 -0.765625 C 5.160156 -1.585938 3.992188 -2.738281 3.140625 -4.21875 C 2.296875 -5.707031 1.875 -7.425781 1.875 -9.375 C 1.875 -11.34375 2.289062 -13.09375 3.125 -14.625 C 3.957031 -16.164062 5.109375 -17.363281 6.578125 -18.21875 C 8.054688 -19.082031 9.796875 -19.515625 11.796875 -19.515625 C 13.660156 -19.515625 15.304688 -19.101562 16.734375 -18.28125 C 18.171875 -17.457031 19.289062 -16.335938 20.09375 -14.921875 C 20.90625 -13.503906 21.3125 -11.921875 21.3125 -10.171875 C 21.3125 -9.890625 21.304688 -9.59375 21.296875 -9.28125 C 21.285156 -8.976562 21.265625 -8.660156 21.234375 -8.328125 L 6.765625 -8.328125 C 6.859375 -6.847656 7.375 -5.6875 8.3125 -4.84375 C 9.25 -4 10.382812 -3.578125 11.71875 -3.578125 C 12.71875 -3.578125 13.554688 -3.800781 14.234375 -4.25 C 14.910156 -4.695312 15.414062 -5.273438 15.75 -5.984375 L 20.734375 -5.984375 C 20.378906 -4.785156 19.785156 -3.691406 18.953125 -2.703125 C 18.117188 -1.722656 17.09375 -0.953125 15.875 -0.390625 C 14.664062 0.171875 13.289062 0.453125 11.75 0.453125 Z M 11.796875 -15.515625 C 10.585938 -15.515625 9.519531 -15.175781 8.59375 -14.5 C 7.675781 -13.820312 7.09375 -12.789062 6.84375 -11.40625 L 16.328125 -11.40625 C 16.242188 -12.65625 15.78125 -13.648438 14.9375 -14.390625 C 14.09375 -15.140625 13.046875 -15.515625 11.796875 -15.515625 Z M 10.40625 -20.578125 L 10.40625 -24.046875 L 19.09375 -28.734375 L 19.09375 -24.734375 Z M 10.40625 -20.578125 "/></g></g></g><g fill="#000000" fill-opacity="1"><g transform="translate(727.695865, 177.670909)"><g><path d="M 10.375 0.453125 C 8.675781 0.453125 7.1875 0.179688 5.90625 -0.359375 C 4.632812 -0.910156 3.613281 -1.671875 2.84375 -2.640625 C 2.070312 -3.617188 1.609375 -4.75 1.453125 -6.03125 L 6.40625 -6.03125 C 6.5625 -5.289062 6.976562 -4.65625 7.65625 -4.125 C 8.34375 -3.601562 9.222656 -3.34375 10.296875 -3.34375 C 11.367188 -3.34375 12.15625 -3.554688 12.65625 -3.984375 C 13.15625 -4.421875 13.40625 -4.921875 13.40625 -5.484375 C 13.40625 -6.304688 13.046875 -6.863281 12.328125 -7.15625 C 11.609375 -7.457031 10.609375 -7.75 9.328125 -8.03125 C 8.515625 -8.207031 7.679688 -8.421875 6.828125 -8.671875 C 5.984375 -8.929688 5.207031 -9.257812 4.5 -9.65625 C 3.800781 -10.050781 3.234375 -10.5625 2.796875 -11.1875 C 2.367188 -11.820312 2.15625 -12.597656 2.15625 -13.515625 C 2.15625 -15.203125 2.828125 -16.625 4.171875 -17.78125 C 5.515625 -18.9375 7.398438 -19.515625 9.828125 -19.515625 C 12.085938 -19.515625 13.890625 -18.988281 15.234375 -17.9375 C 16.578125 -16.882812 17.375 -15.4375 17.625 -13.59375 L 12.984375 -13.59375 C 12.703125 -15 11.640625 -15.703125 9.796875 -15.703125 C 8.867188 -15.703125 8.15625 -15.519531 7.65625 -15.15625 C 7.15625 -14.800781 6.90625 -14.359375 6.90625 -13.828125 C 6.90625 -13.265625 7.273438 -12.816406 8.015625 -12.484375 C 8.765625 -12.148438 9.753906 -11.84375 10.984375 -11.5625 C 12.316406 -11.25 13.539062 -10.90625 14.65625 -10.53125 C 15.769531 -10.164062 16.65625 -9.617188 17.3125 -8.890625 C 17.976562 -8.160156 18.3125 -7.117188 18.3125 -5.765625 C 18.34375 -4.585938 18.035156 -3.523438 17.390625 -2.578125 C 16.753906 -1.628906 15.832031 -0.882812 14.625 -0.34375 C 13.425781 0.1875 12.007812 0.453125 10.375 0.453125 Z M 10.375 0.453125 "/></g></g></g><g fill="#000000" fill-opacity="1"><g transform="translate(750.155078, 177.670909)"><g/></g></g><g fill="#000000" fill-opacity="1"><g transform="translate(761.596193, 177.670909)"><g><path d="M 11.75 0.453125 C 9.832031 0.453125 8.128906 0.046875 6.640625 -0.765625 C 5.160156 -1.585938 3.992188 -2.738281 3.140625 -4.21875 C 2.296875 -5.707031 1.875 -7.425781 1.875 -9.375 C 1.875 -11.34375 2.289062 -13.09375 3.125 -14.625 C 3.957031 -16.164062 5.109375 -17.363281 6.578125 -18.21875 C 8.054688 -19.082031 9.796875 -19.515625 11.796875 -19.515625 C 13.660156 -19.515625 15.304688 -19.101562 16.734375 -18.28125 C 18.171875 -17.457031 19.289062 -16.335938 20.09375 -14.921875 C 20.90625 -13.503906 21.3125 -11.921875 21.3125 -10.171875 C 21.3125 -9.890625 21.304688 -9.59375 21.296875 -9.28125 C 21.285156 -8.976562 21.265625 -8.660156 21.234375 -8.328125 L 6.765625 -8.328125 C 6.859375 -6.847656 7.375 -5.6875 8.3125 -4.84375 C 9.25 -4 10.382812 -3.578125 11.71875 -3.578125 C 12.71875 -3.578125 13.554688 -3.800781 14.234375 -4.25 C 14.910156 -4.695312 15.414062 -5.273438 15.75 -5.984375 L 20.734375 -5.984375 C 20.378906 -4.785156 19.785156 -3.691406 18.953125 -2.703125 C 18.117188 -1.722656 17.09375 -0.953125 15.875 -0.390625 C 14.664062 0.171875 13.289062 0.453125 11.75 0.453125 Z M 11.796875 -15.515625 C 10.585938 -15.515625 9.519531 -15.175781 8.59375 -14.5 C 7.675781 -13.820312 7.09375 -12.789062 6.84375 -11.40625 L 16.328125 -11.40625 C 16.242188 -12.65625 15.78125 -13.648438 14.9375 -14.390625 C 14.09375 -15.140625 13.046875 -15.515625 11.796875 -15.515625 Z M 11.796875 -15.515625 "/></g></g></g><g fill="#000000" fill-opacity="1"><g transform="translate(786.857926, 177.670909)"><g><path d="M 10.375 0.453125 C 8.675781 0.453125 7.1875 0.179688 5.90625 -0.359375 C 4.632812 -0.910156 3.613281 -1.671875 2.84375 -2.640625 C 2.070312 -3.617188 1.609375 -4.75 1.453125 -6.03125 L 6.40625 -6.03125 C 6.5625 -5.289062 6.976562 -4.65625 7.65625 -4.125 C 8.34375 -3.601562 9.222656 -3.34375 10.296875 -3.34375 C 11.367188 -3.34375 12.15625 -3.554688 12.65625 -3.984375 C 13.15625 -4.421875 13.40625 -4.921875 13.40625 -5.484375 C 13.40625 -6.304688 13.046875 -6.863281 12.328125 -7.15625 C 11.609375 -7.457031 10.609375 -7.75 9.328125 -8.03125 C 8.515625 -8.207031 7.679688 -8.421875 6.828125 -8.671875 C 5.984375 -8.929688 5.207031 -9.257812 4.5 -9.65625 C 3.800781 -10.050781 3.234375 -10.5625 2.796875 -11.1875 C 2.367188 -11.820312 2.15625 -12.597656 2.15625 -13.515625 C 2.15625 -15.203125 2.828125 -16.625 4.171875 -17.78125 C 5.515625 -18.9375 7.398438 -19.515625 9.828125 -19.515625 C 12.085938 -19.515625 13.890625 -18.988281 15.234375 -17.9375 C 16.578125 -16.882812 17.375 -15.4375 17.625 -13.59375 L 12.984375 -13.59375 C 12.703125 -15 11.640625 -15.703125 9.796875 -15.703125 C 8.867188 -15.703125 8.15625 -15.519531 7.65625 -15.15625 C 7.15625 -14.800781 6.90625 -14.359375 6.90625 -13.828125 C 6.90625 -13.265625 7.273438 -12.816406 8.015625 -12.484375 C 8.765625 -12.148438 9.753906 -11.84375 10.984375 -11.5625 C 12.316406 -11.25 13.539062 -10.90625 14.65625 -10.53125 C 15.769531 -10.164062 16.65625 -9.617188 17.3125 -8.890625 C 17.976562 -8.160156 18.3125 -7.117188 18.3125 -5.765625 C 18.34375 -4.585938 18.035156 -3.523438 17.390625 -2.578125 C 16.753906 -1.628906 15.832031 -0.882812 14.625 -0.34375 C 13.425781 0.1875 12.007812 0.453125 10.375 0.453125 Z M 10.375 0.453125 "/></g></g></g><g fill="#000000" fill-opacity="1"><g transform="translate(809.317138, 177.670909)"><g><path d="M 2.5 8.453125 L 2.5 -19.046875 L 6.875 -19.046875 L 7.40625 -16.328125 C 8.019531 -17.171875 8.832031 -17.910156 9.84375 -18.546875 C 10.863281 -19.191406 12.175781 -19.515625 13.78125 -19.515625 C 15.570312 -19.515625 17.171875 -19.078125 18.578125 -18.203125 C 19.992188 -17.335938 21.109375 -16.144531 21.921875 -14.625 C 22.742188 -13.113281 23.15625 -11.398438 23.15625 -9.484375 C 23.15625 -7.566406 22.742188 -5.859375 21.921875 -4.359375 C 21.109375 -2.859375 19.992188 -1.679688 18.578125 -0.828125 C 17.171875 0.0234375 15.570312 0.453125 13.78125 0.453125 C 12.351562 0.453125 11.097656 0.1875 10.015625 -0.34375 C 8.941406 -0.882812 8.070312 -1.640625 7.40625 -2.609375 L 7.40625 8.453125 Z M 12.75 -3.84375 C 14.3125 -3.84375 15.601562 -4.363281 16.625 -5.40625 C 17.65625 -6.457031 18.171875 -7.816406 18.171875 -9.484375 C 18.171875 -11.148438 17.65625 -12.519531 16.625 -13.59375 C 15.601562 -14.664062 14.3125 -15.203125 12.75 -15.203125 C 11.164062 -15.203125 9.863281 -14.671875 8.84375 -13.609375 C 7.832031 -12.546875 7.328125 -11.1875 7.328125 -9.53125 C 7.328125 -7.863281 7.832031 -6.5 8.84375 -5.4375 C 9.863281 -4.375 11.164062 -3.84375 12.75 -3.84375 Z M 12.75 -3.84375 "/></g></g></g><g fill="#000000" fill-opacity="1"><g transform="translate(836.651991, 177.670909)"><g><path d="M 11.75 0.453125 C 9.832031 0.453125 8.128906 0.046875 6.640625 -0.765625 C 5.160156 -1.585938 3.992188 -2.738281 3.140625 -4.21875 C 2.296875 -5.707031 1.875 -7.425781 1.875 -9.375 C 1.875 -11.34375 2.289062 -13.09375 3.125 -14.625 C 3.957031 -16.164062 5.109375 -17.363281 6.578125 -18.21875 C 8.054688 -19.082031 9.796875 -19.515625 11.796875 -19.515625 C 13.660156 -19.515625 15.304688 -19.101562 16.734375 -18.28125 C 18.171875 -17.457031 19.289062 -16.335938 20.09375 -14.921875 C 20.90625 -13.503906 21.3125 -11.921875 21.3125 -10.171875 C 21.3125 -9.890625 21.304688 -9.59375 21.296875 -9.28125 C 21.285156 -8.976562 21.265625 -8.660156 21.234375 -8.328125 L 6.765625 -8.328125 C 6.859375 -6.847656 7.375 -5.6875 8.3125 -4.84375 C 9.25 -4 10.382812 -3.578125 11.71875 -3.578125 C 12.71875 -3.578125 13.554688 -3.800781 14.234375 -4.25 C 14.910156 -4.695312 15.414062 -5.273438 15.75 -5.984375 L 20.734375 -5.984375 C 20.378906 -4.785156 19.785156 -3.691406 18.953125 -2.703125 C 18.117188 -1.722656 17.09375 -0.953125 15.875 -0.390625 C 14.664062 0.171875 13.289062 0.453125 11.75 0.453125 Z M 11.796875 -15.515625 C 10.585938 -15.515625 9.519531 -15.175781 8.59375 -14.5 C 7.675781 -13.820312 7.09375 -12.789062 6.84375 -11.40625 L 16.328125 -11.40625 C 16.242188 -12.65625 15.78125 -13.648438 14.9375 -14.390625 C 14.09375 -15.140625 13.046875 -15.515625 11.796875 -15.515625 Z M 11.796875 -15.515625 "/></g></g></g><g fill="#000000" fill-opacity="1"><g transform="translate(861.913724, 177.670909)"><g><path d="M 11.828125 0.453125 C 9.878906 0.453125 8.160156 0.03125 6.671875 -0.8125 C 5.191406 -1.65625 4.019531 -2.832031 3.15625 -4.34375 C 2.300781 -5.851562 1.875 -7.582031 1.875 -9.53125 C 1.875 -11.46875 2.300781 -13.191406 3.15625 -14.703125 C 4.019531 -16.210938 5.191406 -17.390625 6.671875 -18.234375 C 8.160156 -19.085938 9.878906 -19.515625 11.828125 -19.515625 C 14.265625 -19.515625 16.3125 -18.878906 17.96875 -17.609375 C 19.632812 -16.335938 20.695312 -14.585938 21.15625 -12.359375 L 15.984375 -12.359375 C 15.722656 -13.285156 15.210938 -14.007812 14.453125 -14.53125 C 13.703125 -15.0625 12.816406 -15.328125 11.796875 -15.328125 C 10.429688 -15.328125 9.273438 -14.8125 8.328125 -13.78125 C 7.378906 -12.757812 6.90625 -11.34375 6.90625 -9.53125 C 6.90625 -7.707031 7.378906 -6.28125 8.328125 -5.25 C 9.273438 -4.226562 10.429688 -3.71875 11.796875 -3.71875 C 12.816406 -3.71875 13.703125 -3.972656 14.453125 -4.484375 C 15.210938 -5.003906 15.722656 -5.738281 15.984375 -6.6875 L 21.15625 -6.6875 C 20.695312 -4.53125 19.632812 -2.800781 17.96875 -1.5 C 16.3125 -0.195312 14.265625 0.453125 11.828125 0.453125 Z M 11.828125 0.453125 "/></g></g></g><g fill="#000000" fill-opacity="1"><g transform="translate(887.252224, 177.670909)"><g><path d="M 5.140625 -22 C 4.242188 -22 3.507812 -22.269531 2.9375 -22.8125 C 2.363281 -23.351562 2.078125 -24.03125 2.078125 -24.84375 C 2.078125 -25.664062 2.363281 -26.335938 2.9375 -26.859375 C 3.507812 -27.390625 4.242188 -27.65625 5.140625 -27.65625 C 6.035156 -27.65625 6.769531 -27.390625 7.34375 -26.859375 C 7.925781 -26.335938 8.21875 -25.664062 8.21875 -24.84375 C 8.21875 -24.03125 7.925781 -23.351562 7.34375 -22.8125 C 6.769531 -22.269531 6.035156 -22 5.140625 -22 Z M 2.6875 0 L 2.6875 -19.046875 L 7.609375 -19.046875 L 7.609375 0 Z M 2.6875 0 "/></g></g></g><g fill="#000000" fill-opacity="1"><g transform="translate(899.806666, 177.670909)"><g><path d="M 9.0625 0.453125 C 7.425781 0.453125 6.082031 0.191406 5.03125 -0.328125 C 3.976562 -0.847656 3.195312 -1.539062 2.6875 -2.40625 C 2.175781 -3.28125 1.921875 -4.242188 1.921875 -5.296875 C 1.921875 -7.066406 2.609375 -8.5 3.984375 -9.59375 C 5.367188 -10.695312 7.445312 -11.25 10.21875 -11.25 L 15.0625 -11.25 L 15.0625 -11.71875 C 15.0625 -13.019531 14.6875 -13.976562 13.9375 -14.59375 C 13.195312 -15.207031 12.273438 -15.515625 11.171875 -15.515625 C 10.171875 -15.515625 9.300781 -15.273438 8.5625 -14.796875 C 7.820312 -14.328125 7.363281 -13.632812 7.1875 -12.71875 L 2.375 -12.71875 C 2.507812 -14.09375 2.976562 -15.289062 3.78125 -16.3125 C 4.59375 -17.34375 5.632812 -18.132812 6.90625 -18.6875 C 8.1875 -19.238281 9.625 -19.515625 11.21875 -19.515625 C 13.925781 -19.515625 16.0625 -18.832031 17.625 -17.46875 C 19.1875 -16.113281 19.96875 -14.195312 19.96875 -11.71875 L 19.96875 0 L 15.78125 0 L 15.328125 -3.078125 C 14.765625 -2.046875 13.972656 -1.195312 12.953125 -0.53125 C 11.941406 0.125 10.644531 0.453125 9.0625 0.453125 Z M 10.171875 -3.375 C 11.585938 -3.375 12.679688 -3.832031 13.453125 -4.75 C 14.234375 -5.675781 14.726562 -6.820312 14.9375 -8.1875 L 10.75 -8.1875 C 9.445312 -8.1875 8.515625 -7.945312 7.953125 -7.46875 C 7.390625 -7 7.109375 -6.414062 7.109375 -5.71875 C 7.109375 -4.976562 7.390625 -4.398438 7.953125 -3.984375 C 8.515625 -3.578125 9.253906 -3.375 10.171875 -3.375 Z M 10.171875 -3.375 "/></g></g></g><g fill="#000000" fill-opacity="1"><g transform="translate(924.262186, 177.670909)"><g><path d="M 2.5 0 L 2.5 -27.65625 L 7.40625 -27.65625 L 7.40625 0 Z M 2.5 0 "/></g></g></g><g fill="#000000" fill-opacity="1"><g transform="translate(936.509515, 177.670909)"><g/></g></g><g fill="#000000" fill-opacity="1"><g transform="translate(947.950631, 177.670909)"><g><path d="M 11.75 0.453125 C 9.832031 0.453125 8.128906 0.046875 6.640625 -0.765625 C 5.160156 -1.585938 3.992188 -2.738281 3.140625 -4.21875 C 2.296875 -5.707031 1.875 -7.425781 1.875 -9.375 C 1.875 -11.34375 2.289062 -13.09375 3.125 -14.625 C 3.957031 -16.164062 5.109375 -17.363281 6.578125 -18.21875 C 8.054688 -19.082031 9.796875 -19.515625 11.796875 -19.515625 C 13.660156 -19.515625 15.304688 -19.101562 16.734375 -18.28125 C 18.171875 -17.457031 19.289062 -16.335938 20.09375 -14.921875 C 20.90625 -13.503906 21.3125 -11.921875 21.3125 -10.171875 C 21.3125 -9.890625 21.304688 -9.59375 21.296875 -9.28125 C 21.285156 -8.976562 21.265625 -8.660156 21.234375 -8.328125 L 6.765625 -8.328125 C 6.859375 -6.847656 7.375 -5.6875 8.3125 -4.84375 C 9.25 -4 10.382812 -3.578125 11.71875 -3.578125 C 12.71875 -3.578125 13.554688 -3.800781 14.234375 -4.25 C 14.910156 -4.695312 15.414062 -5.273438 15.75 -5.984375 L 20.734375 -5.984375 C 20.378906 -4.785156 19.785156 -3.691406 18.953125 -2.703125 C 18.117188 -1.722656 17.09375 -0.953125 15.875 -0.390625 C 14.664062 0.171875 13.289062 0.453125 11.75 0.453125 Z M 11.796875 -15.515625 C 10.585938 -15.515625 9.519531 -15.175781 8.59375 -14.5 C 7.675781 -13.820312 7.09375 -12.789062 6.84375 -11.40625 L 16.328125 -11.40625 C 16.242188 -12.65625 15.78125 -13.648438 14.9375 -14.390625 C 14.09375 -15.140625 13.046875 -15.515625 11.796875 -15.515625 Z M 11.796875 -15.515625 "/></g></g></g><g fill="#000000" fill-opacity="1"><g transform="translate(973.212363, 177.670909)"><g><path d="M 2.5 0 L 2.5 -19.046875 L 6.84375 -19.046875 L 7.21875 -15.828125 C 7.8125 -16.953125 8.660156 -17.847656 9.765625 -18.515625 C 10.878906 -19.179688 12.195312 -19.515625 13.71875 -19.515625 C 16.070312 -19.515625 17.898438 -18.769531 19.203125 -17.28125 C 20.503906 -15.800781 21.15625 -13.625 21.15625 -10.75 L 21.15625 0 L 16.25 0 L 16.25 -10.296875 C 16.25 -11.929688 15.914062 -13.179688 15.25 -14.046875 C 14.582031 -14.921875 13.546875 -15.359375 12.140625 -15.359375 C 10.753906 -15.359375 9.617188 -14.867188 8.734375 -13.890625 C 7.847656 -12.921875 7.40625 -11.566406 7.40625 -9.828125 L 7.40625 0 Z M 2.5 0 "/></g></g></g><g fill="#000000" fill-opacity="1"><g transform="translate(998.858023, 177.670909)"><g/></g></g><g fill="#000000" fill-opacity="1"><g transform="translate(1010.299138, 177.670909)"><g><path d="M 10.984375 0 C 8.984375 0 7.378906 -0.484375 6.171875 -1.453125 C 4.972656 -2.429688 4.375 -4.160156 4.375 -6.640625 L 4.375 -14.9375 L 1.109375 -14.9375 L 1.109375 -19.046875 L 4.375 -19.046875 L 4.953125 -24.15625 L 9.296875 -24.15625 L 9.296875 -19.046875 L 14.4375 -19.046875 L 14.4375 -14.9375 L 9.296875 -14.9375 L 9.296875 -6.609375 C 9.296875 -5.679688 9.492188 -5.046875 9.890625 -4.703125 C 10.285156 -4.359375 10.96875 -4.1875 11.9375 -4.1875 L 14.328125 -4.1875 L 14.328125 0 Z M 10.984375 0 "/></g></g></g><g fill="#000000" fill-opacity="1"><g transform="translate(1028.765736, 177.670909)"><g><path d="M 2.5 0 L 2.5 -19.046875 L 6.875 -19.046875 L 7.328125 -15.484375 C 8.023438 -16.710938 8.96875 -17.691406 10.15625 -18.421875 C 11.34375 -19.148438 12.742188 -19.515625 14.359375 -19.515625 L 14.359375 -14.328125 L 12.984375 -14.328125 C 11.910156 -14.328125 10.945312 -14.160156 10.09375 -13.828125 C 9.25 -13.492188 8.585938 -12.914062 8.109375 -12.09375 C 7.640625 -11.28125 7.40625 -10.144531 7.40625 -8.6875 L 7.40625 0 Z M 2.5 0 "/></g></g></g><g fill="#000000" fill-opacity="1"><g transform="translate(1046.272586, 177.670909)"><g><path d="M 11.75 0.453125 C 9.832031 0.453125 8.128906 0.046875 6.640625 -0.765625 C 5.160156 -1.585938 3.992188 -2.738281 3.140625 -4.21875 C 2.296875 -5.707031 1.875 -7.425781 1.875 -9.375 C 1.875 -11.34375 2.289062 -13.09375 3.125 -14.625 C 3.957031 -16.164062 5.109375 -17.363281 6.578125 -18.21875 C 8.054688 -19.082031 9.796875 -19.515625 11.796875 -19.515625 C 13.660156 -19.515625 15.304688 -19.101562 16.734375 -18.28125 C 18.171875 -17.457031 19.289062 -16.335938 20.09375 -14.921875 C 20.90625 -13.503906 21.3125 -11.921875 21.3125 -10.171875 C 21.3125 -9.890625 21.304688 -9.59375 21.296875 -9.28125 C 21.285156 -8.976562 21.265625 -8.660156 21.234375 -8.328125 L 6.765625 -8.328125 C 6.859375 -6.847656 7.375 -5.6875 8.3125 -4.84375 C 9.25 -4 10.382812 -3.578125 11.71875 -3.578125 C 12.71875 -3.578125 13.554688 -3.800781 14.234375 -4.25 C 14.910156 -4.695312 15.414062 -5.273438 15.75 -5.984375 L 20.734375 -5.984375 C 20.378906 -4.785156 19.785156 -3.691406 18.953125 -2.703125 C 18.117188 -1.722656 17.09375 -0.953125 15.875 -0.390625 C 14.664062 0.171875 13.289062 0.453125 11.75 0.453125 Z M 11.796875 -15.515625 C 10.585938 -15.515625 9.519531 -15.175781 8.59375 -14.5 C 7.675781 -13.820312 7.09375 -12.789062 6.84375 -11.40625 L 16.328125 -11.40625 C 16.242188 -12.65625 15.78125 -13.648438 14.9375 -14.390625 C 14.09375 -15.140625 13.046875 -15.515625 11.796875 -15.515625 Z M 11.796875 -15.515625 "/></g></g></g><g fill="#000000" fill-opacity="1"><g transform="translate(1071.534318, 177.670909)"><g><path d="M 2.5 0 L 2.5 -19.046875 L 6.84375 -19.046875 L 7.21875 -15.828125 C 7.8125 -16.953125 8.660156 -17.847656 9.765625 -18.515625 C 10.878906 -19.179688 12.195312 -19.515625 13.71875 -19.515625 C 16.070312 -19.515625 17.898438 -18.769531 19.203125 -17.28125 C 20.503906 -15.800781 21.15625 -13.625 21.15625 -10.75 L 21.15625 0 L 16.25 0 L 16.25 -10.296875 C 16.25 -11.929688 15.914062 -13.179688 15.25 -14.046875 C 14.582031 -14.921875 13.546875 -15.359375 12.140625 -15.359375 C 10.753906 -15.359375 9.617188 -14.867188 8.734375 -13.890625 C 7.847656 -12.921875 7.40625 -11.566406 7.40625 -9.828125 L 7.40625 0 Z M 2.5 0 "/></g></g></g><g fill="#000000" fill-opacity="1"><g transform="translate(1097.179978, 177.670909)"><g><path d="M 11.75 0.453125 C 9.832031 0.453125 8.128906 0.046875 6.640625 -0.765625 C 5.160156 -1.585938 3.992188 -2.738281 3.140625 -4.21875 C 2.296875 -5.707031 1.875 -7.425781 1.875 -9.375 C 1.875 -11.34375 2.289062 -13.09375 3.125 -14.625 C 3.957031 -16.164062 5.109375 -17.363281 6.578125 -18.21875 C 8.054688 -19.082031 9.796875 -19.515625 11.796875 -19.515625 C 13.660156 -19.515625 15.304688 -19.101562 16.734375 -18.28125 C 18.171875 -17.457031 19.289062 -16.335938 20.09375 -14.921875 C 20.90625 -13.503906 21.3125 -11.921875 21.3125 -10.171875 C 21.3125 -9.890625 21.304688 -9.59375 21.296875 -9.28125 C 21.285156 -8.976562 21.265625 -8.660156 21.234375 -8.328125 L 6.765625 -8.328125 C 6.859375 -6.847656 7.375 -5.6875 8.3125 -4.84375 C 9.25 -4 10.382812 -3.578125 11.71875 -3.578125 C 12.71875 -3.578125 13.554688 -3.800781 14.234375 -4.25 C 14.910156 -4.695312 15.414062 -5.273438 15.75 -5.984375 L 20.734375 -5.984375 C 20.378906 -4.785156 19.785156 -3.691406 18.953125 -2.703125 C 18.117188 -1.722656 17.09375 -0.953125 15.875 -0.390625 C 14.664062 0.171875 13.289062 0.453125 11.75 0.453125 Z M 11.796875 -15.515625 C 10.585938 -15.515625 9.519531 -15.175781 8.59375 -14.5 C 7.675781 -13.820312 7.09375 -12.789062 6.84375 -11.40625 L 16.328125 -11.40625 C 16.242188 -12.65625 15.78125 -13.648438 14.9375 -14.390625 C 14.09375 -15.140625 13.046875 -15.515625 11.796875 -15.515625 Z M 11.796875 -15.515625 "/></g></g></g><g fill="#000000" fill-opacity="1"><g transform="translate(1122.441756, 177.670909)"><g><path d="M 10.375 0.453125 C 8.675781 0.453125 7.1875 0.179688 5.90625 -0.359375 C 4.632812 -0.910156 3.613281 -1.671875 2.84375 -2.640625 C 2.070312 -3.617188 1.609375 -4.75 1.453125 -6.03125 L 6.40625 -6.03125 C 6.5625 -5.289062 6.976562 -4.65625 7.65625 -4.125 C 8.34375 -3.601562 9.222656 -3.34375 10.296875 -3.34375 C 11.367188 -3.34375 12.15625 -3.554688 12.65625 -3.984375 C 13.15625 -4.421875 13.40625 -4.921875 13.40625 -5.484375 C 13.40625 -6.304688 13.046875 -6.863281 12.328125 -7.15625 C 11.609375 -7.457031 10.609375 -7.75 9.328125 -8.03125 C 8.515625 -8.207031 7.679688 -8.421875 6.828125 -8.671875 C 5.984375 -8.929688 5.207031 -9.257812 4.5 -9.65625 C 3.800781 -10.050781 3.234375 -10.5625 2.796875 -11.1875 C 2.367188 -11.820312 2.15625 -12.597656 2.15625 -13.515625 C 2.15625 -15.203125 2.828125 -16.625 4.171875 -17.78125 C 5.515625 -18.9375 7.398438 -19.515625 9.828125 -19.515625 C 12.085938 -19.515625 13.890625 -18.988281 15.234375 -17.9375 C 16.578125 -16.882812 17.375 -15.4375 17.625 -13.59375 L 12.984375 -13.59375 C 12.703125 -15 11.640625 -15.703125 9.796875 -15.703125 C 8.867188 -15.703125 8.15625 -15.519531 7.65625 -15.15625 C 7.15625 -14.800781 6.90625 -14.359375 6.90625 -13.828125 C 6.90625 -13.265625 7.273438 -12.816406 8.015625 -12.484375 C 8.765625 -12.148438 9.753906 -11.84375 10.984375 -11.5625 C 12.316406 -11.25 13.539062 -10.90625 14.65625 -10.53125 C 15.769531 -10.164062 16.65625 -9.617188 17.3125 -8.890625 C 17.976562 -8.160156 18.3125 -7.117188 18.3125 -5.765625 C 18.34375 -4.585938 18.035156 -3.523438 17.390625 -2.578125 C 16.753906 -1.628906 15.832031 -0.882812 14.625 -0.34375 C 13.425781 0.1875 12.007812 0.453125 10.375 0.453125 Z M 10.375 0.453125 "/></g></g></g><g fill="#000000" fill-opacity="1"><g transform="translate(1144.901014, 177.670909)"><g><path d="M 4.609375 0.265625 C 3.710938 0.265625 2.972656 -0.015625 2.390625 -0.578125 C 1.816406 -1.140625 1.53125 -1.816406 1.53125 -2.609375 C 1.53125 -3.429688 1.816406 -4.125 2.390625 -4.6875 C 2.972656 -5.25 3.710938 -5.53125 4.609375 -5.53125 C 5.503906 -5.53125 6.238281 -5.25 6.8125 -4.6875 C 7.394531 -4.125 7.6875 -3.429688 7.6875 -2.609375 C 7.6875 -1.816406 7.394531 -1.140625 6.8125 -0.578125 C 6.238281 -0.015625 5.503906 0.265625 4.609375 0.265625 Z M 4.609375 0.265625 "/></g></g></g></svg>