<svg xmlns="http://www.w3.org/2000/svg" xmlns:xlink="http://www.w3.org/1999/xlink" width="1920" zoomAndPan="magnify" viewBox="0 0 1440 809.999993" height="1080" preserveAspectRatio="xMidYMid meet" version="1.0"><defs><g/></defs><rect x="-144" width="1728" fill="#ffffff" y="-80.999999" height="971.999992" fill-opacity="1"/><rect x="-144" width="1728" fill="#ffffff" y="-80.999999" height="971.999992" fill-opacity="1"/><g fill="#ff83b7" fill-opacity="1"><g transform="translate(582.345318, 103.342762)"><g><path d="M 31.84375 -7.921875 L 15.125 -7.921875 L 12.453125 0 L 1.015625 0 L 17.234375 -44.8125 L 29.875 -44.8125 L 46.078125 0 L 34.53125 0 Z M 29.046875 -16.34375 L 23.484375 -32.75 L 18 -16.34375 Z M 29.046875 -16.34375 "/></g></g></g><g fill="#ff83b7" fill-opacity="1"><g transform="translate(629.387086, 103.342762)"><g><path d="M 39.125 -35.609375 L 39.125 0 L 28.21875 0 L 28.21875 -4.84375 C 27.101562 -3.269531 25.597656 -2.003906 23.703125 -1.046875 C 21.816406 -0.0859375 19.722656 0.390625 17.421875 0.390625 C 14.703125 0.390625 12.296875 -0.210938 10.203125 -1.421875 C 8.117188 -2.640625 6.503906 -4.398438 5.359375 -6.703125 C 4.210938 -9.003906 3.640625 -11.707031 3.640625 -14.8125 L 3.640625 -35.609375 L 14.484375 -35.609375 L 14.484375 -16.28125 C 14.484375 -13.894531 15.097656 -12.039062 16.328125 -10.71875 C 17.566406 -9.40625 19.226562 -8.75 21.3125 -8.75 C 23.445312 -8.75 25.128906 -9.40625 26.359375 -10.71875 C 27.597656 -12.039062 28.21875 -13.894531 28.21875 -16.28125 L 28.21875 -35.609375 Z M 39.125 -35.609375 "/></g></g></g><g fill="#ff83b7" fill-opacity="1"><g transform="translate(672.40765, 103.342762)"><g><path d="M 23.8125 -9.25 L 23.8125 0 L 18.25 0 C 14.289062 0 11.207031 -0.96875 9 -2.90625 C 6.789062 -4.84375 5.6875 -8 5.6875 -12.375 L 5.6875 -26.546875 L 1.34375 -26.546875 L 1.34375 -35.609375 L 5.6875 -35.609375 L 5.6875 -44.296875 L 16.59375 -44.296875 L 16.59375 -35.609375 L 23.75 -35.609375 L 23.75 -26.546875 L 16.59375 -26.546875 L 16.59375 -12.25 C 16.59375 -11.1875 16.847656 -10.421875 17.359375 -9.953125 C 17.867188 -9.484375 18.722656 -9.25 19.921875 -9.25 Z M 23.8125 -9.25 "/></g></g></g><g fill="#ff83b7" fill-opacity="1"><g transform="translate(698.322113, 103.342762)"><g><path d="M 9.453125 -39.3125 C 7.535156 -39.3125 5.96875 -39.875 4.75 -41 C 3.539062 -42.132812 2.9375 -43.53125 2.9375 -45.1875 C 2.9375 -46.894531 3.539062 -48.3125 4.75 -49.4375 C 5.96875 -50.5625 7.535156 -51.125 9.453125 -51.125 C 11.316406 -51.125 12.851562 -50.5625 14.0625 -49.4375 C 15.28125 -48.3125 15.890625 -46.894531 15.890625 -45.1875 C 15.890625 -43.53125 15.28125 -42.132812 14.0625 -41 C 12.851562 -39.875 11.316406 -39.3125 9.453125 -39.3125 Z M 14.875 -35.609375 L 14.875 0 L 3.953125 0 L 3.953125 -35.609375 Z M 14.875 -35.609375 "/></g></g></g><g fill="#ff83b7" fill-opacity="1"><g transform="translate(717.151585, 103.342762)"><g><path d="M 18.453125 0.515625 C 15.335938 0.515625 12.566406 -0.015625 10.140625 -1.078125 C 7.722656 -2.148438 5.8125 -3.609375 4.40625 -5.453125 C 3 -7.304688 2.210938 -9.382812 2.046875 -11.6875 L 12.828125 -11.6875 C 12.953125 -10.445312 13.523438 -9.441406 14.546875 -8.671875 C 15.566406 -7.910156 16.820312 -7.53125 18.3125 -7.53125 C 19.675781 -7.53125 20.726562 -7.796875 21.46875 -8.328125 C 22.21875 -8.859375 22.59375 -9.550781 22.59375 -10.40625 C 22.59375 -11.425781 22.0625 -12.179688 21 -12.671875 C 19.9375 -13.160156 18.210938 -13.703125 15.828125 -14.296875 C 13.273438 -14.890625 11.144531 -15.515625 9.4375 -16.171875 C 7.738281 -16.835938 6.269531 -17.882812 5.03125 -19.3125 C 3.800781 -20.738281 3.1875 -22.660156 3.1875 -25.078125 C 3.1875 -27.117188 3.75 -28.976562 4.875 -30.65625 C 6.007812 -32.34375 7.671875 -33.675781 9.859375 -34.65625 C 12.054688 -35.632812 14.664062 -36.125 17.6875 -36.125 C 22.144531 -36.125 25.660156 -35.015625 28.234375 -32.796875 C 30.816406 -30.585938 32.300781 -27.65625 32.6875 -24 L 22.59375 -24 C 22.425781 -25.226562 21.882812 -26.203125 20.96875 -26.921875 C 20.050781 -27.648438 18.847656 -28.015625 17.359375 -28.015625 C 16.085938 -28.015625 15.109375 -27.769531 14.421875 -27.28125 C 13.742188 -26.789062 13.40625 -26.125 13.40625 -25.28125 C 13.40625 -24.257812 13.945312 -23.492188 15.03125 -22.984375 C 16.113281 -22.472656 17.804688 -21.960938 20.109375 -21.453125 C 22.742188 -20.765625 24.890625 -20.09375 26.546875 -19.4375 C 28.210938 -18.78125 29.671875 -17.71875 30.921875 -16.25 C 32.179688 -14.78125 32.832031 -12.8125 32.875 -10.34375 C 32.875 -8.257812 32.285156 -6.394531 31.109375 -4.75 C 29.941406 -3.113281 28.257812 -1.828125 26.0625 -0.890625 C 23.875 0.046875 21.335938 0.515625 18.453125 0.515625 Z M 18.453125 0.515625 "/></g></g></g><g fill="#ff83b7" fill-opacity="1"><g transform="translate(752.76801, 103.342762)"><g><path d="M 23.8125 -9.25 L 23.8125 0 L 18.25 0 C 14.289062 0 11.207031 -0.96875 9 -2.90625 C 6.789062 -4.84375 5.6875 -8 5.6875 -12.375 L 5.6875 -26.546875 L 1.34375 -26.546875 L 1.34375 -35.609375 L 5.6875 -35.609375 L 5.6875 -44.296875 L 16.59375 -44.296875 L 16.59375 -35.609375 L 23.75 -35.609375 L 23.75 -26.546875 L 16.59375 -26.546875 L 16.59375 -12.25 C 16.59375 -11.1875 16.847656 -10.421875 17.359375 -9.953125 C 17.867188 -9.484375 18.722656 -9.25 19.921875 -9.25 Z M 23.8125 -9.25 "/></g></g></g><g fill="#ff83b7" fill-opacity="1"><g transform="translate(778.682466, 103.342762)"><g><path d="M 1.78125 -17.875 C 1.78125 -21.53125 2.472656 -24.738281 3.859375 -27.5 C 5.242188 -30.269531 7.125 -32.398438 9.5 -33.890625 C 11.882812 -35.378906 14.546875 -36.125 17.484375 -36.125 C 19.992188 -36.125 22.195312 -35.613281 24.09375 -34.59375 C 25.988281 -33.570312 27.445312 -32.234375 28.46875 -30.578125 L 28.46875 -35.609375 L 39.375 -35.609375 L 39.375 0 L 28.46875 0 L 28.46875 -5.046875 C 27.40625 -3.378906 25.925781 -2.035156 24.03125 -1.015625 C 22.132812 0.00390625 19.929688 0.515625 17.421875 0.515625 C 14.523438 0.515625 11.882812 -0.238281 9.5 -1.75 C 7.125 -3.257812 5.242188 -5.40625 3.859375 -8.1875 C 2.472656 -10.976562 1.78125 -14.207031 1.78125 -17.875 Z M 28.46875 -17.8125 C 28.46875 -20.53125 27.710938 -22.675781 26.203125 -24.25 C 24.691406 -25.820312 22.851562 -26.609375 20.6875 -26.609375 C 18.507812 -26.609375 16.664062 -25.832031 15.15625 -24.28125 C 13.644531 -22.726562 12.890625 -20.59375 12.890625 -17.875 C 12.890625 -15.144531 13.644531 -12.984375 15.15625 -11.390625 C 16.664062 -9.796875 18.507812 -9 20.6875 -9 C 22.851562 -9 24.691406 -9.785156 26.203125 -11.359375 C 27.710938 -12.929688 28.46875 -15.082031 28.46875 -17.8125 Z M 28.46875 -17.8125 "/></g></g></g><g fill="#ff83b7" fill-opacity="1"><g transform="translate(822.022168, 103.342762)"><g><path d="M 18.453125 0.515625 C 15.335938 0.515625 12.566406 -0.015625 10.140625 -1.078125 C 7.722656 -2.148438 5.8125 -3.609375 4.40625 -5.453125 C 3 -7.304688 2.210938 -9.382812 2.046875 -11.6875 L 12.828125 -11.6875 C 12.953125 -10.445312 13.523438 -9.441406 14.546875 -8.671875 C 15.566406 -7.910156 16.820312 -7.53125 18.3125 -7.53125 C 19.675781 -7.53125 20.726562 -7.796875 21.46875 -8.328125 C 22.21875 -8.859375 22.59375 -9.550781 22.59375 -10.40625 C 22.59375 -11.425781 22.0625 -12.179688 21 -12.671875 C 19.9375 -13.160156 18.210938 -13.703125 15.828125 -14.296875 C 13.273438 -14.890625 11.144531 -15.515625 9.4375 -16.171875 C 7.738281 -16.835938 6.269531 -17.882812 5.03125 -19.3125 C 3.800781 -20.738281 3.1875 -22.660156 3.1875 -25.078125 C 3.1875 -27.117188 3.75 -28.976562 4.875 -30.65625 C 6.007812 -32.34375 7.671875 -33.675781 9.859375 -34.65625 C 12.054688 -35.632812 14.664062 -36.125 17.6875 -36.125 C 22.144531 -36.125 25.660156 -35.015625 28.234375 -32.796875 C 30.816406 -30.585938 32.300781 -27.65625 32.6875 -24 L 22.59375 -24 C 22.425781 -25.226562 21.882812 -26.203125 20.96875 -26.921875 C 20.050781 -27.648438 18.847656 -28.015625 17.359375 -28.015625 C 16.085938 -28.015625 15.109375 -27.769531 14.421875 -27.28125 C 13.742188 -26.789062 13.40625 -26.125 13.40625 -25.28125 C 13.40625 -24.257812 13.945312 -23.492188 15.03125 -22.984375 C 16.113281 -22.472656 17.804688 -21.960938 20.109375 -21.453125 C 22.742188 -20.765625 24.890625 -20.09375 26.546875 -19.4375 C 28.210938 -18.78125 29.671875 -17.71875 30.921875 -16.25 C 32.179688 -14.78125 32.832031 -12.8125 32.875 -10.34375 C 32.875 -8.257812 32.285156 -6.394531 31.109375 -4.75 C 29.941406 -3.113281 28.257812 -1.828125 26.0625 -0.890625 C 23.875 0.046875 21.335938 0.515625 18.453125 0.515625 Z M 18.453125 0.515625 "/></g></g></g><path fill="#ff83b7" d="M 754.78125 160.273438 C 759.753906 160.273438 764.722656 160.398438 769.6875 160.640625 C 774.652344 160.882812 779.609375 161.25 784.554688 161.738281 C 789.503906 162.222656 794.433594 162.832031 799.351562 163.5625 C 804.269531 164.292969 809.164062 165.140625 814.042969 166.109375 C 818.917969 167.082031 823.765625 168.167969 828.589844 169.378906 C 833.410156 170.585938 838.199219 171.910156 842.957031 173.355469 C 847.714844 174.796875 852.433594 176.355469 857.113281 178.03125 C 861.792969 179.707031 866.429688 181.492188 871.023438 183.394531 C 875.617188 185.296875 880.160156 187.3125 884.652344 189.4375 C 889.144531 191.5625 893.585938 193.796875 897.96875 196.140625 C 902.355469 198.484375 906.675781 200.933594 910.941406 203.488281 C 915.207031 206.046875 919.402344 208.703125 923.539062 211.464844 C 927.671875 214.226562 931.734375 217.089844 935.726562 220.050781 C 939.71875 223.011719 943.636719 226.070312 947.480469 229.222656 C 951.324219 232.375 955.085938 235.621094 958.769531 238.960938 C 962.453125 242.300781 966.050781 245.726562 969.566406 249.242188 C 973.082031 252.757812 976.507812 256.355469 979.847656 260.039062 C 983.183594 263.722656 986.429688 267.484375 989.585938 271.328125 C 992.738281 275.171875 995.796875 279.089844 998.757812 283.082031 C 1001.71875 287.074219 1004.578125 291.136719 1007.339844 295.269531 C 1010.101562 299.402344 1012.761719 303.601562 1015.316406 307.867188 C 1017.875 312.128906 1020.324219 316.453125 1022.667969 320.835938 C 1025.007812 325.222656 1027.242188 329.660156 1029.371094 334.15625 C 1031.496094 338.648438 1033.507812 343.191406 1035.410156 347.785156 C 1037.3125 352.378906 1039.101562 357.015625 1040.777344 361.695312 C 1042.453125 366.375 1044.011719 371.09375 1045.453125 375.851562 C 1046.894531 380.609375 1048.222656 385.398438 1049.429688 390.21875 C 1050.636719 395.042969 1051.726562 399.890625 1052.695312 404.765625 C 1053.667969 409.640625 1054.515625 414.539062 1055.246094 419.457031 C 1055.972656 424.371094 1056.582031 429.304688 1057.070312 434.25 C 1057.558594 439.199219 1057.921875 444.15625 1058.167969 449.121094 C 1058.410156 454.085938 1058.53125 459.054688 1058.53125 464.023438 C 1058.53125 468.996094 1058.410156 473.964844 1058.167969 478.929688 C 1057.921875 483.894531 1057.558594 488.851562 1057.070312 493.796875 C 1056.582031 498.746094 1055.972656 503.675781 1055.246094 508.59375 C 1054.515625 513.511719 1053.667969 518.40625 1052.695312 523.285156 C 1051.726562 528.160156 1050.636719 533.007812 1049.429688 537.828125 C 1048.222656 542.652344 1046.894531 547.441406 1045.453125 552.199219 C 1044.011719 556.957031 1042.453125 561.675781 1040.777344 566.355469 C 1039.101562 571.035156 1037.3125 575.671875 1035.410156 580.265625 C 1033.507812 584.855469 1031.496094 589.402344 1029.371094 593.894531 C 1027.242188 598.386719 1025.007812 602.828125 1022.667969 607.210938 C 1020.324219 611.59375 1017.875 615.917969 1015.316406 620.183594 C 1012.761719 624.445312 1010.101562 628.644531 1007.339844 632.777344 C 1004.578125 636.914062 1001.71875 640.976562 998.757812 644.96875 C 995.796875 648.960938 992.738281 652.878906 989.585938 656.722656 C 986.429688 660.5625 983.183594 664.328125 979.847656 668.011719 C 976.507812 671.695312 973.082031 675.292969 969.566406 678.808594 C 966.050781 682.324219 962.453125 685.75 958.769531 689.089844 C 955.085938 692.425781 951.324219 695.671875 947.480469 698.828125 C 943.636719 701.980469 939.71875 705.039062 935.726562 708 C 931.734375 710.960938 927.671875 713.820312 923.539062 716.582031 C 919.402344 719.34375 915.207031 722.003906 910.941406 724.558594 C 906.675781 727.117188 902.355469 729.566406 897.96875 731.90625 C 893.585938 734.25 889.144531 736.484375 884.652344 738.609375 C 880.160156 740.738281 875.617188 742.75 871.023438 744.652344 C 866.429688 746.554688 861.792969 748.34375 857.113281 750.019531 C 852.433594 751.691406 847.714844 753.253906 842.957031 754.695312 C 838.199219 756.136719 833.410156 757.464844 828.589844 758.671875 C 823.765625 759.878906 818.917969 760.96875 814.042969 761.9375 C 809.164062 762.90625 804.269531 763.757812 799.351562 764.488281 C 794.433594 765.214844 789.503906 765.824219 784.554688 766.3125 C 779.609375 766.800781 774.652344 767.164062 769.6875 767.410156 C 764.722656 767.652344 759.753906 767.773438 754.78125 767.773438 C 749.8125 767.773438 744.84375 767.652344 739.878906 767.410156 C 734.914062 767.164062 729.957031 766.800781 725.011719 766.3125 C 720.0625 765.824219 715.128906 765.214844 710.214844 764.488281 C 705.296875 763.757812 700.398438 762.90625 695.523438 761.9375 C 690.648438 760.96875 685.800781 759.878906 680.976562 758.671875 C 676.15625 757.464844 671.367188 756.136719 666.609375 754.695312 C 661.851562 753.253906 657.132812 751.691406 652.453125 750.019531 C 647.773438 748.34375 643.136719 746.554688 638.542969 744.652344 C 633.949219 742.75 629.40625 740.738281 624.914062 738.609375 C 620.417969 736.484375 615.980469 734.25 611.597656 731.90625 C 607.210938 729.566406 602.886719 727.117188 598.625 724.558594 C 594.359375 722.003906 590.160156 719.34375 586.027344 716.582031 C 581.894531 713.820312 577.832031 710.960938 573.839844 708 C 569.847656 705.039062 565.929688 701.980469 562.085938 698.828125 C 558.242188 695.671875 554.480469 692.425781 550.796875 689.089844 C 547.113281 685.75 543.515625 682.324219 540 678.808594 C 536.484375 675.292969 533.058594 671.695312 529.71875 668.011719 C 526.378906 664.328125 523.132812 660.5625 519.980469 656.722656 C 516.828125 652.878906 513.769531 648.960938 510.808594 644.96875 C 507.847656 640.976562 504.984375 636.914062 502.222656 632.777344 C 499.460938 628.644531 496.804688 624.445312 494.246094 620.183594 C 491.691406 615.917969 489.242188 611.59375 486.898438 607.210938 C 484.554688 602.828125 482.320312 598.386719 480.195312 593.894531 C 478.070312 589.402344 476.058594 584.855469 474.15625 580.265625 C 472.253906 575.671875 470.464844 571.035156 468.789062 566.355469 C 467.113281 561.675781 465.554688 556.957031 464.113281 552.199219 C 462.667969 547.441406 461.34375 542.652344 460.136719 537.828125 C 458.929688 533.007812 457.839844 528.160156 456.871094 523.285156 C 455.898438 518.40625 455.050781 513.511719 454.320312 508.59375 C 453.589844 503.675781 452.984375 498.746094 452.496094 493.796875 C 452.007812 488.851562 451.644531 483.894531 451.398438 478.929688 C 451.15625 473.964844 451.03125 468.996094 451.03125 464.023438 L 754.78125 464.023438 Z M 754.78125 160.273438 " fill-opacity="1" fill-rule="nonzero"/><path fill="#c39c9d" d="M 451.03125 464.023438 C 451.03125 459.054688 451.15625 454.085938 451.398438 449.121094 C 451.640625 444.15625 452.007812 439.199219 452.496094 434.253906 C 452.984375 429.308594 453.589844 424.375 454.320312 419.457031 C 455.050781 414.542969 455.898438 409.644531 456.867188 404.769531 C 457.839844 399.894531 458.925781 395.046875 460.132812 390.222656 C 461.34375 385.402344 462.667969 380.613281 464.109375 375.855469 C 465.554688 371.097656 467.113281 366.378906 468.785156 361.699219 C 470.460938 357.019531 472.25 352.382812 474.152344 347.792969 C 476.054688 343.199219 478.066406 338.65625 480.191406 334.164062 C 482.316406 329.667969 484.550781 325.230469 486.894531 320.847656 C 489.238281 316.460938 491.6875 312.136719 494.242188 307.875 C 496.796875 303.609375 499.457031 299.414062 502.21875 295.28125 C 504.980469 291.144531 507.839844 287.082031 510.800781 283.089844 C 513.761719 279.097656 516.820312 275.179688 519.972656 271.339844 C 523.125 267.496094 526.371094 263.730469 529.710938 260.050781 C 533.046875 256.367188 536.472656 252.765625 539.988281 249.25 C 543.503906 245.738281 547.101562 242.308594 550.785156 238.972656 C 554.46875 235.632812 558.230469 232.386719 562.074219 229.234375 C 565.914062 226.078125 569.832031 223.023438 573.824219 220.0625 C 577.816406 217.101562 581.878906 214.238281 586.011719 211.476562 C 590.144531 208.714844 594.34375 206.054688 598.605469 203.5 C 602.871094 200.945312 607.195312 198.496094 611.578125 196.152344 C 615.960938 193.808594 620.398438 191.574219 624.894531 189.445312 C 629.386719 187.320312 633.929688 185.308594 638.523438 183.40625 C 643.113281 181.503906 647.75 179.714844 652.429688 178.039062 C 657.109375 176.363281 661.828125 174.804688 666.585938 173.359375 C 671.34375 171.917969 676.132812 170.59375 680.953125 169.382812 C 685.773438 168.175781 690.621094 167.085938 695.5 166.117188 C 700.375 165.144531 705.269531 164.296875 710.1875 163.566406 C 715.101562 162.835938 720.035156 162.226562 724.980469 161.738281 C 729.929688 161.253906 734.882812 160.886719 739.847656 160.640625 C 744.8125 160.398438 749.78125 160.273438 754.753906 160.273438 L 754.78125 464.023438 Z M 451.03125 464.023438 " fill-opacity="1" fill-rule="nonzero"/><g fill="#000000" fill-opacity="1"><g transform="translate(936.317959, 741.770672)"><g><path d="M 2.359375 0 L 2.359375 -17.140625 L 4.34375 -17.140625 L 4.34375 0 Z M 2.359375 0 "/></g></g><g transform="translate(943.009365, 741.770672)"><g><path d="M 10.859375 0 L 10.859375 -8.3125 C 10.859375 -9.351562 10.617188 -10.128906 10.140625 -10.640625 C 9.660156 -11.160156 8.914062 -11.421875 7.90625 -11.421875 C 6.5625 -11.421875 5.578125 -11.054688 4.953125 -10.328125 C 4.328125 -9.609375 4.015625 -8.410156 4.015625 -6.734375 L 4.015625 0 L 2.0625 0 L 2.0625 -12.84375 L 3.640625 -12.84375 L 3.96875 -11.09375 L 4.0625 -11.09375 C 4.457031 -11.71875 5.015625 -12.203125 5.734375 -12.546875 C 6.453125 -12.898438 7.253906 -13.078125 8.140625 -13.078125 C 9.679688 -13.078125 10.84375 -12.703125 11.625 -11.953125 C 12.40625 -11.210938 12.796875 -10.019531 12.796875 -8.375 L 12.796875 0 Z M 10.859375 0 "/></g></g><g transform="translate(957.739833, 741.770672)"><g><path d="M 6.21875 -1.375 C 6.5625 -1.375 6.890625 -1.398438 7.203125 -1.453125 C 7.523438 -1.503906 7.78125 -1.554688 7.96875 -1.609375 L 7.96875 -0.125 C 7.757812 -0.0195312 7.445312 0.0625 7.03125 0.125 C 6.625 0.195312 6.257812 0.234375 5.9375 0.234375 C 3.445312 0.234375 2.203125 -1.070312 2.203125 -3.6875 L 2.203125 -11.328125 L 0.359375 -11.328125 L 0.359375 -12.265625 L 2.203125 -13.078125 L 3.03125 -15.828125 L 4.15625 -15.828125 L 4.15625 -12.84375 L 7.875 -12.84375 L 7.875 -11.328125 L 4.15625 -11.328125 L 4.15625 -3.78125 C 4.15625 -3 4.335938 -2.398438 4.703125 -1.984375 C 5.066406 -1.578125 5.570312 -1.375 6.21875 -1.375 Z M 6.21875 -1.375 "/></g></g><g transform="translate(966.212489, 741.770672)"><g><path d="M 7.484375 0.234375 C 5.585938 0.234375 4.085938 -0.34375 2.984375 -1.5 C 1.890625 -2.65625 1.34375 -4.257812 1.34375 -6.3125 C 1.34375 -8.382812 1.851562 -10.03125 2.875 -11.25 C 3.894531 -12.46875 5.265625 -13.078125 6.984375 -13.078125 C 8.597656 -13.078125 9.875 -12.546875 10.8125 -11.484375 C 11.75 -10.429688 12.21875 -9.035156 12.21875 -7.296875 L 12.21875 -6.078125 L 3.359375 -6.078125 C 3.398438 -4.566406 3.78125 -3.421875 4.5 -2.640625 C 5.226562 -1.859375 6.25 -1.46875 7.5625 -1.46875 C 8.945312 -1.46875 10.3125 -1.753906 11.65625 -2.328125 L 11.65625 -0.59375 C 10.96875 -0.300781 10.316406 -0.09375 9.703125 0.03125 C 9.097656 0.164062 8.359375 0.234375 7.484375 0.234375 Z M 6.96875 -11.453125 C 5.9375 -11.453125 5.113281 -11.113281 4.5 -10.4375 C 3.882812 -9.769531 3.519531 -8.84375 3.40625 -7.65625 L 10.125 -7.65625 C 10.125 -8.882812 9.847656 -9.820312 9.296875 -10.46875 C 8.753906 -11.125 7.976562 -11.453125 6.96875 -11.453125 Z M 6.96875 -11.453125 "/></g></g><g transform="translate(979.677332, 741.770672)"><g><path d="M 7.921875 -13.078125 C 8.492188 -13.078125 9.003906 -13.03125 9.453125 -12.9375 L 9.1875 -11.140625 C 8.65625 -11.253906 8.1875 -11.3125 7.78125 -11.3125 C 6.738281 -11.3125 5.847656 -10.890625 5.109375 -10.046875 C 4.378906 -9.203125 4.015625 -8.148438 4.015625 -6.890625 L 4.015625 0 L 2.0625 0 L 2.0625 -12.84375 L 3.671875 -12.84375 L 3.890625 -10.46875 L 3.984375 -10.46875 C 4.460938 -11.300781 5.035156 -11.941406 5.703125 -12.390625 C 6.378906 -12.847656 7.117188 -13.078125 7.921875 -13.078125 Z M 7.921875 -13.078125 "/></g></g><g transform="translate(989.474206, 741.770672)"><g><path d="M 7.484375 0.234375 C 5.585938 0.234375 4.085938 -0.34375 2.984375 -1.5 C 1.890625 -2.65625 1.34375 -4.257812 1.34375 -6.3125 C 1.34375 -8.382812 1.851562 -10.03125 2.875 -11.25 C 3.894531 -12.46875 5.265625 -13.078125 6.984375 -13.078125 C 8.597656 -13.078125 9.875 -12.546875 10.8125 -11.484375 C 11.75 -10.429688 12.21875 -9.035156 12.21875 -7.296875 L 12.21875 -6.078125 L 3.359375 -6.078125 C 3.398438 -4.566406 3.78125 -3.421875 4.5 -2.640625 C 5.226562 -1.859375 6.25 -1.46875 7.5625 -1.46875 C 8.945312 -1.46875 10.3125 -1.753906 11.65625 -2.328125 L 11.65625 -0.59375 C 10.96875 -0.300781 10.316406 -0.09375 9.703125 0.03125 C 9.097656 0.164062 8.359375 0.234375 7.484375 0.234375 Z M 6.96875 -11.453125 C 5.9375 -11.453125 5.113281 -11.113281 4.5 -10.4375 C 3.882812 -9.769531 3.519531 -8.84375 3.40625 -7.65625 L 10.125 -7.65625 C 10.125 -8.882812 9.847656 -9.820312 9.296875 -10.46875 C 8.753906 -11.125 7.976562 -11.453125 6.96875 -11.453125 Z M 5.53125 -14.84375 C 5.90625 -15.320312 6.304688 -15.90625 6.734375 -16.59375 C 7.171875 -17.28125 7.515625 -17.878906 7.765625 -18.390625 L 10.140625 -18.390625 L 10.140625 -18.140625 C 9.796875 -17.628906 9.28125 -17.003906 8.59375 -16.265625 C 7.914062 -15.523438 7.328125 -14.953125 6.828125 -14.546875 L 5.53125 -14.546875 Z M 5.53125 -14.84375 "/></g></g><g transform="translate(1002.93905, 741.770672)"><g><path d="M 10.34375 -3.5 C 10.34375 -2.3125 9.894531 -1.390625 9 -0.734375 C 8.113281 -0.0859375 6.867188 0.234375 5.265625 0.234375 C 3.554688 0.234375 2.226562 -0.0351562 1.28125 -0.578125 L 1.28125 -2.375 C 1.894531 -2.0625 2.554688 -1.816406 3.265625 -1.640625 C 3.972656 -1.460938 4.65625 -1.375 5.3125 -1.375 C 6.320312 -1.375 7.097656 -1.535156 7.640625 -1.859375 C 8.191406 -2.179688 8.46875 -2.675781 8.46875 -3.34375 C 8.46875 -3.84375 8.25 -4.269531 7.8125 -4.625 C 7.382812 -4.976562 6.539062 -5.398438 5.28125 -5.890625 C 4.09375 -6.328125 3.242188 -6.710938 2.734375 -7.046875 C 2.234375 -7.378906 1.859375 -7.753906 1.609375 -8.171875 C 1.367188 -8.597656 1.25 -9.101562 1.25 -9.6875 C 1.25 -10.738281 1.671875 -11.566406 2.515625 -12.171875 C 3.367188 -12.773438 4.539062 -13.078125 6.03125 -13.078125 C 7.40625 -13.078125 8.753906 -12.796875 10.078125 -12.234375 L 9.390625 -10.65625 C 8.097656 -11.1875 6.929688 -11.453125 5.890625 -11.453125 C 4.960938 -11.453125 4.265625 -11.304688 3.796875 -11.015625 C 3.328125 -10.722656 3.09375 -10.328125 3.09375 -9.828125 C 3.09375 -9.484375 3.179688 -9.1875 3.359375 -8.9375 C 3.535156 -8.695312 3.816406 -8.46875 4.203125 -8.25 C 4.597656 -8.03125 5.347656 -7.710938 6.453125 -7.296875 C 7.984375 -6.742188 9.015625 -6.1875 9.546875 -5.625 C 10.078125 -5.0625 10.34375 -4.351562 10.34375 -3.5 Z M 10.34375 -3.5 "/></g></g><g transform="translate(1014.388268, 741.770672)"><g/></g><g transform="translate(1020.622643, 741.770672)"><g><path d="M 7.921875 -13.078125 C 8.492188 -13.078125 9.003906 -13.03125 9.453125 -12.9375 L 9.1875 -11.140625 C 8.65625 -11.253906 8.1875 -11.3125 7.78125 -11.3125 C 6.738281 -11.3125 5.847656 -10.890625 5.109375 -10.046875 C 4.378906 -9.203125 4.015625 -8.148438 4.015625 -6.890625 L 4.015625 0 L 2.0625 0 L 2.0625 -12.84375 L 3.671875 -12.84375 L 3.890625 -10.46875 L 3.984375 -10.46875 C 4.460938 -11.300781 5.035156 -11.941406 5.703125 -12.390625 C 6.378906 -12.847656 7.117188 -13.078125 7.921875 -13.078125 Z M 7.921875 -13.078125 "/></g></g><g transform="translate(1030.419517, 741.770672)"><g><path d="M 7.484375 0.234375 C 5.585938 0.234375 4.085938 -0.34375 2.984375 -1.5 C 1.890625 -2.65625 1.34375 -4.257812 1.34375 -6.3125 C 1.34375 -8.382812 1.851562 -10.03125 2.875 -11.25 C 3.894531 -12.46875 5.265625 -13.078125 6.984375 -13.078125 C 8.597656 -13.078125 9.875 -12.546875 10.8125 -11.484375 C 11.75 -10.429688 12.21875 -9.035156 12.21875 -7.296875 L 12.21875 -6.078125 L 3.359375 -6.078125 C 3.398438 -4.566406 3.78125 -3.421875 4.5 -2.640625 C 5.226562 -1.859375 6.25 -1.46875 7.5625 -1.46875 C 8.945312 -1.46875 10.3125 -1.753906 11.65625 -2.328125 L 11.65625 -0.59375 C 10.96875 -0.300781 10.316406 -0.09375 9.703125 0.03125 C 9.097656 0.164062 8.359375 0.234375 7.484375 0.234375 Z M 6.96875 -11.453125 C 5.9375 -11.453125 5.113281 -11.113281 4.5 -10.4375 C 3.882812 -9.769531 3.519531 -8.84375 3.40625 -7.65625 L 10.125 -7.65625 C 10.125 -8.882812 9.847656 -9.820312 9.296875 -10.46875 C 8.753906 -11.125 7.976562 -11.453125 6.96875 -11.453125 Z M 6.96875 -11.453125 "/></g></g><g transform="translate(1043.88436, 741.770672)"><g><path d="M 10.34375 -3.5 C 10.34375 -2.3125 9.894531 -1.390625 9 -0.734375 C 8.113281 -0.0859375 6.867188 0.234375 5.265625 0.234375 C 3.554688 0.234375 2.226562 -0.0351562 1.28125 -0.578125 L 1.28125 -2.375 C 1.894531 -2.0625 2.554688 -1.816406 3.265625 -1.640625 C 3.972656 -1.460938 4.65625 -1.375 5.3125 -1.375 C 6.320312 -1.375 7.097656 -1.535156 7.640625 -1.859375 C 8.191406 -2.179688 8.46875 -2.675781 8.46875 -3.34375 C 8.46875 -3.84375 8.25 -4.269531 7.8125 -4.625 C 7.382812 -4.976562 6.539062 -5.398438 5.28125 -5.890625 C 4.09375 -6.328125 3.242188 -6.710938 2.734375 -7.046875 C 2.234375 -7.378906 1.859375 -7.753906 1.609375 -8.171875 C 1.367188 -8.597656 1.25 -9.101562 1.25 -9.6875 C 1.25 -10.738281 1.671875 -11.566406 2.515625 -12.171875 C 3.367188 -12.773438 4.539062 -13.078125 6.03125 -13.078125 C 7.40625 -13.078125 8.753906 -12.796875 10.078125 -12.234375 L 9.390625 -10.65625 C 8.097656 -11.1875 6.929688 -11.453125 5.890625 -11.453125 C 4.960938 -11.453125 4.265625 -11.304688 3.796875 -11.015625 C 3.328125 -10.722656 3.09375 -10.328125 3.09375 -9.828125 C 3.09375 -9.484375 3.179688 -9.1875 3.359375 -8.9375 C 3.535156 -8.695312 3.816406 -8.46875 4.203125 -8.25 C 4.597656 -8.03125 5.347656 -7.710938 6.453125 -7.296875 C 7.984375 -6.742188 9.015625 -6.1875 9.546875 -5.625 C 10.078125 -5.0625 10.34375 -4.351562 10.34375 -3.5 Z M 10.34375 -3.5 "/></g></g><g transform="translate(1055.333578, 741.770672)"><g><path d="M 6.21875 -1.375 C 6.5625 -1.375 6.890625 -1.398438 7.203125 -1.453125 C 7.523438 -1.503906 7.78125 -1.554688 7.96875 -1.609375 L 7.96875 -0.125 C 7.757812 -0.0195312 7.445312 0.0625 7.03125 0.125 C 6.625 0.195312 6.257812 0.234375 5.9375 0.234375 C 3.445312 0.234375 2.203125 -1.070312 2.203125 -3.6875 L 2.203125 -11.328125 L 0.359375 -11.328125 L 0.359375 -12.265625 L 2.203125 -13.078125 L 3.03125 -15.828125 L 4.15625 -15.828125 L 4.15625 -12.84375 L 7.875 -12.84375 L 7.875 -11.328125 L 4.15625 -11.328125 L 4.15625 -3.78125 C 4.15625 -3 4.335938 -2.398438 4.703125 -1.984375 C 5.066406 -1.578125 5.570312 -1.375 6.21875 -1.375 Z M 6.21875 -1.375 "/></g></g><g transform="translate(1063.806234, 741.770672)"><g><path d="M 7.921875 -13.078125 C 8.492188 -13.078125 9.003906 -13.03125 9.453125 -12.9375 L 9.1875 -11.140625 C 8.65625 -11.253906 8.1875 -11.3125 7.78125 -11.3125 C 6.738281 -11.3125 5.847656 -10.890625 5.109375 -10.046875 C 4.378906 -9.203125 4.015625 -8.148438 4.015625 -6.890625 L 4.015625 0 L 2.0625 0 L 2.0625 -12.84375 L 3.671875 -12.84375 L 3.890625 -10.46875 L 3.984375 -10.46875 C 4.460938 -11.300781 5.035156 -11.941406 5.703125 -12.390625 C 6.378906 -12.847656 7.117188 -13.078125 7.921875 -13.078125 Z M 7.921875 -13.078125 "/></g></g><g transform="translate(1073.603109, 741.770672)"><g><path d="M 4.015625 0 L 2.0625 0 L 2.0625 -12.84375 L 4.015625 -12.84375 Z M 1.90625 -16.328125 C 1.90625 -16.773438 2.015625 -17.097656 2.234375 -17.296875 C 2.453125 -17.503906 2.722656 -17.609375 3.046875 -17.609375 C 3.359375 -17.609375 3.628906 -17.503906 3.859375 -17.296875 C 4.085938 -17.085938 4.203125 -16.765625 4.203125 -16.328125 C 4.203125 -15.890625 4.085938 -15.5625 3.859375 -15.34375 C 3.628906 -15.132812 3.359375 -15.03125 3.046875 -15.03125 C 2.722656 -15.03125 2.453125 -15.132812 2.234375 -15.34375 C 2.015625 -15.5625 1.90625 -15.890625 1.90625 -16.328125 Z M 1.90625 -16.328125 "/></g></g><g transform="translate(1079.673421, 741.770672)"><g><path d="M 10.859375 0 L 10.859375 -8.3125 C 10.859375 -9.351562 10.617188 -10.128906 10.140625 -10.640625 C 9.660156 -11.160156 8.914062 -11.421875 7.90625 -11.421875 C 6.5625 -11.421875 5.578125 -11.054688 4.953125 -10.328125 C 4.328125 -9.609375 4.015625 -8.410156 4.015625 -6.734375 L 4.015625 0 L 2.0625 0 L 2.0625 -12.84375 L 3.640625 -12.84375 L 3.96875 -11.09375 L 4.0625 -11.09375 C 4.457031 -11.71875 5.015625 -12.203125 5.734375 -12.546875 C 6.453125 -12.898438 7.253906 -13.078125 8.140625 -13.078125 C 9.679688 -13.078125 10.84375 -12.703125 11.625 -11.953125 C 12.40625 -11.210938 12.796875 -10.019531 12.796875 -8.375 L 12.796875 0 Z M 10.859375 0 "/></g></g><g transform="translate(1094.403889, 741.770672)"><g><path d="M 12.578125 -12.84375 L 12.578125 -11.609375 L 10.203125 -11.328125 C 10.421875 -11.054688 10.613281 -10.695312 10.78125 -10.25 C 10.957031 -9.8125 11.046875 -9.316406 11.046875 -8.765625 C 11.046875 -7.503906 10.613281 -6.5 9.75 -5.75 C 8.894531 -5 7.71875 -4.625 6.21875 -4.625 C 5.832031 -4.625 5.472656 -4.65625 5.140625 -4.71875 C 4.304688 -4.28125 3.890625 -3.734375 3.890625 -3.078125 C 3.890625 -2.722656 4.035156 -2.460938 4.328125 -2.296875 C 4.617188 -2.128906 5.113281 -2.046875 5.8125 -2.046875 L 8.09375 -2.046875 C 9.476562 -2.046875 10.539062 -1.75 11.28125 -1.15625 C 12.03125 -0.570312 12.40625 0.273438 12.40625 1.390625 C 12.40625 2.816406 11.832031 3.898438 10.6875 4.640625 C 9.550781 5.390625 7.890625 5.765625 5.703125 5.765625 C 4.023438 5.765625 2.726562 5.453125 1.8125 4.828125 C 0.90625 4.203125 0.453125 3.320312 0.453125 2.1875 C 0.453125 1.40625 0.703125 0.726562 1.203125 0.15625 C 1.703125 -0.414062 2.40625 -0.804688 3.3125 -1.015625 C 2.988281 -1.160156 2.710938 -1.390625 2.484375 -1.703125 C 2.265625 -2.015625 2.15625 -2.378906 2.15625 -2.796875 C 2.15625 -3.265625 2.28125 -3.671875 2.53125 -4.015625 C 2.78125 -4.367188 3.175781 -4.710938 3.71875 -5.046875 C 3.050781 -5.316406 2.507812 -5.78125 2.09375 -6.4375 C 1.675781 -7.09375 1.46875 -7.84375 1.46875 -8.6875 C 1.46875 -10.09375 1.890625 -11.175781 2.734375 -11.9375 C 3.578125 -12.695312 4.769531 -13.078125 6.3125 -13.078125 C 6.988281 -13.078125 7.597656 -13 8.140625 -12.84375 Z M 2.328125 2.15625 C 2.328125 2.851562 2.617188 3.378906 3.203125 3.734375 C 3.796875 4.097656 4.640625 4.28125 5.734375 4.28125 C 7.367188 4.28125 8.578125 4.035156 9.359375 3.546875 C 10.140625 3.054688 10.53125 2.394531 10.53125 1.5625 C 10.53125 0.863281 10.316406 0.378906 9.890625 0.109375 C 9.460938 -0.160156 8.65625 -0.296875 7.46875 -0.296875 L 5.140625 -0.296875 C 4.253906 -0.296875 3.5625 -0.0859375 3.0625 0.328125 C 2.570312 0.753906 2.328125 1.363281 2.328125 2.15625 Z M 3.390625 -8.734375 C 3.390625 -7.835938 3.640625 -7.15625 4.140625 -6.6875 C 4.648438 -6.226562 5.359375 -6 6.265625 -6 C 8.171875 -6 9.125 -6.921875 9.125 -8.765625 C 9.125 -10.691406 8.160156 -11.65625 6.234375 -11.65625 C 5.316406 -11.65625 4.613281 -11.410156 4.125 -10.921875 C 3.632812 -10.429688 3.390625 -9.703125 3.390625 -8.734375 Z M 3.390625 -8.734375 "/></g></g><g transform="translate(1107.552326, 741.770672)"><g><path d="M 4.015625 0 L 2.0625 0 L 2.0625 -12.84375 L 4.015625 -12.84375 Z M 1.90625 -16.328125 C 1.90625 -16.773438 2.015625 -17.097656 2.234375 -17.296875 C 2.453125 -17.503906 2.722656 -17.609375 3.046875 -17.609375 C 3.359375 -17.609375 3.628906 -17.503906 3.859375 -17.296875 C 4.085938 -17.085938 4.203125 -16.765625 4.203125 -16.328125 C 4.203125 -15.890625 4.085938 -15.5625 3.859375 -15.34375 C 3.628906 -15.132812 3.359375 -15.03125 3.046875 -15.03125 C 2.722656 -15.03125 2.453125 -15.132812 2.234375 -15.34375 C 2.015625 -15.5625 1.90625 -15.890625 1.90625 -16.328125 Z M 1.90625 -16.328125 "/></g></g><g transform="translate(1113.622638, 741.770672)"><g><path d="M 10.8125 -1.71875 L 10.703125 -1.71875 C 9.804688 -0.414062 8.460938 0.234375 6.671875 0.234375 C 4.992188 0.234375 3.6875 -0.335938 2.75 -1.484375 C 1.8125 -2.640625 1.34375 -4.273438 1.34375 -6.390625 C 1.34375 -8.503906 1.8125 -10.144531 2.75 -11.3125 C 3.6875 -12.488281 4.992188 -13.078125 6.671875 -13.078125 C 8.410156 -13.078125 9.742188 -12.445312 10.671875 -11.1875 L 10.828125 -11.1875 L 10.75 -12.109375 L 10.703125 -13.015625 L 10.703125 -18.234375 L 12.640625 -18.234375 L 12.640625 0 L 11.0625 0 Z M 6.921875 -1.390625 C 8.242188 -1.390625 9.203125 -1.75 9.796875 -2.46875 C 10.398438 -3.195312 10.703125 -4.367188 10.703125 -5.984375 L 10.703125 -6.390625 C 10.703125 -8.210938 10.398438 -9.507812 9.796875 -10.28125 C 9.191406 -11.0625 8.222656 -11.453125 6.890625 -11.453125 C 5.753906 -11.453125 4.878906 -11.007812 4.265625 -10.125 C 3.660156 -9.238281 3.359375 -7.984375 3.359375 -6.359375 C 3.359375 -4.722656 3.660156 -3.484375 4.265625 -2.640625 C 4.867188 -1.804688 5.753906 -1.390625 6.921875 -1.390625 Z M 6.921875 -1.390625 "/></g></g><g transform="translate(1128.329669, 741.770672)"><g><path d="M 13.15625 -6.4375 C 13.15625 -4.34375 12.625 -2.707031 11.5625 -1.53125 C 10.507812 -0.351562 9.054688 0.234375 7.203125 0.234375 C 6.046875 0.234375 5.019531 -0.0351562 4.125 -0.578125 C 3.238281 -1.117188 2.550781 -1.890625 2.0625 -2.890625 C 1.582031 -3.898438 1.34375 -5.082031 1.34375 -6.4375 C 1.34375 -8.53125 1.863281 -10.160156 2.90625 -11.328125 C 3.957031 -12.492188 5.414062 -13.078125 7.28125 -13.078125 C 9.070312 -13.078125 10.5 -12.476562 11.5625 -11.28125 C 12.625 -10.09375 13.15625 -8.476562 13.15625 -6.4375 Z M 3.359375 -6.4375 C 3.359375 -4.789062 3.6875 -3.535156 4.34375 -2.671875 C 5 -1.816406 5.96875 -1.390625 7.25 -1.390625 C 8.519531 -1.390625 9.484375 -1.816406 10.140625 -2.671875 C 10.804688 -3.535156 11.140625 -4.789062 11.140625 -6.4375 C 11.140625 -8.070312 10.804688 -9.3125 10.140625 -10.15625 C 9.484375 -11 8.507812 -11.421875 7.21875 -11.421875 C 5.945312 -11.421875 4.984375 -11.003906 4.328125 -10.171875 C 3.679688 -9.335938 3.359375 -8.09375 3.359375 -6.4375 Z M 3.359375 -6.4375 "/></g></g></g><g fill="#000000" fill-opacity="1"><g transform="translate(1016.720295, 776.868323)"><g><path d="M 3.34375 0 L 10.4375 -15.34375 L 1.109375 -15.34375 L 1.109375 -17.140625 L 12.5 -17.140625 L 12.5 -15.578125 L 5.5 0 Z M 3.34375 0 "/></g></g><g transform="translate(1030.442951, 776.868323)"><g><path d="M 6.53125 -10.46875 C 8.332031 -10.46875 9.75 -10.019531 10.78125 -9.125 C 11.820312 -8.226562 12.34375 -7.003906 12.34375 -5.453125 C 12.34375 -3.679688 11.773438 -2.289062 10.640625 -1.28125 C 9.515625 -0.269531 7.960938 0.234375 5.984375 0.234375 C 4.046875 0.234375 2.570312 -0.0703125 1.5625 -0.6875 L 1.5625 -2.5625 C 2.101562 -2.21875 2.78125 -1.941406 3.59375 -1.734375 C 4.40625 -1.535156 5.207031 -1.4375 6 -1.4375 C 7.375 -1.4375 8.441406 -1.757812 9.203125 -2.40625 C 9.960938 -3.0625 10.34375 -4.003906 10.34375 -5.234375 C 10.34375 -7.617188 8.878906 -8.8125 5.953125 -8.8125 C 5.210938 -8.8125 4.222656 -8.695312 2.984375 -8.46875 L 1.96875 -9.125 L 2.609375 -17.140625 L 11.140625 -17.140625 L 11.140625 -15.34375 L 4.28125 -15.34375 L 3.84375 -10.203125 C 4.738281 -10.378906 5.632812 -10.46875 6.53125 -10.46875 Z M 6.53125 -10.46875 "/></g></g><g transform="translate(1044.165606, 776.868323)"><g><path d="M 2.84375 -12.03125 C 2.84375 -10.695312 2.984375 -9.695312 3.265625 -9.03125 C 3.554688 -8.375 4.023438 -8.046875 4.671875 -8.046875 C 5.953125 -8.046875 6.59375 -9.375 6.59375 -12.03125 C 6.59375 -14.664062 5.953125 -15.984375 4.671875 -15.984375 C 4.023438 -15.984375 3.554688 -15.65625 3.265625 -15 C 2.984375 -14.34375 2.84375 -13.351562 2.84375 -12.03125 Z M 8.203125 -12.03125 C 8.203125 -10.25 7.898438 -8.898438 7.296875 -7.984375 C 6.703125 -7.078125 5.828125 -6.625 4.671875 -6.625 C 3.578125 -6.625 2.726562 -7.085938 2.125 -8.015625 C 1.519531 -8.941406 1.21875 -10.28125 1.21875 -12.03125 C 1.21875 -13.800781 1.507812 -15.132812 2.09375 -16.03125 C 2.675781 -16.925781 3.535156 -17.375 4.671875 -17.375 C 5.804688 -17.375 6.675781 -16.910156 7.28125 -15.984375 C 7.894531 -15.054688 8.203125 -13.738281 8.203125 -12.03125 Z M 13.15625 -5.15625 C 13.15625 -3.820312 13.296875 -2.820312 13.578125 -2.15625 C 13.867188 -1.5 14.34375 -1.171875 15 -1.171875 C 15.65625 -1.171875 16.140625 -1.492188 16.453125 -2.140625 C 16.765625 -2.796875 16.921875 -3.800781 16.921875 -5.15625 C 16.921875 -6.488281 16.765625 -7.476562 16.453125 -8.125 C 16.140625 -8.769531 15.65625 -9.09375 15 -9.09375 C 14.34375 -9.09375 13.867188 -8.769531 13.578125 -8.125 C 13.296875 -7.476562 13.15625 -6.488281 13.15625 -5.15625 Z M 18.53125 -5.15625 C 18.53125 -3.382812 18.226562 -2.039062 17.625 -1.125 C 17.03125 -0.21875 16.15625 0.234375 15 0.234375 C 13.894531 0.234375 13.039062 -0.226562 12.4375 -1.15625 C 11.84375 -2.09375 11.546875 -3.425781 11.546875 -5.15625 C 11.546875 -6.925781 11.835938 -8.257812 12.421875 -9.15625 C 13.003906 -10.0625 13.863281 -10.515625 15 -10.515625 C 16.113281 -10.515625 16.976562 -10.054688 17.59375 -9.140625 C 18.21875 -8.222656 18.53125 -6.894531 18.53125 -5.15625 Z M 15.5 -17.140625 L 6 0 L 4.28125 0 L 13.78125 -17.140625 Z M 15.5 -17.140625 "/></g></g></g><g fill="#000000" fill-opacity="1"><g transform="translate(295.513296, 151.274604)"><g><path d="M 15.734375 0 L 13.46875 0 L 4.109375 -14.375 L 4.015625 -14.375 C 4.140625 -12.6875 4.203125 -11.140625 4.203125 -9.734375 L 4.203125 0 L 2.359375 0 L 2.359375 -17.140625 L 4.609375 -17.140625 L 13.953125 -2.8125 L 14.046875 -2.8125 C 14.023438 -3.019531 13.988281 -3.695312 13.9375 -4.84375 C 13.882812 -5.988281 13.863281 -6.804688 13.875 -7.296875 L 13.875 -17.140625 L 15.734375 -17.140625 Z M 15.734375 0 "/></g></g><g transform="translate(313.607045, 151.274604)"><g><path d="M 13.15625 -6.4375 C 13.15625 -4.34375 12.625 -2.707031 11.5625 -1.53125 C 10.507812 -0.351562 9.054688 0.234375 7.203125 0.234375 C 6.046875 0.234375 5.019531 -0.0351562 4.125 -0.578125 C 3.238281 -1.117188 2.550781 -1.890625 2.0625 -2.890625 C 1.582031 -3.898438 1.34375 -5.082031 1.34375 -6.4375 C 1.34375 -8.53125 1.863281 -10.160156 2.90625 -11.328125 C 3.957031 -12.492188 5.414062 -13.078125 7.28125 -13.078125 C 9.070312 -13.078125 10.5 -12.476562 11.5625 -11.28125 C 12.625 -10.09375 13.15625 -8.476562 13.15625 -6.4375 Z M 3.359375 -6.4375 C 3.359375 -4.789062 3.6875 -3.535156 4.34375 -2.671875 C 5 -1.816406 5.96875 -1.390625 7.25 -1.390625 C 8.519531 -1.390625 9.484375 -1.816406 10.140625 -2.671875 C 10.804688 -3.535156 11.140625 -4.789062 11.140625 -6.4375 C 11.140625 -8.070312 10.804688 -9.3125 10.140625 -10.15625 C 9.484375 -11 8.507812 -11.421875 7.21875 -11.421875 C 5.945312 -11.421875 4.984375 -11.003906 4.328125 -10.171875 C 3.679688 -9.335938 3.359375 -8.09375 3.359375 -6.4375 Z M 3.359375 -6.4375 "/></g></g><g transform="translate(328.103139, 151.274604)"><g/></g><g transform="translate(334.337513, 151.274604)"><g><path d="M 6.21875 -1.375 C 6.5625 -1.375 6.890625 -1.398438 7.203125 -1.453125 C 7.523438 -1.503906 7.78125 -1.554688 7.96875 -1.609375 L 7.96875 -0.125 C 7.757812 -0.0195312 7.445312 0.0625 7.03125 0.125 C 6.625 0.195312 6.257812 0.234375 5.9375 0.234375 C 3.445312 0.234375 2.203125 -1.070312 2.203125 -3.6875 L 2.203125 -11.328125 L 0.359375 -11.328125 L 0.359375 -12.265625 L 2.203125 -13.078125 L 3.03125 -15.828125 L 4.15625 -15.828125 L 4.15625 -12.84375 L 7.875 -12.84375 L 7.875 -11.328125 L 4.15625 -11.328125 L 4.15625 -3.78125 C 4.15625 -3 4.335938 -2.398438 4.703125 -1.984375 C 5.066406 -1.578125 5.570312 -1.375 6.21875 -1.375 Z M 6.21875 -1.375 "/></g></g><g transform="translate(342.810169, 151.274604)"><g><path d="M 4.015625 0 L 2.0625 0 L 2.0625 -12.84375 L 4.015625 -12.84375 Z M 1.90625 -16.328125 C 1.90625 -16.773438 2.015625 -17.097656 2.234375 -17.296875 C 2.453125 -17.503906 2.722656 -17.609375 3.046875 -17.609375 C 3.359375 -17.609375 3.628906 -17.503906 3.859375 -17.296875 C 4.085938 -17.085938 4.203125 -16.765625 4.203125 -16.328125 C 4.203125 -15.890625 4.085938 -15.5625 3.859375 -15.34375 C 3.628906 -15.132812 3.359375 -15.03125 3.046875 -15.03125 C 2.722656 -15.03125 2.453125 -15.132812 2.234375 -15.34375 C 2.015625 -15.5625 1.90625 -15.890625 1.90625 -16.328125 Z M 1.90625 -16.328125 "/></g></g><g transform="translate(348.880481, 151.274604)"><g><path d="M 7.484375 0.234375 C 5.585938 0.234375 4.085938 -0.34375 2.984375 -1.5 C 1.890625 -2.65625 1.34375 -4.257812 1.34375 -6.3125 C 1.34375 -8.382812 1.851562 -10.03125 2.875 -11.25 C 3.894531 -12.46875 5.265625 -13.078125 6.984375 -13.078125 C 8.597656 -13.078125 9.875 -12.546875 10.8125 -11.484375 C 11.75 -10.429688 12.21875 -9.035156 12.21875 -7.296875 L 12.21875 -6.078125 L 3.359375 -6.078125 C 3.398438 -4.566406 3.78125 -3.421875 4.5 -2.640625 C 5.226562 -1.859375 6.25 -1.46875 7.5625 -1.46875 C 8.945312 -1.46875 10.3125 -1.753906 11.65625 -2.328125 L 11.65625 -0.59375 C 10.96875 -0.300781 10.316406 -0.09375 9.703125 0.03125 C 9.097656 0.164062 8.359375 0.234375 7.484375 0.234375 Z M 6.96875 -11.453125 C 5.9375 -11.453125 5.113281 -11.113281 4.5 -10.4375 C 3.882812 -9.769531 3.519531 -8.84375 3.40625 -7.65625 L 10.125 -7.65625 C 10.125 -8.882812 9.847656 -9.820312 9.296875 -10.46875 C 8.753906 -11.125 7.976562 -11.453125 6.96875 -11.453125 Z M 6.96875 -11.453125 "/></g></g><g transform="translate(362.345325, 151.274604)"><g><path d="M 10.859375 0 L 10.859375 -8.3125 C 10.859375 -9.351562 10.617188 -10.128906 10.140625 -10.640625 C 9.660156 -11.160156 8.914062 -11.421875 7.90625 -11.421875 C 6.5625 -11.421875 5.578125 -11.054688 4.953125 -10.328125 C 4.328125 -9.609375 4.015625 -8.410156 4.015625 -6.734375 L 4.015625 0 L 2.0625 0 L 2.0625 -12.84375 L 3.640625 -12.84375 L 3.96875 -11.09375 L 4.0625 -11.09375 C 4.457031 -11.71875 5.015625 -12.203125 5.734375 -12.546875 C 6.453125 -12.898438 7.253906 -13.078125 8.140625 -13.078125 C 9.679688 -13.078125 10.84375 -12.703125 11.625 -11.953125 C 12.40625 -11.210938 12.796875 -10.019531 12.796875 -8.375 L 12.796875 0 Z M 10.859375 0 "/></g></g><g transform="translate(377.075792, 151.274604)"><g><path d="M 7.484375 0.234375 C 5.585938 0.234375 4.085938 -0.34375 2.984375 -1.5 C 1.890625 -2.65625 1.34375 -4.257812 1.34375 -6.3125 C 1.34375 -8.382812 1.851562 -10.03125 2.875 -11.25 C 3.894531 -12.46875 5.265625 -13.078125 6.984375 -13.078125 C 8.597656 -13.078125 9.875 -12.546875 10.8125 -11.484375 C 11.75 -10.429688 12.21875 -9.035156 12.21875 -7.296875 L 12.21875 -6.078125 L 3.359375 -6.078125 C 3.398438 -4.566406 3.78125 -3.421875 4.5 -2.640625 C 5.226562 -1.859375 6.25 -1.46875 7.5625 -1.46875 C 8.945312 -1.46875 10.3125 -1.753906 11.65625 -2.328125 L 11.65625 -0.59375 C 10.96875 -0.300781 10.316406 -0.09375 9.703125 0.03125 C 9.097656 0.164062 8.359375 0.234375 7.484375 0.234375 Z M 6.96875 -11.453125 C 5.9375 -11.453125 5.113281 -11.113281 4.5 -10.4375 C 3.882812 -9.769531 3.519531 -8.84375 3.40625 -7.65625 L 10.125 -7.65625 C 10.125 -8.882812 9.847656 -9.820312 9.296875 -10.46875 C 8.753906 -11.125 7.976562 -11.453125 6.96875 -11.453125 Z M 6.96875 -11.453125 "/></g></g><g transform="translate(390.540636, 151.274604)"><g/></g><g transform="translate(396.77501, 151.274604)"><g><path d="M 4.015625 0 L 2.0625 0 L 2.0625 -12.84375 L 4.015625 -12.84375 Z M 1.90625 -16.328125 C 1.90625 -16.773438 2.015625 -17.097656 2.234375 -17.296875 C 2.453125 -17.503906 2.722656 -17.609375 3.046875 -17.609375 C 3.359375 -17.609375 3.628906 -17.503906 3.859375 -17.296875 C 4.085938 -17.085938 4.203125 -16.765625 4.203125 -16.328125 C 4.203125 -15.890625 4.085938 -15.5625 3.859375 -15.34375 C 3.628906 -15.132812 3.359375 -15.03125 3.046875 -15.03125 C 2.722656 -15.03125 2.453125 -15.132812 2.234375 -15.34375 C 2.015625 -15.5625 1.90625 -15.890625 1.90625 -16.328125 Z M 1.90625 -16.328125 "/></g></g><g transform="translate(402.845323, 151.274604)"><g><path d="M 10.859375 0 L 10.859375 -8.3125 C 10.859375 -9.351562 10.617188 -10.128906 10.140625 -10.640625 C 9.660156 -11.160156 8.914062 -11.421875 7.90625 -11.421875 C 6.5625 -11.421875 5.578125 -11.054688 4.953125 -10.328125 C 4.328125 -9.609375 4.015625 -8.410156 4.015625 -6.734375 L 4.015625 0 L 2.0625 0 L 2.0625 -12.84375 L 3.640625 -12.84375 L 3.96875 -11.09375 L 4.0625 -11.09375 C 4.457031 -11.71875 5.015625 -12.203125 5.734375 -12.546875 C 6.453125 -12.898438 7.253906 -13.078125 8.140625 -13.078125 C 9.679688 -13.078125 10.84375 -12.703125 11.625 -11.953125 C 12.40625 -11.210938 12.796875 -10.019531 12.796875 -8.375 L 12.796875 0 Z M 10.859375 0 "/></g></g><g transform="translate(417.575791, 151.274604)"><g><path d="M 6.21875 -1.375 C 6.5625 -1.375 6.890625 -1.398438 7.203125 -1.453125 C 7.523438 -1.503906 7.78125 -1.554688 7.96875 -1.609375 L 7.96875 -0.125 C 7.757812 -0.0195312 7.445312 0.0625 7.03125 0.125 C 6.625 0.195312 6.257812 0.234375 5.9375 0.234375 C 3.445312 0.234375 2.203125 -1.070312 2.203125 -3.6875 L 2.203125 -11.328125 L 0.359375 -11.328125 L 0.359375 -12.265625 L 2.203125 -13.078125 L 3.03125 -15.828125 L 4.15625 -15.828125 L 4.15625 -12.84375 L 7.875 -12.84375 L 7.875 -11.328125 L 4.15625 -11.328125 L 4.15625 -3.78125 C 4.15625 -3 4.335938 -2.398438 4.703125 -1.984375 C 5.066406 -1.578125 5.570312 -1.375 6.21875 -1.375 Z M 6.21875 -1.375 "/></g></g><g transform="translate(426.048446, 151.274604)"><g><path d="M 7.484375 0.234375 C 5.585938 0.234375 4.085938 -0.34375 2.984375 -1.5 C 1.890625 -2.65625 1.34375 -4.257812 1.34375 -6.3125 C 1.34375 -8.382812 1.851562 -10.03125 2.875 -11.25 C 3.894531 -12.46875 5.265625 -13.078125 6.984375 -13.078125 C 8.597656 -13.078125 9.875 -12.546875 10.8125 -11.484375 C 11.75 -10.429688 12.21875 -9.035156 12.21875 -7.296875 L 12.21875 -6.078125 L 3.359375 -6.078125 C 3.398438 -4.566406 3.78125 -3.421875 4.5 -2.640625 C 5.226562 -1.859375 6.25 -1.46875 7.5625 -1.46875 C 8.945312 -1.46875 10.3125 -1.753906 11.65625 -2.328125 L 11.65625 -0.59375 C 10.96875 -0.300781 10.316406 -0.09375 9.703125 0.03125 C 9.097656 0.164062 8.359375 0.234375 7.484375 0.234375 Z M 6.96875 -11.453125 C 5.9375 -11.453125 5.113281 -11.113281 4.5 -10.4375 C 3.882812 -9.769531 3.519531 -8.84375 3.40625 -7.65625 L 10.125 -7.65625 C 10.125 -8.882812 9.847656 -9.820312 9.296875 -10.46875 C 8.753906 -11.125 7.976562 -11.453125 6.96875 -11.453125 Z M 6.96875 -11.453125 "/></g></g><g transform="translate(439.51329, 151.274604)"><g><path d="M 7.921875 -13.078125 C 8.492188 -13.078125 9.003906 -13.03125 9.453125 -12.9375 L 9.1875 -11.140625 C 8.65625 -11.253906 8.1875 -11.3125 7.78125 -11.3125 C 6.738281 -11.3125 5.847656 -10.890625 5.109375 -10.046875 C 4.378906 -9.203125 4.015625 -8.148438 4.015625 -6.890625 L 4.015625 0 L 2.0625 0 L 2.0625 -12.84375 L 3.671875 -12.84375 L 3.890625 -10.46875 L 3.984375 -10.46875 C 4.460938 -11.300781 5.035156 -11.941406 5.703125 -12.390625 C 6.378906 -12.847656 7.117188 -13.078125 7.921875 -13.078125 Z M 7.921875 -13.078125 "/></g></g><g transform="translate(449.310164, 151.274604)"><g><path d="M 7.484375 0.234375 C 5.585938 0.234375 4.085938 -0.34375 2.984375 -1.5 C 1.890625 -2.65625 1.34375 -4.257812 1.34375 -6.3125 C 1.34375 -8.382812 1.851562 -10.03125 2.875 -11.25 C 3.894531 -12.46875 5.265625 -13.078125 6.984375 -13.078125 C 8.597656 -13.078125 9.875 -12.546875 10.8125 -11.484375 C 11.75 -10.429688 12.21875 -9.035156 12.21875 -7.296875 L 12.21875 -6.078125 L 3.359375 -6.078125 C 3.398438 -4.566406 3.78125 -3.421875 4.5 -2.640625 C 5.226562 -1.859375 6.25 -1.46875 7.5625 -1.46875 C 8.945312 -1.46875 10.3125 -1.753906 11.65625 -2.328125 L 11.65625 -0.59375 C 10.96875 -0.300781 10.316406 -0.09375 9.703125 0.03125 C 9.097656 0.164062 8.359375 0.234375 7.484375 0.234375 Z M 6.96875 -11.453125 C 5.9375 -11.453125 5.113281 -11.113281 4.5 -10.4375 C 3.882812 -9.769531 3.519531 -8.84375 3.40625 -7.65625 L 10.125 -7.65625 C 10.125 -8.882812 9.847656 -9.820312 9.296875 -10.46875 C 8.753906 -11.125 7.976562 -11.453125 6.96875 -11.453125 Z M 5.53125 -14.84375 C 5.90625 -15.320312 6.304688 -15.90625 6.734375 -16.59375 C 7.171875 -17.28125 7.515625 -17.878906 7.765625 -18.390625 L 10.140625 -18.390625 L 10.140625 -18.140625 C 9.796875 -17.628906 9.28125 -17.003906 8.59375 -16.265625 C 7.914062 -15.523438 7.328125 -14.953125 6.828125 -14.546875 L 5.53125 -14.546875 Z M 5.53125 -14.84375 "/></g></g><g transform="translate(462.775007, 151.274604)"><g><path d="M 10.34375 -3.5 C 10.34375 -2.3125 9.894531 -1.390625 9 -0.734375 C 8.113281 -0.0859375 6.867188 0.234375 5.265625 0.234375 C 3.554688 0.234375 2.226562 -0.0351562 1.28125 -0.578125 L 1.28125 -2.375 C 1.894531 -2.0625 2.554688 -1.816406 3.265625 -1.640625 C 3.972656 -1.460938 4.65625 -1.375 5.3125 -1.375 C 6.320312 -1.375 7.097656 -1.535156 7.640625 -1.859375 C 8.191406 -2.179688 8.46875 -2.675781 8.46875 -3.34375 C 8.46875 -3.84375 8.25 -4.269531 7.8125 -4.625 C 7.382812 -4.976562 6.539062 -5.398438 5.28125 -5.890625 C 4.09375 -6.328125 3.242188 -6.710938 2.734375 -7.046875 C 2.234375 -7.378906 1.859375 -7.753906 1.609375 -8.171875 C 1.367188 -8.597656 1.25 -9.101562 1.25 -9.6875 C 1.25 -10.738281 1.671875 -11.566406 2.515625 -12.171875 C 3.367188 -12.773438 4.539062 -13.078125 6.03125 -13.078125 C 7.40625 -13.078125 8.753906 -12.796875 10.078125 -12.234375 L 9.390625 -10.65625 C 8.097656 -11.1875 6.929688 -11.453125 5.890625 -11.453125 C 4.960938 -11.453125 4.265625 -11.304688 3.796875 -11.015625 C 3.328125 -10.722656 3.09375 -10.328125 3.09375 -9.828125 C 3.09375 -9.484375 3.179688 -9.1875 3.359375 -8.9375 C 3.535156 -8.695312 3.816406 -8.46875 4.203125 -8.25 C 4.597656 -8.03125 5.347656 -7.710938 6.453125 -7.296875 C 7.984375 -6.742188 9.015625 -6.1875 9.546875 -5.625 C 10.078125 -5.0625 10.34375 -4.351562 10.34375 -3.5 Z M 10.34375 -3.5 "/></g></g><g transform="translate(474.224226, 151.274604)"><g/></g><g transform="translate(480.4586, 151.274604)"><g><path d="M 7.921875 -13.078125 C 8.492188 -13.078125 9.003906 -13.03125 9.453125 -12.9375 L 9.1875 -11.140625 C 8.65625 -11.253906 8.1875 -11.3125 7.78125 -11.3125 C 6.738281 -11.3125 5.847656 -10.890625 5.109375 -10.046875 C 4.378906 -9.203125 4.015625 -8.148438 4.015625 -6.890625 L 4.015625 0 L 2.0625 0 L 2.0625 -12.84375 L 3.671875 -12.84375 L 3.890625 -10.46875 L 3.984375 -10.46875 C 4.460938 -11.300781 5.035156 -11.941406 5.703125 -12.390625 C 6.378906 -12.847656 7.117188 -13.078125 7.921875 -13.078125 Z M 7.921875 -13.078125 "/></g></g><g transform="translate(490.255475, 151.274604)"><g><path d="M 7.484375 0.234375 C 5.585938 0.234375 4.085938 -0.34375 2.984375 -1.5 C 1.890625 -2.65625 1.34375 -4.257812 1.34375 -6.3125 C 1.34375 -8.382812 1.851562 -10.03125 2.875 -11.25 C 3.894531 -12.46875 5.265625 -13.078125 6.984375 -13.078125 C 8.597656 -13.078125 9.875 -12.546875 10.8125 -11.484375 C 11.75 -10.429688 12.21875 -9.035156 12.21875 -7.296875 L 12.21875 -6.078125 L 3.359375 -6.078125 C 3.398438 -4.566406 3.78125 -3.421875 4.5 -2.640625 C 5.226562 -1.859375 6.25 -1.46875 7.5625 -1.46875 C 8.945312 -1.46875 10.3125 -1.753906 11.65625 -2.328125 L 11.65625 -0.59375 C 10.96875 -0.300781 10.316406 -0.09375 9.703125 0.03125 C 9.097656 0.164062 8.359375 0.234375 7.484375 0.234375 Z M 6.96875 -11.453125 C 5.9375 -11.453125 5.113281 -11.113281 4.5 -10.4375 C 3.882812 -9.769531 3.519531 -8.84375 3.40625 -7.65625 L 10.125 -7.65625 C 10.125 -8.882812 9.847656 -9.820312 9.296875 -10.46875 C 8.753906 -11.125 7.976562 -11.453125 6.96875 -11.453125 Z M 6.96875 -11.453125 "/></g></g><g transform="translate(503.720318, 151.274604)"><g><path d="M 10.34375 -3.5 C 10.34375 -2.3125 9.894531 -1.390625 9 -0.734375 C 8.113281 -0.0859375 6.867188 0.234375 5.265625 0.234375 C 3.554688 0.234375 2.226562 -0.0351562 1.28125 -0.578125 L 1.28125 -2.375 C 1.894531 -2.0625 2.554688 -1.816406 3.265625 -1.640625 C 3.972656 -1.460938 4.65625 -1.375 5.3125 -1.375 C 6.320312 -1.375 7.097656 -1.535156 7.640625 -1.859375 C 8.191406 -2.179688 8.46875 -2.675781 8.46875 -3.34375 C 8.46875 -3.84375 8.25 -4.269531 7.8125 -4.625 C 7.382812 -4.976562 6.539062 -5.398438 5.28125 -5.890625 C 4.09375 -6.328125 3.242188 -6.710938 2.734375 -7.046875 C 2.234375 -7.378906 1.859375 -7.753906 1.609375 -8.171875 C 1.367188 -8.597656 1.25 -9.101562 1.25 -9.6875 C 1.25 -10.738281 1.671875 -11.566406 2.515625 -12.171875 C 3.367188 -12.773438 4.539062 -13.078125 6.03125 -13.078125 C 7.40625 -13.078125 8.753906 -12.796875 10.078125 -12.234375 L 9.390625 -10.65625 C 8.097656 -11.1875 6.929688 -11.453125 5.890625 -11.453125 C 4.960938 -11.453125 4.265625 -11.304688 3.796875 -11.015625 C 3.328125 -10.722656 3.09375 -10.328125 3.09375 -9.828125 C 3.09375 -9.484375 3.179688 -9.1875 3.359375 -8.9375 C 3.535156 -8.695312 3.816406 -8.46875 4.203125 -8.25 C 4.597656 -8.03125 5.347656 -7.710938 6.453125 -7.296875 C 7.984375 -6.742188 9.015625 -6.1875 9.546875 -5.625 C 10.078125 -5.0625 10.34375 -4.351562 10.34375 -3.5 Z M 10.34375 -3.5 "/></g></g><g transform="translate(515.169536, 151.274604)"><g><path d="M 6.21875 -1.375 C 6.5625 -1.375 6.890625 -1.398438 7.203125 -1.453125 C 7.523438 -1.503906 7.78125 -1.554688 7.96875 -1.609375 L 7.96875 -0.125 C 7.757812 -0.0195312 7.445312 0.0625 7.03125 0.125 C 6.625 0.195312 6.257812 0.234375 5.9375 0.234375 C 3.445312 0.234375 2.203125 -1.070312 2.203125 -3.6875 L 2.203125 -11.328125 L 0.359375 -11.328125 L 0.359375 -12.265625 L 2.203125 -13.078125 L 3.03125 -15.828125 L 4.15625 -15.828125 L 4.15625 -12.84375 L 7.875 -12.84375 L 7.875 -11.328125 L 4.15625 -11.328125 L 4.15625 -3.78125 C 4.15625 -3 4.335938 -2.398438 4.703125 -1.984375 C 5.066406 -1.578125 5.570312 -1.375 6.21875 -1.375 Z M 6.21875 -1.375 "/></g></g><g transform="translate(523.642192, 151.274604)"><g><path d="M 7.921875 -13.078125 C 8.492188 -13.078125 9.003906 -13.03125 9.453125 -12.9375 L 9.1875 -11.140625 C 8.65625 -11.253906 8.1875 -11.3125 7.78125 -11.3125 C 6.738281 -11.3125 5.847656 -10.890625 5.109375 -10.046875 C 4.378906 -9.203125 4.015625 -8.148438 4.015625 -6.890625 L 4.015625 0 L 2.0625 0 L 2.0625 -12.84375 L 3.671875 -12.84375 L 3.890625 -10.46875 L 3.984375 -10.46875 C 4.460938 -11.300781 5.035156 -11.941406 5.703125 -12.390625 C 6.378906 -12.847656 7.117188 -13.078125 7.921875 -13.078125 Z M 7.921875 -13.078125 "/></g></g><g transform="translate(533.439067, 151.274604)"><g><path d="M 4.015625 0 L 2.0625 0 L 2.0625 -12.84375 L 4.015625 -12.84375 Z M 1.90625 -16.328125 C 1.90625 -16.773438 2.015625 -17.097656 2.234375 -17.296875 C 2.453125 -17.503906 2.722656 -17.609375 3.046875 -17.609375 C 3.359375 -17.609375 3.628906 -17.503906 3.859375 -17.296875 C 4.085938 -17.085938 4.203125 -16.765625 4.203125 -16.328125 C 4.203125 -15.890625 4.085938 -15.5625 3.859375 -15.34375 C 3.628906 -15.132812 3.359375 -15.03125 3.046875 -15.03125 C 2.722656 -15.03125 2.453125 -15.132812 2.234375 -15.34375 C 2.015625 -15.5625 1.90625 -15.890625 1.90625 -16.328125 Z M 1.90625 -16.328125 "/></g></g><g transform="translate(539.509379, 151.274604)"><g><path d="M 10.859375 0 L 10.859375 -8.3125 C 10.859375 -9.351562 10.617188 -10.128906 10.140625 -10.640625 C 9.660156 -11.160156 8.914062 -11.421875 7.90625 -11.421875 C 6.5625 -11.421875 5.578125 -11.054688 4.953125 -10.328125 C 4.328125 -9.609375 4.015625 -8.410156 4.015625 -6.734375 L 4.015625 0 L 2.0625 0 L 2.0625 -12.84375 L 3.640625 -12.84375 L 3.96875 -11.09375 L 4.0625 -11.09375 C 4.457031 -11.71875 5.015625 -12.203125 5.734375 -12.546875 C 6.453125 -12.898438 7.253906 -13.078125 8.140625 -13.078125 C 9.679688 -13.078125 10.84375 -12.703125 11.625 -11.953125 C 12.40625 -11.210938 12.796875 -10.019531 12.796875 -8.375 L 12.796875 0 Z M 10.859375 0 "/></g></g><g transform="translate(554.239847, 151.274604)"><g><path d="M 12.578125 -12.84375 L 12.578125 -11.609375 L 10.203125 -11.328125 C 10.421875 -11.054688 10.613281 -10.695312 10.78125 -10.25 C 10.957031 -9.8125 11.046875 -9.316406 11.046875 -8.765625 C 11.046875 -7.503906 10.613281 -6.5 9.75 -5.75 C 8.894531 -5 7.71875 -4.625 6.21875 -4.625 C 5.832031 -4.625 5.472656 -4.65625 5.140625 -4.71875 C 4.304688 -4.28125 3.890625 -3.734375 3.890625 -3.078125 C 3.890625 -2.722656 4.035156 -2.460938 4.328125 -2.296875 C 4.617188 -2.128906 5.113281 -2.046875 5.8125 -2.046875 L 8.09375 -2.046875 C 9.476562 -2.046875 10.539062 -1.75 11.28125 -1.15625 C 12.03125 -0.570312 12.40625 0.273438 12.40625 1.390625 C 12.40625 2.816406 11.832031 3.898438 10.6875 4.640625 C 9.550781 5.390625 7.890625 5.765625 5.703125 5.765625 C 4.023438 5.765625 2.726562 5.453125 1.8125 4.828125 C 0.90625 4.203125 0.453125 3.320312 0.453125 2.1875 C 0.453125 1.40625 0.703125 0.726562 1.203125 0.15625 C 1.703125 -0.414062 2.40625 -0.804688 3.3125 -1.015625 C 2.988281 -1.160156 2.710938 -1.390625 2.484375 -1.703125 C 2.265625 -2.015625 2.15625 -2.378906 2.15625 -2.796875 C 2.15625 -3.265625 2.28125 -3.671875 2.53125 -4.015625 C 2.78125 -4.367188 3.175781 -4.710938 3.71875 -5.046875 C 3.050781 -5.316406 2.507812 -5.78125 2.09375 -6.4375 C 1.675781 -7.09375 1.46875 -7.84375 1.46875 -8.6875 C 1.46875 -10.09375 1.890625 -11.175781 2.734375 -11.9375 C 3.578125 -12.695312 4.769531 -13.078125 6.3125 -13.078125 C 6.988281 -13.078125 7.597656 -13 8.140625 -12.84375 Z M 2.328125 2.15625 C 2.328125 2.851562 2.617188 3.378906 3.203125 3.734375 C 3.796875 4.097656 4.640625 4.28125 5.734375 4.28125 C 7.367188 4.28125 8.578125 4.035156 9.359375 3.546875 C 10.140625 3.054688 10.53125 2.394531 10.53125 1.5625 C 10.53125 0.863281 10.316406 0.378906 9.890625 0.109375 C 9.460938 -0.160156 8.65625 -0.296875 7.46875 -0.296875 L 5.140625 -0.296875 C 4.253906 -0.296875 3.5625 -0.0859375 3.0625 0.328125 C 2.570312 0.753906 2.328125 1.363281 2.328125 2.15625 Z M 3.390625 -8.734375 C 3.390625 -7.835938 3.640625 -7.15625 4.140625 -6.6875 C 4.648438 -6.226562 5.359375 -6 6.265625 -6 C 8.171875 -6 9.125 -6.921875 9.125 -8.765625 C 9.125 -10.691406 8.160156 -11.65625 6.234375 -11.65625 C 5.316406 -11.65625 4.613281 -11.410156 4.125 -10.921875 C 3.632812 -10.429688 3.390625 -9.703125 3.390625 -8.734375 Z M 3.390625 -8.734375 "/></g></g><g transform="translate(567.388284, 151.274604)"><g><path d="M 4.015625 0 L 2.0625 0 L 2.0625 -12.84375 L 4.015625 -12.84375 Z M 1.90625 -16.328125 C 1.90625 -16.773438 2.015625 -17.097656 2.234375 -17.296875 C 2.453125 -17.503906 2.722656 -17.609375 3.046875 -17.609375 C 3.359375 -17.609375 3.628906 -17.503906 3.859375 -17.296875 C 4.085938 -17.085938 4.203125 -16.765625 4.203125 -16.328125 C 4.203125 -15.890625 4.085938 -15.5625 3.859375 -15.34375 C 3.628906 -15.132812 3.359375 -15.03125 3.046875 -15.03125 C 2.722656 -15.03125 2.453125 -15.132812 2.234375 -15.34375 C 2.015625 -15.5625 1.90625 -15.890625 1.90625 -16.328125 Z M 1.90625 -16.328125 "/></g></g><g transform="translate(573.458596, 151.274604)"><g><path d="M 10.8125 -1.71875 L 10.703125 -1.71875 C 9.804688 -0.414062 8.460938 0.234375 6.671875 0.234375 C 4.992188 0.234375 3.6875 -0.335938 2.75 -1.484375 C 1.8125 -2.640625 1.34375 -4.273438 1.34375 -6.390625 C 1.34375 -8.503906 1.8125 -10.144531 2.75 -11.3125 C 3.6875 -12.488281 4.992188 -13.078125 6.671875 -13.078125 C 8.410156 -13.078125 9.742188 -12.445312 10.671875 -11.1875 L 10.828125 -11.1875 L 10.75 -12.109375 L 10.703125 -13.015625 L 10.703125 -18.234375 L 12.640625 -18.234375 L 12.640625 0 L 11.0625 0 Z M 6.921875 -1.390625 C 8.242188 -1.390625 9.203125 -1.75 9.796875 -2.46875 C 10.398438 -3.195312 10.703125 -4.367188 10.703125 -5.984375 L 10.703125 -6.390625 C 10.703125 -8.210938 10.398438 -9.507812 9.796875 -10.28125 C 9.191406 -11.0625 8.222656 -11.453125 6.890625 -11.453125 C 5.753906 -11.453125 4.878906 -11.007812 4.265625 -10.125 C 3.660156 -9.238281 3.359375 -7.984375 3.359375 -6.359375 C 3.359375 -4.722656 3.660156 -3.484375 4.265625 -2.640625 C 4.867188 -1.804688 5.753906 -1.390625 6.921875 -1.390625 Z M 6.921875 -1.390625 "/></g></g><g transform="translate(588.165626, 151.274604)"><g><path d="M 13.15625 -6.4375 C 13.15625 -4.34375 12.625 -2.707031 11.5625 -1.53125 C 10.507812 -0.351562 9.054688 0.234375 7.203125 0.234375 C 6.046875 0.234375 5.019531 -0.0351562 4.125 -0.578125 C 3.238281 -1.117188 2.550781 -1.890625 2.0625 -2.890625 C 1.582031 -3.898438 1.34375 -5.082031 1.34375 -6.4375 C 1.34375 -8.53125 1.863281 -10.160156 2.90625 -11.328125 C 3.957031 -12.492188 5.414062 -13.078125 7.28125 -13.078125 C 9.070312 -13.078125 10.5 -12.476562 11.5625 -11.28125 C 12.625 -10.09375 13.15625 -8.476562 13.15625 -6.4375 Z M 3.359375 -6.4375 C 3.359375 -4.789062 3.6875 -3.535156 4.34375 -2.671875 C 5 -1.816406 5.96875 -1.390625 7.25 -1.390625 C 8.519531 -1.390625 9.484375 -1.816406 10.140625 -2.671875 C 10.804688 -3.535156 11.140625 -4.789062 11.140625 -6.4375 C 11.140625 -8.070312 10.804688 -9.3125 10.140625 -10.15625 C 9.484375 -11 8.507812 -11.421875 7.21875 -11.421875 C 5.945312 -11.421875 4.984375 -11.003906 4.328125 -10.171875 C 3.679688 -9.335938 3.359375 -8.09375 3.359375 -6.4375 Z M 3.359375 -6.4375 "/></g></g></g><g fill="#000000" fill-opacity="1"><g transform="translate(426.23595, 186.372255)"><g><path d="M 12.4375 0 L 1.171875 0 L 1.171875 -1.671875 L 5.6875 -6.21875 C 7.0625 -7.601562 7.96875 -8.59375 8.40625 -9.1875 C 8.84375 -9.78125 9.171875 -10.359375 9.390625 -10.921875 C 9.609375 -11.484375 9.71875 -12.085938 9.71875 -12.734375 C 9.71875 -13.648438 9.4375 -14.375 8.875 -14.90625 C 8.320312 -15.445312 7.554688 -15.71875 6.578125 -15.71875 C 5.867188 -15.71875 5.191406 -15.597656 4.546875 -15.359375 C 3.910156 -15.128906 3.203125 -14.707031 2.421875 -14.09375 L 1.390625 -15.40625 C 2.972656 -16.71875 4.691406 -17.375 6.546875 -17.375 C 8.160156 -17.375 9.421875 -16.960938 10.328125 -16.140625 C 11.242188 -15.316406 11.703125 -14.210938 11.703125 -12.828125 C 11.703125 -11.734375 11.394531 -10.65625 10.78125 -9.59375 C 10.175781 -8.53125 9.039062 -7.1875 7.375 -5.5625 L 3.625 -1.90625 L 3.625 -1.8125 L 12.4375 -1.8125 Z M 12.4375 0 "/></g></g><g transform="translate(439.958605, 186.372255)"><g><path d="M 6.53125 -10.46875 C 8.332031 -10.46875 9.75 -10.019531 10.78125 -9.125 C 11.820312 -8.226562 12.34375 -7.003906 12.34375 -5.453125 C 12.34375 -3.679688 11.773438 -2.289062 10.640625 -1.28125 C 9.515625 -0.269531 7.960938 0.234375 5.984375 0.234375 C 4.046875 0.234375 2.570312 -0.0703125 1.5625 -0.6875 L 1.5625 -2.5625 C 2.101562 -2.21875 2.78125 -1.941406 3.59375 -1.734375 C 4.40625 -1.535156 5.207031 -1.4375 6 -1.4375 C 7.375 -1.4375 8.441406 -1.757812 9.203125 -2.40625 C 9.960938 -3.0625 10.34375 -4.003906 10.34375 -5.234375 C 10.34375 -7.617188 8.878906 -8.8125 5.953125 -8.8125 C 5.210938 -8.8125 4.222656 -8.695312 2.984375 -8.46875 L 1.96875 -9.125 L 2.609375 -17.140625 L 11.140625 -17.140625 L 11.140625 -15.34375 L 4.28125 -15.34375 L 3.84375 -10.203125 C 4.738281 -10.378906 5.632812 -10.46875 6.53125 -10.46875 Z M 6.53125 -10.46875 "/></g></g><g transform="translate(453.681261, 186.372255)"><g><path d="M 2.84375 -12.03125 C 2.84375 -10.695312 2.984375 -9.695312 3.265625 -9.03125 C 3.554688 -8.375 4.023438 -8.046875 4.671875 -8.046875 C 5.953125 -8.046875 6.59375 -9.375 6.59375 -12.03125 C 6.59375 -14.664062 5.953125 -15.984375 4.671875 -15.984375 C 4.023438 -15.984375 3.554688 -15.65625 3.265625 -15 C 2.984375 -14.34375 2.84375 -13.351562 2.84375 -12.03125 Z M 8.203125 -12.03125 C 8.203125 -10.25 7.898438 -8.898438 7.296875 -7.984375 C 6.703125 -7.078125 5.828125 -6.625 4.671875 -6.625 C 3.578125 -6.625 2.726562 -7.085938 2.125 -8.015625 C 1.519531 -8.941406 1.21875 -10.28125 1.21875 -12.03125 C 1.21875 -13.800781 1.507812 -15.132812 2.09375 -16.03125 C 2.675781 -16.925781 3.535156 -17.375 4.671875 -17.375 C 5.804688 -17.375 6.675781 -16.910156 7.28125 -15.984375 C 7.894531 -15.054688 8.203125 -13.738281 8.203125 -12.03125 Z M 13.15625 -5.15625 C 13.15625 -3.820312 13.296875 -2.820312 13.578125 -2.15625 C 13.867188 -1.5 14.34375 -1.171875 15 -1.171875 C 15.65625 -1.171875 16.140625 -1.492188 16.453125 -2.140625 C 16.765625 -2.796875 16.921875 -3.800781 16.921875 -5.15625 C 16.921875 -6.488281 16.765625 -7.476562 16.453125 -8.125 C 16.140625 -8.769531 15.65625 -9.09375 15 -9.09375 C 14.34375 -9.09375 13.867188 -8.769531 13.578125 -8.125 C 13.296875 -7.476562 13.15625 -6.488281 13.15625 -5.15625 Z M 18.53125 -5.15625 C 18.53125 -3.382812 18.226562 -2.039062 17.625 -1.125 C 17.03125 -0.21875 16.15625 0.234375 15 0.234375 C 13.894531 0.234375 13.039062 -0.226562 12.4375 -1.15625 C 11.84375 -2.09375 11.546875 -3.425781 11.546875 -5.15625 C 11.546875 -6.925781 11.835938 -8.257812 12.421875 -9.15625 C 13.003906 -10.0625 13.863281 -10.515625 15 -10.515625 C 16.113281 -10.515625 16.976562 -10.054688 17.59375 -9.140625 C 18.21875 -8.222656 18.53125 -6.894531 18.53125 -5.15625 Z M 15.5 -17.140625 L 6 0 L 4.28125 0 L 13.78125 -17.140625 Z M 15.5 -17.140625 "/></g></g></g></svg>