<svg xmlns="http://www.w3.org/2000/svg" xmlns:xlink="http://www.w3.org/1999/xlink" width="1920" zoomAndPan="magnify" viewBox="0 0 1440 809.999993" height="1080" preserveAspectRatio="xMidYMid meet" version="1.0"><defs><g/></defs><rect x="-144" width="1728" fill="#ffffff" y="-80.999999" height="971.999992" fill-opacity="1"/><rect x="-144" width="1728" fill="#ffffff" y="-80.999999" height="971.999992" fill-opacity="1"/><g fill="#ff83b7" fill-opacity="1"><g transform="translate(631.081256, 103.342822)"><g><path d="M 36.1875 -44.8125 L 36.1875 -36.0625 L 24.3125 -36.0625 L 24.3125 0 L 13.40625 0 L 13.40625 -36.0625 L 1.53125 -36.0625 L 1.53125 -44.8125 Z M 36.1875 -44.8125 "/></g></g></g><g fill="#ff83b7" fill-opacity="1"><g transform="translate(668.804034, 103.342822)"><g><path d="M 20.75 -44.8125 C 25.46875 -44.8125 29.59375 -43.875 33.125 -42 C 36.65625 -40.125 39.390625 -37.492188 41.328125 -34.109375 C 43.265625 -30.734375 44.234375 -26.832031 44.234375 -22.40625 C 44.234375 -18.019531 43.265625 -14.125 41.328125 -10.71875 C 39.390625 -7.3125 36.644531 -4.671875 33.09375 -2.796875 C 29.539062 -0.929688 25.425781 0 20.75 0 L 3.953125 0 L 3.953125 -44.8125 Z M 20.046875 -9.453125 C 24.171875 -9.453125 27.378906 -10.578125 29.671875 -12.828125 C 31.972656 -15.085938 33.125 -18.28125 33.125 -22.40625 C 33.125 -26.53125 31.972656 -29.738281 29.671875 -32.03125 C 27.378906 -34.332031 24.171875 -35.484375 20.046875 -35.484375 L 14.875 -35.484375 L 14.875 -9.453125 Z M 20.046875 -9.453125 "/></g></g></g><g fill="#ff83b7" fill-opacity="1"><g transform="translate(715.207516, 103.342822)"><g><path d="M 31.84375 -7.921875 L 15.125 -7.921875 L 12.453125 0 L 1.015625 0 L 17.234375 -44.8125 L 29.875 -44.8125 L 46.078125 0 L 34.53125 0 Z M 29.046875 -16.34375 L 23.484375 -32.75 L 18 -16.34375 Z M 29.046875 -16.34375 "/></g></g></g><g fill="#ff83b7" fill-opacity="1"><g transform="translate(762.249284, 103.342822)"><g><path d="M 42.765625 -44.8125 L 42.765625 0 L 31.84375 0 L 31.84375 -18.453125 L 14.875 -18.453125 L 14.875 0 L 3.953125 0 L 3.953125 -44.8125 L 14.875 -44.8125 L 14.875 -27.25 L 31.84375 -27.25 L 31.84375 -44.8125 Z M 42.765625 -44.8125 "/></g></g></g><path fill="#ff83b7" d="M 754.78125 160.273438 C 760.351562 160.273438 765.914062 160.425781 771.472656 160.734375 C 777.035156 161.039062 782.582031 161.496094 788.113281 162.109375 C 793.648438 162.71875 799.164062 163.484375 804.65625 164.398438 C 810.148438 165.3125 815.609375 166.375 821.042969 167.589844 C 826.476562 168.804688 831.875 170.167969 837.234375 171.679688 C 842.589844 173.191406 847.90625 174.847656 853.171875 176.652344 C 858.441406 178.453125 863.65625 180.402344 868.816406 182.492188 C 873.976562 184.582031 879.074219 186.8125 884.113281 189.183594 C 889.152344 191.554688 894.121094 194.0625 899.019531 196.707031 C 903.921875 199.347656 908.746094 202.125 913.492188 205.035156 C 918.238281 207.945312 922.902344 210.980469 927.484375 214.148438 C 932.0625 217.3125 936.554688 220.601562 940.953125 224.015625 C 945.351562 227.425781 949.65625 230.957031 953.859375 234.609375 C 958.066406 238.257812 962.167969 242.019531 966.167969 245.894531 C 970.164062 249.769531 974.054688 253.75 977.832031 257.839844 C 981.613281 261.925781 985.277344 266.117188 988.828125 270.40625 C 992.375 274.699219 995.804688 279.082031 999.113281 283.558594 C 1002.417969 288.039062 1005.601562 292.605469 1008.660156 297.257812 C 1011.714844 301.914062 1014.644531 306.648438 1017.441406 311.460938 C 1020.234375 316.277344 1022.898438 321.164062 1025.425781 326.125 C 1027.953125 331.085938 1030.34375 336.113281 1032.59375 341.207031 C 1034.847656 346.296875 1036.957031 351.449219 1038.925781 356.65625 C 1040.890625 361.863281 1042.714844 367.125 1044.394531 372.433594 C 1046.074219 377.742188 1047.605469 383.09375 1048.988281 388.484375 C 1050.375 393.878906 1051.609375 399.304688 1052.695312 404.765625 C 1053.78125 410.226562 1054.71875 415.714844 1055.503906 421.226562 C 1056.285156 426.738281 1056.917969 432.269531 1057.398438 437.816406 C 1057.878906 443.363281 1058.207031 448.917969 1058.382812 454.484375 C 1058.558594 460.046875 1058.578125 465.613281 1058.449219 471.179688 C 1058.316406 476.746094 1058.035156 482.304688 1057.597656 487.855469 C 1057.160156 493.40625 1056.570312 498.941406 1055.828125 504.460938 C 1055.089844 509.980469 1054.195312 515.472656 1053.152344 520.941406 L 754.78125 464.023438 Z M 754.78125 160.273438 " fill-opacity="1" fill-rule="nonzero"/><path fill="#c39c9d" d="M 1053.152344 520.941406 C 1052.257812 525.628906 1051.253906 530.292969 1050.140625 534.933594 C 1049.027344 539.574219 1047.804688 544.183594 1046.472656 548.765625 C 1045.140625 553.351562 1043.703125 557.898438 1042.15625 562.414062 C 1040.609375 566.929688 1038.960938 571.40625 1037.203125 575.839844 C 1035.445312 580.277344 1033.585938 584.671875 1031.621094 589.019531 C 1029.660156 593.371094 1027.59375 597.671875 1025.425781 601.921875 C 1023.261719 606.175781 1020.996094 610.375 1018.628906 614.519531 C 1016.265625 618.664062 1013.804688 622.75 1011.25 626.78125 C 1008.691406 630.808594 1006.042969 634.777344 1003.296875 638.679688 C 1000.554688 642.585938 997.71875 646.421875 994.792969 650.191406 C 991.871094 653.964844 988.859375 657.664062 985.757812 661.292969 C 982.660156 664.921875 979.476562 668.472656 976.210938 671.953125 C 972.941406 675.433594 969.597656 678.832031 966.167969 682.152344 C 962.742188 685.472656 959.238281 688.710938 955.660156 691.867188 C 952.078125 695.023438 948.429688 698.09375 944.703125 701.078125 C 940.980469 704.0625 937.1875 706.957031 933.328125 709.761719 C 929.464844 712.566406 925.542969 715.277344 921.554688 717.898438 C 917.566406 720.519531 913.515625 723.042969 909.410156 725.472656 C 905.300781 727.902344 901.140625 730.234375 896.921875 732.464844 C 892.703125 734.699219 888.4375 736.832031 884.117188 738.863281 C 879.800781 740.894531 875.4375 742.824219 871.027344 744.652344 C 866.621094 746.476562 862.171875 748.199219 857.679688 749.816406 C 853.191406 751.429688 848.664062 752.941406 844.105469 754.34375 C 839.542969 755.746094 834.953125 757.042969 830.328125 758.230469 C 825.707031 759.417969 821.058594 760.492188 816.386719 761.460938 C 811.714844 762.429688 807.019531 763.285156 802.308594 764.035156 C 797.59375 764.78125 792.867188 765.414062 788.125 765.9375 C 783.378906 766.464844 778.625 766.875 773.863281 767.175781 C 769.101562 767.472656 764.335938 767.660156 759.5625 767.738281 C 754.792969 767.8125 750.019531 767.773438 745.25 767.625 C 740.480469 767.476562 735.71875 767.214844 730.960938 766.839844 C 726.203125 766.464844 721.457031 765.980469 716.722656 765.378906 C 711.988281 764.78125 707.269531 764.074219 702.570312 763.253906 C 697.867188 762.433594 693.191406 761.503906 688.53125 760.460938 C 683.875 759.421875 679.246094 758.269531 674.640625 757.011719 C 670.039062 755.753906 665.46875 754.386719 660.929688 752.910156 C 656.390625 751.4375 651.890625 749.855469 647.425781 748.167969 C 642.960938 746.484375 638.539062 744.691406 634.160156 742.796875 C 629.78125 740.902344 625.449219 738.90625 621.164062 736.804688 C 616.875 734.707031 612.644531 732.507812 608.460938 730.207031 C 604.28125 727.910156 600.152344 725.515625 596.085938 723.019531 C 592.015625 720.527344 588.007812 717.941406 584.0625 715.257812 C 580.113281 712.574219 576.230469 709.800781 572.417969 706.9375 C 568.601562 704.070312 564.851562 701.117188 561.175781 698.078125 C 557.5 695.035156 553.894531 691.910156 550.367188 688.695312 C 546.835938 685.484375 543.382812 682.191406 540.007812 678.820312 C 536.636719 675.445312 533.339844 671.992188 530.128906 668.464844 C 526.917969 664.933594 523.792969 661.332031 520.75 657.652344 C 517.707031 653.976562 514.753906 650.230469 511.886719 646.414062 C 509.023438 642.597656 506.25 638.71875 503.566406 634.769531 C 500.882812 630.824219 498.296875 626.816406 495.800781 622.746094 C 493.308594 618.679688 490.910156 614.554688 488.613281 610.371094 C 486.3125 606.191406 484.113281 601.957031 482.015625 597.671875 C 479.914062 593.386719 477.917969 589.054688 476.023438 584.675781 C 474.125 580.292969 472.335938 575.871094 470.648438 571.410156 C 468.960938 566.945312 467.378906 562.445312 465.90625 557.90625 C 464.429688 553.367188 463.0625 548.796875 461.804688 544.195312 C 460.542969 539.589844 459.394531 534.960938 458.351562 530.304688 C 457.3125 525.644531 456.378906 520.96875 455.558594 516.265625 C 454.738281 511.566406 454.027344 506.847656 453.429688 502.113281 C 452.832031 497.378906 452.34375 492.632812 451.96875 487.875 C 451.597656 483.117188 451.332031 478.355469 451.183594 473.585938 C 451.03125 468.816406 450.996094 464.042969 451.070312 459.273438 C 451.144531 454.5 451.332031 449.734375 451.632812 444.972656 C 451.929688 440.210938 452.339844 435.457031 452.863281 430.714844 C 453.386719 425.96875 454.023438 421.242188 454.769531 416.527344 C 455.515625 411.816406 456.371094 407.121094 457.339844 402.449219 C 458.308594 397.777344 459.382812 393.128906 460.570312 388.507812 C 461.757812 383.882812 463.050781 379.292969 464.453125 374.730469 C 465.855469 370.167969 467.367188 365.644531 468.984375 361.152344 C 470.597656 356.664062 472.320312 352.214844 474.144531 347.804688 C 475.972656 343.394531 477.902344 339.03125 479.933594 334.714844 C 481.964844 330.398438 484.09375 326.128906 486.328125 321.910156 C 488.5625 317.695312 490.890625 313.53125 493.320312 309.421875 C 495.75 305.316406 498.273438 301.265625 500.894531 297.277344 C 503.511719 293.289062 506.226562 289.363281 509.03125 285.503906 C 511.835938 281.644531 514.726562 277.851562 517.710938 274.125 C 520.695312 270.402344 523.765625 266.75 526.921875 263.167969 C 530.074219 259.589844 533.3125 256.085938 536.632812 252.660156 C 539.957031 249.230469 543.355469 245.882812 546.832031 242.617188 C 550.3125 239.351562 553.863281 236.167969 557.492188 233.066406 C 561.121094 229.96875 564.820312 226.957031 568.59375 224.03125 C 572.363281 221.105469 576.199219 218.269531 580.101562 215.527344 C 584.007812 212.78125 587.972656 210.132812 592.003906 207.574219 C 596.03125 205.015625 600.117188 202.554688 604.265625 200.191406 C 608.410156 197.828125 612.605469 195.5625 616.859375 193.394531 C 621.109375 191.226562 625.410156 189.160156 629.761719 187.195312 C 634.109375 185.234375 638.503906 183.371094 642.9375 181.617188 C 647.375 179.859375 651.851562 178.207031 656.367188 176.660156 C 660.882812 175.113281 665.429688 173.675781 670.011719 172.34375 C 674.59375 171.011719 679.207031 169.789062 683.847656 168.675781 C 688.484375 167.558594 693.148438 166.554688 697.835938 165.660156 C 702.523438 164.765625 707.230469 163.980469 711.953125 163.308594 C 716.679688 162.636719 721.417969 162.074219 726.167969 161.625 C 730.917969 161.175781 735.675781 160.839844 740.445312 160.613281 C 745.210938 160.386719 749.980469 160.273438 754.753906 160.273438 L 754.78125 464.023438 Z M 1053.152344 520.941406 " fill-opacity="1" fill-rule="nonzero"/><g fill="#000000" fill-opacity="1"><g transform="translate(259.677361, 738.137908)"><g><path d="M 15.734375 0 L 13.46875 0 L 4.109375 -14.375 L 4.015625 -14.375 C 4.140625 -12.6875 4.203125 -11.140625 4.203125 -9.734375 L 4.203125 0 L 2.359375 0 L 2.359375 -17.140625 L 4.609375 -17.140625 L 13.953125 -2.8125 L 14.046875 -2.8125 C 14.023438 -3.019531 13.988281 -3.695312 13.9375 -4.84375 C 13.882812 -5.988281 13.863281 -6.804688 13.875 -7.296875 L 13.875 -17.140625 L 15.734375 -17.140625 Z M 15.734375 0 "/></g></g><g transform="translate(277.77111, 738.137908)"><g><path d="M 13.15625 -6.4375 C 13.15625 -4.34375 12.625 -2.707031 11.5625 -1.53125 C 10.507812 -0.351562 9.054688 0.234375 7.203125 0.234375 C 6.046875 0.234375 5.019531 -0.0351562 4.125 -0.578125 C 3.238281 -1.117188 2.550781 -1.890625 2.0625 -2.890625 C 1.582031 -3.898438 1.34375 -5.082031 1.34375 -6.4375 C 1.34375 -8.53125 1.863281 -10.160156 2.90625 -11.328125 C 3.957031 -12.492188 5.414062 -13.078125 7.28125 -13.078125 C 9.070312 -13.078125 10.5 -12.476562 11.5625 -11.28125 C 12.625 -10.09375 13.15625 -8.476562 13.15625 -6.4375 Z M 3.359375 -6.4375 C 3.359375 -4.789062 3.6875 -3.535156 4.34375 -2.671875 C 5 -1.816406 5.96875 -1.390625 7.25 -1.390625 C 8.519531 -1.390625 9.484375 -1.816406 10.140625 -2.671875 C 10.804688 -3.535156 11.140625 -4.789062 11.140625 -6.4375 C 11.140625 -8.070312 10.804688 -9.3125 10.140625 -10.15625 C 9.484375 -11 8.507812 -11.421875 7.21875 -11.421875 C 5.945312 -11.421875 4.984375 -11.003906 4.328125 -10.171875 C 3.679688 -9.335938 3.359375 -8.09375 3.359375 -6.4375 Z M 3.359375 -6.4375 "/></g></g><g transform="translate(292.267203, 738.137908)"><g/></g><g transform="translate(298.501578, 738.137908)"><g><path d="M 6.21875 -1.375 C 6.5625 -1.375 6.890625 -1.398438 7.203125 -1.453125 C 7.523438 -1.503906 7.78125 -1.554688 7.96875 -1.609375 L 7.96875 -0.125 C 7.757812 -0.0195312 7.445312 0.0625 7.03125 0.125 C 6.625 0.195312 6.257812 0.234375 5.9375 0.234375 C 3.445312 0.234375 2.203125 -1.070312 2.203125 -3.6875 L 2.203125 -11.328125 L 0.359375 -11.328125 L 0.359375 -12.265625 L 2.203125 -13.078125 L 3.03125 -15.828125 L 4.15625 -15.828125 L 4.15625 -12.84375 L 7.875 -12.84375 L 7.875 -11.328125 L 4.15625 -11.328125 L 4.15625 -3.78125 C 4.15625 -3 4.335938 -2.398438 4.703125 -1.984375 C 5.066406 -1.578125 5.570312 -1.375 6.21875 -1.375 Z M 6.21875 -1.375 "/></g></g><g transform="translate(306.974233, 738.137908)"><g><path d="M 4.015625 0 L 2.0625 0 L 2.0625 -12.84375 L 4.015625 -12.84375 Z M 1.90625 -16.328125 C 1.90625 -16.773438 2.015625 -17.097656 2.234375 -17.296875 C 2.453125 -17.503906 2.722656 -17.609375 3.046875 -17.609375 C 3.359375 -17.609375 3.628906 -17.503906 3.859375 -17.296875 C 4.085938 -17.085938 4.203125 -16.765625 4.203125 -16.328125 C 4.203125 -15.890625 4.085938 -15.5625 3.859375 -15.34375 C 3.628906 -15.132812 3.359375 -15.03125 3.046875 -15.03125 C 2.722656 -15.03125 2.453125 -15.132812 2.234375 -15.34375 C 2.015625 -15.5625 1.90625 -15.890625 1.90625 -16.328125 Z M 1.90625 -16.328125 "/></g></g><g transform="translate(313.044546, 738.137908)"><g><path d="M 7.484375 0.234375 C 5.585938 0.234375 4.085938 -0.34375 2.984375 -1.5 C 1.890625 -2.65625 1.34375 -4.257812 1.34375 -6.3125 C 1.34375 -8.382812 1.851562 -10.03125 2.875 -11.25 C 3.894531 -12.46875 5.265625 -13.078125 6.984375 -13.078125 C 8.597656 -13.078125 9.875 -12.546875 10.8125 -11.484375 C 11.75 -10.429688 12.21875 -9.035156 12.21875 -7.296875 L 12.21875 -6.078125 L 3.359375 -6.078125 C 3.398438 -4.566406 3.78125 -3.421875 4.5 -2.640625 C 5.226562 -1.859375 6.25 -1.46875 7.5625 -1.46875 C 8.945312 -1.46875 10.3125 -1.753906 11.65625 -2.328125 L 11.65625 -0.59375 C 10.96875 -0.300781 10.316406 -0.09375 9.703125 0.03125 C 9.097656 0.164062 8.359375 0.234375 7.484375 0.234375 Z M 6.96875 -11.453125 C 5.9375 -11.453125 5.113281 -11.113281 4.5 -10.4375 C 3.882812 -9.769531 3.519531 -8.84375 3.40625 -7.65625 L 10.125 -7.65625 C 10.125 -8.882812 9.847656 -9.820312 9.296875 -10.46875 C 8.753906 -11.125 7.976562 -11.453125 6.96875 -11.453125 Z M 6.96875 -11.453125 "/></g></g><g transform="translate(326.509389, 738.137908)"><g><path d="M 10.859375 0 L 10.859375 -8.3125 C 10.859375 -9.351562 10.617188 -10.128906 10.140625 -10.640625 C 9.660156 -11.160156 8.914062 -11.421875 7.90625 -11.421875 C 6.5625 -11.421875 5.578125 -11.054688 4.953125 -10.328125 C 4.328125 -9.609375 4.015625 -8.410156 4.015625 -6.734375 L 4.015625 0 L 2.0625 0 L 2.0625 -12.84375 L 3.640625 -12.84375 L 3.96875 -11.09375 L 4.0625 -11.09375 C 4.457031 -11.71875 5.015625 -12.203125 5.734375 -12.546875 C 6.453125 -12.898438 7.253906 -13.078125 8.140625 -13.078125 C 9.679688 -13.078125 10.84375 -12.703125 11.625 -11.953125 C 12.40625 -11.210938 12.796875 -10.019531 12.796875 -8.375 L 12.796875 0 Z M 10.859375 0 "/></g></g><g transform="translate(341.239857, 738.137908)"><g><path d="M 7.484375 0.234375 C 5.585938 0.234375 4.085938 -0.34375 2.984375 -1.5 C 1.890625 -2.65625 1.34375 -4.257812 1.34375 -6.3125 C 1.34375 -8.382812 1.851562 -10.03125 2.875 -11.25 C 3.894531 -12.46875 5.265625 -13.078125 6.984375 -13.078125 C 8.597656 -13.078125 9.875 -12.546875 10.8125 -11.484375 C 11.75 -10.429688 12.21875 -9.035156 12.21875 -7.296875 L 12.21875 -6.078125 L 3.359375 -6.078125 C 3.398438 -4.566406 3.78125 -3.421875 4.5 -2.640625 C 5.226562 -1.859375 6.25 -1.46875 7.5625 -1.46875 C 8.945312 -1.46875 10.3125 -1.753906 11.65625 -2.328125 L 11.65625 -0.59375 C 10.96875 -0.300781 10.316406 -0.09375 9.703125 0.03125 C 9.097656 0.164062 8.359375 0.234375 7.484375 0.234375 Z M 6.96875 -11.453125 C 5.9375 -11.453125 5.113281 -11.113281 4.5 -10.4375 C 3.882812 -9.769531 3.519531 -8.84375 3.40625 -7.65625 L 10.125 -7.65625 C 10.125 -8.882812 9.847656 -9.820312 9.296875 -10.46875 C 8.753906 -11.125 7.976562 -11.453125 6.96875 -11.453125 Z M 6.96875 -11.453125 "/></g></g><g transform="translate(354.7047, 738.137908)"><g/></g><g transform="translate(360.939075, 738.137908)"><g><path d="M 4.015625 0 L 2.0625 0 L 2.0625 -12.84375 L 4.015625 -12.84375 Z M 1.90625 -16.328125 C 1.90625 -16.773438 2.015625 -17.097656 2.234375 -17.296875 C 2.453125 -17.503906 2.722656 -17.609375 3.046875 -17.609375 C 3.359375 -17.609375 3.628906 -17.503906 3.859375 -17.296875 C 4.085938 -17.085938 4.203125 -16.765625 4.203125 -16.328125 C 4.203125 -15.890625 4.085938 -15.5625 3.859375 -15.34375 C 3.628906 -15.132812 3.359375 -15.03125 3.046875 -15.03125 C 2.722656 -15.03125 2.453125 -15.132812 2.234375 -15.34375 C 2.015625 -15.5625 1.90625 -15.890625 1.90625 -16.328125 Z M 1.90625 -16.328125 "/></g></g><g transform="translate(367.009387, 738.137908)"><g><path d="M 10.859375 0 L 10.859375 -8.3125 C 10.859375 -9.351562 10.617188 -10.128906 10.140625 -10.640625 C 9.660156 -11.160156 8.914062 -11.421875 7.90625 -11.421875 C 6.5625 -11.421875 5.578125 -11.054688 4.953125 -10.328125 C 4.328125 -9.609375 4.015625 -8.410156 4.015625 -6.734375 L 4.015625 0 L 2.0625 0 L 2.0625 -12.84375 L 3.640625 -12.84375 L 3.96875 -11.09375 L 4.0625 -11.09375 C 4.457031 -11.71875 5.015625 -12.203125 5.734375 -12.546875 C 6.453125 -12.898438 7.253906 -13.078125 8.140625 -13.078125 C 9.679688 -13.078125 10.84375 -12.703125 11.625 -11.953125 C 12.40625 -11.210938 12.796875 -10.019531 12.796875 -8.375 L 12.796875 0 Z M 10.859375 0 "/></g></g><g transform="translate(381.739855, 738.137908)"><g><path d="M 6.21875 -1.375 C 6.5625 -1.375 6.890625 -1.398438 7.203125 -1.453125 C 7.523438 -1.503906 7.78125 -1.554688 7.96875 -1.609375 L 7.96875 -0.125 C 7.757812 -0.0195312 7.445312 0.0625 7.03125 0.125 C 6.625 0.195312 6.257812 0.234375 5.9375 0.234375 C 3.445312 0.234375 2.203125 -1.070312 2.203125 -3.6875 L 2.203125 -11.328125 L 0.359375 -11.328125 L 0.359375 -12.265625 L 2.203125 -13.078125 L 3.03125 -15.828125 L 4.15625 -15.828125 L 4.15625 -12.84375 L 7.875 -12.84375 L 7.875 -11.328125 L 4.15625 -11.328125 L 4.15625 -3.78125 C 4.15625 -3 4.335938 -2.398438 4.703125 -1.984375 C 5.066406 -1.578125 5.570312 -1.375 6.21875 -1.375 Z M 6.21875 -1.375 "/></g></g><g transform="translate(390.212511, 738.137908)"><g><path d="M 7.484375 0.234375 C 5.585938 0.234375 4.085938 -0.34375 2.984375 -1.5 C 1.890625 -2.65625 1.34375 -4.257812 1.34375 -6.3125 C 1.34375 -8.382812 1.851562 -10.03125 2.875 -11.25 C 3.894531 -12.46875 5.265625 -13.078125 6.984375 -13.078125 C 8.597656 -13.078125 9.875 -12.546875 10.8125 -11.484375 C 11.75 -10.429688 12.21875 -9.035156 12.21875 -7.296875 L 12.21875 -6.078125 L 3.359375 -6.078125 C 3.398438 -4.566406 3.78125 -3.421875 4.5 -2.640625 C 5.226562 -1.859375 6.25 -1.46875 7.5625 -1.46875 C 8.945312 -1.46875 10.3125 -1.753906 11.65625 -2.328125 L 11.65625 -0.59375 C 10.96875 -0.300781 10.316406 -0.09375 9.703125 0.03125 C 9.097656 0.164062 8.359375 0.234375 7.484375 0.234375 Z M 6.96875 -11.453125 C 5.9375 -11.453125 5.113281 -11.113281 4.5 -10.4375 C 3.882812 -9.769531 3.519531 -8.84375 3.40625 -7.65625 L 10.125 -7.65625 C 10.125 -8.882812 9.847656 -9.820312 9.296875 -10.46875 C 8.753906 -11.125 7.976562 -11.453125 6.96875 -11.453125 Z M 6.96875 -11.453125 "/></g></g><g transform="translate(403.677354, 738.137908)"><g><path d="M 7.921875 -13.078125 C 8.492188 -13.078125 9.003906 -13.03125 9.453125 -12.9375 L 9.1875 -11.140625 C 8.65625 -11.253906 8.1875 -11.3125 7.78125 -11.3125 C 6.738281 -11.3125 5.847656 -10.890625 5.109375 -10.046875 C 4.378906 -9.203125 4.015625 -8.148438 4.015625 -6.890625 L 4.015625 0 L 2.0625 0 L 2.0625 -12.84375 L 3.671875 -12.84375 L 3.890625 -10.46875 L 3.984375 -10.46875 C 4.460938 -11.300781 5.035156 -11.941406 5.703125 -12.390625 C 6.378906 -12.847656 7.117188 -13.078125 7.921875 -13.078125 Z M 7.921875 -13.078125 "/></g></g><g transform="translate(413.474229, 738.137908)"><g><path d="M 7.484375 0.234375 C 5.585938 0.234375 4.085938 -0.34375 2.984375 -1.5 C 1.890625 -2.65625 1.34375 -4.257812 1.34375 -6.3125 C 1.34375 -8.382812 1.851562 -10.03125 2.875 -11.25 C 3.894531 -12.46875 5.265625 -13.078125 6.984375 -13.078125 C 8.597656 -13.078125 9.875 -12.546875 10.8125 -11.484375 C 11.75 -10.429688 12.21875 -9.035156 12.21875 -7.296875 L 12.21875 -6.078125 L 3.359375 -6.078125 C 3.398438 -4.566406 3.78125 -3.421875 4.5 -2.640625 C 5.226562 -1.859375 6.25 -1.46875 7.5625 -1.46875 C 8.945312 -1.46875 10.3125 -1.753906 11.65625 -2.328125 L 11.65625 -0.59375 C 10.96875 -0.300781 10.316406 -0.09375 9.703125 0.03125 C 9.097656 0.164062 8.359375 0.234375 7.484375 0.234375 Z M 6.96875 -11.453125 C 5.9375 -11.453125 5.113281 -11.113281 4.5 -10.4375 C 3.882812 -9.769531 3.519531 -8.84375 3.40625 -7.65625 L 10.125 -7.65625 C 10.125 -8.882812 9.847656 -9.820312 9.296875 -10.46875 C 8.753906 -11.125 7.976562 -11.453125 6.96875 -11.453125 Z M 5.53125 -14.84375 C 5.90625 -15.320312 6.304688 -15.90625 6.734375 -16.59375 C 7.171875 -17.28125 7.515625 -17.878906 7.765625 -18.390625 L 10.140625 -18.390625 L 10.140625 -18.140625 C 9.796875 -17.628906 9.28125 -17.003906 8.59375 -16.265625 C 7.914062 -15.523438 7.328125 -14.953125 6.828125 -14.546875 L 5.53125 -14.546875 Z M 5.53125 -14.84375 "/></g></g><g transform="translate(426.939072, 738.137908)"><g><path d="M 10.34375 -3.5 C 10.34375 -2.3125 9.894531 -1.390625 9 -0.734375 C 8.113281 -0.0859375 6.867188 0.234375 5.265625 0.234375 C 3.554688 0.234375 2.226562 -0.0351562 1.28125 -0.578125 L 1.28125 -2.375 C 1.894531 -2.0625 2.554688 -1.816406 3.265625 -1.640625 C 3.972656 -1.460938 4.65625 -1.375 5.3125 -1.375 C 6.320312 -1.375 7.097656 -1.535156 7.640625 -1.859375 C 8.191406 -2.179688 8.46875 -2.675781 8.46875 -3.34375 C 8.46875 -3.84375 8.25 -4.269531 7.8125 -4.625 C 7.382812 -4.976562 6.539062 -5.398438 5.28125 -5.890625 C 4.09375 -6.328125 3.242188 -6.710938 2.734375 -7.046875 C 2.234375 -7.378906 1.859375 -7.753906 1.609375 -8.171875 C 1.367188 -8.597656 1.25 -9.101562 1.25 -9.6875 C 1.25 -10.738281 1.671875 -11.566406 2.515625 -12.171875 C 3.367188 -12.773438 4.539062 -13.078125 6.03125 -13.078125 C 7.40625 -13.078125 8.753906 -12.796875 10.078125 -12.234375 L 9.390625 -10.65625 C 8.097656 -11.1875 6.929688 -11.453125 5.890625 -11.453125 C 4.960938 -11.453125 4.265625 -11.304688 3.796875 -11.015625 C 3.328125 -10.722656 3.09375 -10.328125 3.09375 -9.828125 C 3.09375 -9.484375 3.179688 -9.1875 3.359375 -8.9375 C 3.535156 -8.695312 3.816406 -8.46875 4.203125 -8.25 C 4.597656 -8.03125 5.347656 -7.710938 6.453125 -7.296875 C 7.984375 -6.742188 9.015625 -6.1875 9.546875 -5.625 C 10.078125 -5.0625 10.34375 -4.351562 10.34375 -3.5 Z M 10.34375 -3.5 "/></g></g><g transform="translate(438.38829, 738.137908)"><g/></g><g transform="translate(444.622665, 738.137908)"><g><path d="M 7.921875 -13.078125 C 8.492188 -13.078125 9.003906 -13.03125 9.453125 -12.9375 L 9.1875 -11.140625 C 8.65625 -11.253906 8.1875 -11.3125 7.78125 -11.3125 C 6.738281 -11.3125 5.847656 -10.890625 5.109375 -10.046875 C 4.378906 -9.203125 4.015625 -8.148438 4.015625 -6.890625 L 4.015625 0 L 2.0625 0 L 2.0625 -12.84375 L 3.671875 -12.84375 L 3.890625 -10.46875 L 3.984375 -10.46875 C 4.460938 -11.300781 5.035156 -11.941406 5.703125 -12.390625 C 6.378906 -12.847656 7.117188 -13.078125 7.921875 -13.078125 Z M 7.921875 -13.078125 "/></g></g><g transform="translate(454.419539, 738.137908)"><g><path d="M 7.484375 0.234375 C 5.585938 0.234375 4.085938 -0.34375 2.984375 -1.5 C 1.890625 -2.65625 1.34375 -4.257812 1.34375 -6.3125 C 1.34375 -8.382812 1.851562 -10.03125 2.875 -11.25 C 3.894531 -12.46875 5.265625 -13.078125 6.984375 -13.078125 C 8.597656 -13.078125 9.875 -12.546875 10.8125 -11.484375 C 11.75 -10.429688 12.21875 -9.035156 12.21875 -7.296875 L 12.21875 -6.078125 L 3.359375 -6.078125 C 3.398438 -4.566406 3.78125 -3.421875 4.5 -2.640625 C 5.226562 -1.859375 6.25 -1.46875 7.5625 -1.46875 C 8.945312 -1.46875 10.3125 -1.753906 11.65625 -2.328125 L 11.65625 -0.59375 C 10.96875 -0.300781 10.316406 -0.09375 9.703125 0.03125 C 9.097656 0.164062 8.359375 0.234375 7.484375 0.234375 Z M 6.96875 -11.453125 C 5.9375 -11.453125 5.113281 -11.113281 4.5 -10.4375 C 3.882812 -9.769531 3.519531 -8.84375 3.40625 -7.65625 L 10.125 -7.65625 C 10.125 -8.882812 9.847656 -9.820312 9.296875 -10.46875 C 8.753906 -11.125 7.976562 -11.453125 6.96875 -11.453125 Z M 6.96875 -11.453125 "/></g></g><g transform="translate(467.884382, 738.137908)"><g><path d="M 10.34375 -3.5 C 10.34375 -2.3125 9.894531 -1.390625 9 -0.734375 C 8.113281 -0.0859375 6.867188 0.234375 5.265625 0.234375 C 3.554688 0.234375 2.226562 -0.0351562 1.28125 -0.578125 L 1.28125 -2.375 C 1.894531 -2.0625 2.554688 -1.816406 3.265625 -1.640625 C 3.972656 -1.460938 4.65625 -1.375 5.3125 -1.375 C 6.320312 -1.375 7.097656 -1.535156 7.640625 -1.859375 C 8.191406 -2.179688 8.46875 -2.675781 8.46875 -3.34375 C 8.46875 -3.84375 8.25 -4.269531 7.8125 -4.625 C 7.382812 -4.976562 6.539062 -5.398438 5.28125 -5.890625 C 4.09375 -6.328125 3.242188 -6.710938 2.734375 -7.046875 C 2.234375 -7.378906 1.859375 -7.753906 1.609375 -8.171875 C 1.367188 -8.597656 1.25 -9.101562 1.25 -9.6875 C 1.25 -10.738281 1.671875 -11.566406 2.515625 -12.171875 C 3.367188 -12.773438 4.539062 -13.078125 6.03125 -13.078125 C 7.40625 -13.078125 8.753906 -12.796875 10.078125 -12.234375 L 9.390625 -10.65625 C 8.097656 -11.1875 6.929688 -11.453125 5.890625 -11.453125 C 4.960938 -11.453125 4.265625 -11.304688 3.796875 -11.015625 C 3.328125 -10.722656 3.09375 -10.328125 3.09375 -9.828125 C 3.09375 -9.484375 3.179688 -9.1875 3.359375 -8.9375 C 3.535156 -8.695312 3.816406 -8.46875 4.203125 -8.25 C 4.597656 -8.03125 5.347656 -7.710938 6.453125 -7.296875 C 7.984375 -6.742188 9.015625 -6.1875 9.546875 -5.625 C 10.078125 -5.0625 10.34375 -4.351562 10.34375 -3.5 Z M 10.34375 -3.5 "/></g></g><g transform="translate(479.333601, 738.137908)"><g><path d="M 6.21875 -1.375 C 6.5625 -1.375 6.890625 -1.398438 7.203125 -1.453125 C 7.523438 -1.503906 7.78125 -1.554688 7.96875 -1.609375 L 7.96875 -0.125 C 7.757812 -0.0195312 7.445312 0.0625 7.03125 0.125 C 6.625 0.195312 6.257812 0.234375 5.9375 0.234375 C 3.445312 0.234375 2.203125 -1.070312 2.203125 -3.6875 L 2.203125 -11.328125 L 0.359375 -11.328125 L 0.359375 -12.265625 L 2.203125 -13.078125 L 3.03125 -15.828125 L 4.15625 -15.828125 L 4.15625 -12.84375 L 7.875 -12.84375 L 7.875 -11.328125 L 4.15625 -11.328125 L 4.15625 -3.78125 C 4.15625 -3 4.335938 -2.398438 4.703125 -1.984375 C 5.066406 -1.578125 5.570312 -1.375 6.21875 -1.375 Z M 6.21875 -1.375 "/></g></g><g transform="translate(487.806256, 738.137908)"><g><path d="M 7.921875 -13.078125 C 8.492188 -13.078125 9.003906 -13.03125 9.453125 -12.9375 L 9.1875 -11.140625 C 8.65625 -11.253906 8.1875 -11.3125 7.78125 -11.3125 C 6.738281 -11.3125 5.847656 -10.890625 5.109375 -10.046875 C 4.378906 -9.203125 4.015625 -8.148438 4.015625 -6.890625 L 4.015625 0 L 2.0625 0 L 2.0625 -12.84375 L 3.671875 -12.84375 L 3.890625 -10.46875 L 3.984375 -10.46875 C 4.460938 -11.300781 5.035156 -11.941406 5.703125 -12.390625 C 6.378906 -12.847656 7.117188 -13.078125 7.921875 -13.078125 Z M 7.921875 -13.078125 "/></g></g><g transform="translate(497.603131, 738.137908)"><g><path d="M 4.015625 0 L 2.0625 0 L 2.0625 -12.84375 L 4.015625 -12.84375 Z M 1.90625 -16.328125 C 1.90625 -16.773438 2.015625 -17.097656 2.234375 -17.296875 C 2.453125 -17.503906 2.722656 -17.609375 3.046875 -17.609375 C 3.359375 -17.609375 3.628906 -17.503906 3.859375 -17.296875 C 4.085938 -17.085938 4.203125 -16.765625 4.203125 -16.328125 C 4.203125 -15.890625 4.085938 -15.5625 3.859375 -15.34375 C 3.628906 -15.132812 3.359375 -15.03125 3.046875 -15.03125 C 2.722656 -15.03125 2.453125 -15.132812 2.234375 -15.34375 C 2.015625 -15.5625 1.90625 -15.890625 1.90625 -16.328125 Z M 1.90625 -16.328125 "/></g></g><g transform="translate(503.673443, 738.137908)"><g><path d="M 10.859375 0 L 10.859375 -8.3125 C 10.859375 -9.351562 10.617188 -10.128906 10.140625 -10.640625 C 9.660156 -11.160156 8.914062 -11.421875 7.90625 -11.421875 C 6.5625 -11.421875 5.578125 -11.054688 4.953125 -10.328125 C 4.328125 -9.609375 4.015625 -8.410156 4.015625 -6.734375 L 4.015625 0 L 2.0625 0 L 2.0625 -12.84375 L 3.640625 -12.84375 L 3.96875 -11.09375 L 4.0625 -11.09375 C 4.457031 -11.71875 5.015625 -12.203125 5.734375 -12.546875 C 6.453125 -12.898438 7.253906 -13.078125 8.140625 -13.078125 C 9.679688 -13.078125 10.84375 -12.703125 11.625 -11.953125 C 12.40625 -11.210938 12.796875 -10.019531 12.796875 -8.375 L 12.796875 0 Z M 10.859375 0 "/></g></g><g transform="translate(518.403911, 738.137908)"><g><path d="M 12.578125 -12.84375 L 12.578125 -11.609375 L 10.203125 -11.328125 C 10.421875 -11.054688 10.613281 -10.695312 10.78125 -10.25 C 10.957031 -9.8125 11.046875 -9.316406 11.046875 -8.765625 C 11.046875 -7.503906 10.613281 -6.5 9.75 -5.75 C 8.894531 -5 7.71875 -4.625 6.21875 -4.625 C 5.832031 -4.625 5.472656 -4.65625 5.140625 -4.71875 C 4.304688 -4.28125 3.890625 -3.734375 3.890625 -3.078125 C 3.890625 -2.722656 4.035156 -2.460938 4.328125 -2.296875 C 4.617188 -2.128906 5.113281 -2.046875 5.8125 -2.046875 L 8.09375 -2.046875 C 9.476562 -2.046875 10.539062 -1.75 11.28125 -1.15625 C 12.03125 -0.570312 12.40625 0.273438 12.40625 1.390625 C 12.40625 2.816406 11.832031 3.898438 10.6875 4.640625 C 9.550781 5.390625 7.890625 5.765625 5.703125 5.765625 C 4.023438 5.765625 2.726562 5.453125 1.8125 4.828125 C 0.90625 4.203125 0.453125 3.320312 0.453125 2.1875 C 0.453125 1.40625 0.703125 0.726562 1.203125 0.15625 C 1.703125 -0.414062 2.40625 -0.804688 3.3125 -1.015625 C 2.988281 -1.160156 2.710938 -1.390625 2.484375 -1.703125 C 2.265625 -2.015625 2.15625 -2.378906 2.15625 -2.796875 C 2.15625 -3.265625 2.28125 -3.671875 2.53125 -4.015625 C 2.78125 -4.367188 3.175781 -4.710938 3.71875 -5.046875 C 3.050781 -5.316406 2.507812 -5.78125 2.09375 -6.4375 C 1.675781 -7.09375 1.46875 -7.84375 1.46875 -8.6875 C 1.46875 -10.09375 1.890625 -11.175781 2.734375 -11.9375 C 3.578125 -12.695312 4.769531 -13.078125 6.3125 -13.078125 C 6.988281 -13.078125 7.597656 -13 8.140625 -12.84375 Z M 2.328125 2.15625 C 2.328125 2.851562 2.617188 3.378906 3.203125 3.734375 C 3.796875 4.097656 4.640625 4.28125 5.734375 4.28125 C 7.367188 4.28125 8.578125 4.035156 9.359375 3.546875 C 10.140625 3.054688 10.53125 2.394531 10.53125 1.5625 C 10.53125 0.863281 10.316406 0.378906 9.890625 0.109375 C 9.460938 -0.160156 8.65625 -0.296875 7.46875 -0.296875 L 5.140625 -0.296875 C 4.253906 -0.296875 3.5625 -0.0859375 3.0625 0.328125 C 2.570312 0.753906 2.328125 1.363281 2.328125 2.15625 Z M 3.390625 -8.734375 C 3.390625 -7.835938 3.640625 -7.15625 4.140625 -6.6875 C 4.648438 -6.226562 5.359375 -6 6.265625 -6 C 8.171875 -6 9.125 -6.921875 9.125 -8.765625 C 9.125 -10.691406 8.160156 -11.65625 6.234375 -11.65625 C 5.316406 -11.65625 4.613281 -11.410156 4.125 -10.921875 C 3.632812 -10.429688 3.390625 -9.703125 3.390625 -8.734375 Z M 3.390625 -8.734375 "/></g></g><g transform="translate(531.552348, 738.137908)"><g><path d="M 4.015625 0 L 2.0625 0 L 2.0625 -12.84375 L 4.015625 -12.84375 Z M 1.90625 -16.328125 C 1.90625 -16.773438 2.015625 -17.097656 2.234375 -17.296875 C 2.453125 -17.503906 2.722656 -17.609375 3.046875 -17.609375 C 3.359375 -17.609375 3.628906 -17.503906 3.859375 -17.296875 C 4.085938 -17.085938 4.203125 -16.765625 4.203125 -16.328125 C 4.203125 -15.890625 4.085938 -15.5625 3.859375 -15.34375 C 3.628906 -15.132812 3.359375 -15.03125 3.046875 -15.03125 C 2.722656 -15.03125 2.453125 -15.132812 2.234375 -15.34375 C 2.015625 -15.5625 1.90625 -15.890625 1.90625 -16.328125 Z M 1.90625 -16.328125 "/></g></g><g transform="translate(537.62266, 738.137908)"><g><path d="M 10.8125 -1.71875 L 10.703125 -1.71875 C 9.804688 -0.414062 8.460938 0.234375 6.671875 0.234375 C 4.992188 0.234375 3.6875 -0.335938 2.75 -1.484375 C 1.8125 -2.640625 1.34375 -4.273438 1.34375 -6.390625 C 1.34375 -8.503906 1.8125 -10.144531 2.75 -11.3125 C 3.6875 -12.488281 4.992188 -13.078125 6.671875 -13.078125 C 8.410156 -13.078125 9.742188 -12.445312 10.671875 -11.1875 L 10.828125 -11.1875 L 10.75 -12.109375 L 10.703125 -13.015625 L 10.703125 -18.234375 L 12.640625 -18.234375 L 12.640625 0 L 11.0625 0 Z M 6.921875 -1.390625 C 8.242188 -1.390625 9.203125 -1.75 9.796875 -2.46875 C 10.398438 -3.195312 10.703125 -4.367188 10.703125 -5.984375 L 10.703125 -6.390625 C 10.703125 -8.210938 10.398438 -9.507812 9.796875 -10.28125 C 9.191406 -11.0625 8.222656 -11.453125 6.890625 -11.453125 C 5.753906 -11.453125 4.878906 -11.007812 4.265625 -10.125 C 3.660156 -9.238281 3.359375 -7.984375 3.359375 -6.359375 C 3.359375 -4.722656 3.660156 -3.484375 4.265625 -2.640625 C 4.867188 -1.804688 5.753906 -1.390625 6.921875 -1.390625 Z M 6.921875 -1.390625 "/></g></g><g transform="translate(552.329691, 738.137908)"><g><path d="M 13.15625 -6.4375 C 13.15625 -4.34375 12.625 -2.707031 11.5625 -1.53125 C 10.507812 -0.351562 9.054688 0.234375 7.203125 0.234375 C 6.046875 0.234375 5.019531 -0.0351562 4.125 -0.578125 C 3.238281 -1.117188 2.550781 -1.890625 2.0625 -2.890625 C 1.582031 -3.898438 1.34375 -5.082031 1.34375 -6.4375 C 1.34375 -8.53125 1.863281 -10.160156 2.90625 -11.328125 C 3.957031 -12.492188 5.414062 -13.078125 7.28125 -13.078125 C 9.070312 -13.078125 10.5 -12.476562 11.5625 -11.28125 C 12.625 -10.09375 13.15625 -8.476562 13.15625 -6.4375 Z M 3.359375 -6.4375 C 3.359375 -4.789062 3.6875 -3.535156 4.34375 -2.671875 C 5 -1.816406 5.96875 -1.390625 7.25 -1.390625 C 8.519531 -1.390625 9.484375 -1.816406 10.140625 -2.671875 C 10.804688 -3.535156 11.140625 -4.789062 11.140625 -6.4375 C 11.140625 -8.070312 10.804688 -9.3125 10.140625 -10.15625 C 9.484375 -11 8.507812 -11.421875 7.21875 -11.421875 C 5.945312 -11.421875 4.984375 -11.003906 4.328125 -10.171875 C 3.679688 -9.335938 3.359375 -8.09375 3.359375 -6.4375 Z M 3.359375 -6.4375 "/></g></g></g><g fill="#000000" fill-opacity="1"><g transform="translate(390.400014, 773.235559)"><g><path d="M 3.34375 0 L 10.4375 -15.34375 L 1.109375 -15.34375 L 1.109375 -17.140625 L 12.5 -17.140625 L 12.5 -15.578125 L 5.5 0 Z M 3.34375 0 "/></g></g><g transform="translate(404.12267, 773.235559)"><g><path d="M 12.4375 0 L 1.171875 0 L 1.171875 -1.671875 L 5.6875 -6.21875 C 7.0625 -7.601562 7.96875 -8.59375 8.40625 -9.1875 C 8.84375 -9.78125 9.171875 -10.359375 9.390625 -10.921875 C 9.609375 -11.484375 9.71875 -12.085938 9.71875 -12.734375 C 9.71875 -13.648438 9.4375 -14.375 8.875 -14.90625 C 8.320312 -15.445312 7.554688 -15.71875 6.578125 -15.71875 C 5.867188 -15.71875 5.191406 -15.597656 4.546875 -15.359375 C 3.910156 -15.128906 3.203125 -14.707031 2.421875 -14.09375 L 1.390625 -15.40625 C 2.972656 -16.71875 4.691406 -17.375 6.546875 -17.375 C 8.160156 -17.375 9.421875 -16.960938 10.328125 -16.140625 C 11.242188 -15.316406 11.703125 -14.210938 11.703125 -12.828125 C 11.703125 -11.734375 11.394531 -10.65625 10.78125 -9.59375 C 10.175781 -8.53125 9.039062 -7.1875 7.375 -5.5625 L 3.625 -1.90625 L 3.625 -1.8125 L 12.4375 -1.8125 Z M 12.4375 0 "/></g></g><g transform="translate(417.845325, 773.235559)"><g><path d="M 2.84375 -12.03125 C 2.84375 -10.695312 2.984375 -9.695312 3.265625 -9.03125 C 3.554688 -8.375 4.023438 -8.046875 4.671875 -8.046875 C 5.953125 -8.046875 6.59375 -9.375 6.59375 -12.03125 C 6.59375 -14.664062 5.953125 -15.984375 4.671875 -15.984375 C 4.023438 -15.984375 3.554688 -15.65625 3.265625 -15 C 2.984375 -14.34375 2.84375 -13.351562 2.84375 -12.03125 Z M 8.203125 -12.03125 C 8.203125 -10.25 7.898438 -8.898438 7.296875 -7.984375 C 6.703125 -7.078125 5.828125 -6.625 4.671875 -6.625 C 3.578125 -6.625 2.726562 -7.085938 2.125 -8.015625 C 1.519531 -8.941406 1.21875 -10.28125 1.21875 -12.03125 C 1.21875 -13.800781 1.507812 -15.132812 2.09375 -16.03125 C 2.675781 -16.925781 3.535156 -17.375 4.671875 -17.375 C 5.804688 -17.375 6.675781 -16.910156 7.28125 -15.984375 C 7.894531 -15.054688 8.203125 -13.738281 8.203125 -12.03125 Z M 13.15625 -5.15625 C 13.15625 -3.820312 13.296875 -2.820312 13.578125 -2.15625 C 13.867188 -1.5 14.34375 -1.171875 15 -1.171875 C 15.65625 -1.171875 16.140625 -1.492188 16.453125 -2.140625 C 16.765625 -2.796875 16.921875 -3.800781 16.921875 -5.15625 C 16.921875 -6.488281 16.765625 -7.476562 16.453125 -8.125 C 16.140625 -8.769531 15.65625 -9.09375 15 -9.09375 C 14.34375 -9.09375 13.867188 -8.769531 13.578125 -8.125 C 13.296875 -7.476562 13.15625 -6.488281 13.15625 -5.15625 Z M 18.53125 -5.15625 C 18.53125 -3.382812 18.226562 -2.039062 17.625 -1.125 C 17.03125 -0.21875 16.15625 0.234375 15 0.234375 C 13.894531 0.234375 13.039062 -0.226562 12.4375 -1.15625 C 11.84375 -2.09375 11.546875 -3.425781 11.546875 -5.15625 C 11.546875 -6.925781 11.835938 -8.257812 12.421875 -9.15625 C 13.003906 -10.0625 13.863281 -10.515625 15 -10.515625 C 16.113281 -10.515625 16.976562 -10.054688 17.59375 -9.140625 C 18.21875 -8.222656 18.53125 -6.894531 18.53125 -5.15625 Z M 15.5 -17.140625 L 6 0 L 4.28125 0 L 13.78125 -17.140625 Z M 15.5 -17.140625 "/></g></g></g><g fill="#000000" fill-opacity="1"><g transform="translate(966.44686, 195.079338)"><g><path d="M 2.359375 0 L 2.359375 -17.140625 L 4.34375 -17.140625 L 4.34375 0 Z M 2.359375 0 "/></g></g><g transform="translate(973.138266, 195.079338)"><g><path d="M 10.859375 0 L 10.859375 -8.3125 C 10.859375 -9.351562 10.617188 -10.128906 10.140625 -10.640625 C 9.660156 -11.160156 8.914062 -11.421875 7.90625 -11.421875 C 6.5625 -11.421875 5.578125 -11.054688 4.953125 -10.328125 C 4.328125 -9.609375 4.015625 -8.410156 4.015625 -6.734375 L 4.015625 0 L 2.0625 0 L 2.0625 -12.84375 L 3.640625 -12.84375 L 3.96875 -11.09375 L 4.0625 -11.09375 C 4.457031 -11.71875 5.015625 -12.203125 5.734375 -12.546875 C 6.453125 -12.898438 7.253906 -13.078125 8.140625 -13.078125 C 9.679688 -13.078125 10.84375 -12.703125 11.625 -11.953125 C 12.40625 -11.210938 12.796875 -10.019531 12.796875 -8.375 L 12.796875 0 Z M 10.859375 0 "/></g></g><g transform="translate(987.868734, 195.079338)"><g><path d="M 6.21875 -1.375 C 6.5625 -1.375 6.890625 -1.398438 7.203125 -1.453125 C 7.523438 -1.503906 7.78125 -1.554688 7.96875 -1.609375 L 7.96875 -0.125 C 7.757812 -0.0195312 7.445312 0.0625 7.03125 0.125 C 6.625 0.195312 6.257812 0.234375 5.9375 0.234375 C 3.445312 0.234375 2.203125 -1.070312 2.203125 -3.6875 L 2.203125 -11.328125 L 0.359375 -11.328125 L 0.359375 -12.265625 L 2.203125 -13.078125 L 3.03125 -15.828125 L 4.15625 -15.828125 L 4.15625 -12.84375 L 7.875 -12.84375 L 7.875 -11.328125 L 4.15625 -11.328125 L 4.15625 -3.78125 C 4.15625 -3 4.335938 -2.398438 4.703125 -1.984375 C 5.066406 -1.578125 5.570312 -1.375 6.21875 -1.375 Z M 6.21875 -1.375 "/></g></g><g transform="translate(996.34139, 195.079338)"><g><path d="M 7.484375 0.234375 C 5.585938 0.234375 4.085938 -0.34375 2.984375 -1.5 C 1.890625 -2.65625 1.34375 -4.257812 1.34375 -6.3125 C 1.34375 -8.382812 1.851562 -10.03125 2.875 -11.25 C 3.894531 -12.46875 5.265625 -13.078125 6.984375 -13.078125 C 8.597656 -13.078125 9.875 -12.546875 10.8125 -11.484375 C 11.75 -10.429688 12.21875 -9.035156 12.21875 -7.296875 L 12.21875 -6.078125 L 3.359375 -6.078125 C 3.398438 -4.566406 3.78125 -3.421875 4.5 -2.640625 C 5.226562 -1.859375 6.25 -1.46875 7.5625 -1.46875 C 8.945312 -1.46875 10.3125 -1.753906 11.65625 -2.328125 L 11.65625 -0.59375 C 10.96875 -0.300781 10.316406 -0.09375 9.703125 0.03125 C 9.097656 0.164062 8.359375 0.234375 7.484375 0.234375 Z M 6.96875 -11.453125 C 5.9375 -11.453125 5.113281 -11.113281 4.5 -10.4375 C 3.882812 -9.769531 3.519531 -8.84375 3.40625 -7.65625 L 10.125 -7.65625 C 10.125 -8.882812 9.847656 -9.820312 9.296875 -10.46875 C 8.753906 -11.125 7.976562 -11.453125 6.96875 -11.453125 Z M 6.96875 -11.453125 "/></g></g><g transform="translate(1009.806233, 195.079338)"><g><path d="M 7.921875 -13.078125 C 8.492188 -13.078125 9.003906 -13.03125 9.453125 -12.9375 L 9.1875 -11.140625 C 8.65625 -11.253906 8.1875 -11.3125 7.78125 -11.3125 C 6.738281 -11.3125 5.847656 -10.890625 5.109375 -10.046875 C 4.378906 -9.203125 4.015625 -8.148438 4.015625 -6.890625 L 4.015625 0 L 2.0625 0 L 2.0625 -12.84375 L 3.671875 -12.84375 L 3.890625 -10.46875 L 3.984375 -10.46875 C 4.460938 -11.300781 5.035156 -11.941406 5.703125 -12.390625 C 6.378906 -12.847656 7.117188 -13.078125 7.921875 -13.078125 Z M 7.921875 -13.078125 "/></g></g><g transform="translate(1019.603107, 195.079338)"><g><path d="M 7.484375 0.234375 C 5.585938 0.234375 4.085938 -0.34375 2.984375 -1.5 C 1.890625 -2.65625 1.34375 -4.257812 1.34375 -6.3125 C 1.34375 -8.382812 1.851562 -10.03125 2.875 -11.25 C 3.894531 -12.46875 5.265625 -13.078125 6.984375 -13.078125 C 8.597656 -13.078125 9.875 -12.546875 10.8125 -11.484375 C 11.75 -10.429688 12.21875 -9.035156 12.21875 -7.296875 L 12.21875 -6.078125 L 3.359375 -6.078125 C 3.398438 -4.566406 3.78125 -3.421875 4.5 -2.640625 C 5.226562 -1.859375 6.25 -1.46875 7.5625 -1.46875 C 8.945312 -1.46875 10.3125 -1.753906 11.65625 -2.328125 L 11.65625 -0.59375 C 10.96875 -0.300781 10.316406 -0.09375 9.703125 0.03125 C 9.097656 0.164062 8.359375 0.234375 7.484375 0.234375 Z M 6.96875 -11.453125 C 5.9375 -11.453125 5.113281 -11.113281 4.5 -10.4375 C 3.882812 -9.769531 3.519531 -8.84375 3.40625 -7.65625 L 10.125 -7.65625 C 10.125 -8.882812 9.847656 -9.820312 9.296875 -10.46875 C 8.753906 -11.125 7.976562 -11.453125 6.96875 -11.453125 Z M 5.53125 -14.84375 C 5.90625 -15.320312 6.304688 -15.90625 6.734375 -16.59375 C 7.171875 -17.28125 7.515625 -17.878906 7.765625 -18.390625 L 10.140625 -18.390625 L 10.140625 -18.140625 C 9.796875 -17.628906 9.28125 -17.003906 8.59375 -16.265625 C 7.914062 -15.523438 7.328125 -14.953125 6.828125 -14.546875 L 5.53125 -14.546875 Z M 5.53125 -14.84375 "/></g></g><g transform="translate(1033.067951, 195.079338)"><g><path d="M 10.34375 -3.5 C 10.34375 -2.3125 9.894531 -1.390625 9 -0.734375 C 8.113281 -0.0859375 6.867188 0.234375 5.265625 0.234375 C 3.554688 0.234375 2.226562 -0.0351562 1.28125 -0.578125 L 1.28125 -2.375 C 1.894531 -2.0625 2.554688 -1.816406 3.265625 -1.640625 C 3.972656 -1.460938 4.65625 -1.375 5.3125 -1.375 C 6.320312 -1.375 7.097656 -1.535156 7.640625 -1.859375 C 8.191406 -2.179688 8.46875 -2.675781 8.46875 -3.34375 C 8.46875 -3.84375 8.25 -4.269531 7.8125 -4.625 C 7.382812 -4.976562 6.539062 -5.398438 5.28125 -5.890625 C 4.09375 -6.328125 3.242188 -6.710938 2.734375 -7.046875 C 2.234375 -7.378906 1.859375 -7.753906 1.609375 -8.171875 C 1.367188 -8.597656 1.25 -9.101562 1.25 -9.6875 C 1.25 -10.738281 1.671875 -11.566406 2.515625 -12.171875 C 3.367188 -12.773438 4.539062 -13.078125 6.03125 -13.078125 C 7.40625 -13.078125 8.753906 -12.796875 10.078125 -12.234375 L 9.390625 -10.65625 C 8.097656 -11.1875 6.929688 -11.453125 5.890625 -11.453125 C 4.960938 -11.453125 4.265625 -11.304688 3.796875 -11.015625 C 3.328125 -10.722656 3.09375 -10.328125 3.09375 -9.828125 C 3.09375 -9.484375 3.179688 -9.1875 3.359375 -8.9375 C 3.535156 -8.695312 3.816406 -8.46875 4.203125 -8.25 C 4.597656 -8.03125 5.347656 -7.710938 6.453125 -7.296875 C 7.984375 -6.742188 9.015625 -6.1875 9.546875 -5.625 C 10.078125 -5.0625 10.34375 -4.351562 10.34375 -3.5 Z M 10.34375 -3.5 "/></g></g><g transform="translate(1044.517169, 195.079338)"><g/></g><g transform="translate(1050.751544, 195.079338)"><g><path d="M 7.921875 -13.078125 C 8.492188 -13.078125 9.003906 -13.03125 9.453125 -12.9375 L 9.1875 -11.140625 C 8.65625 -11.253906 8.1875 -11.3125 7.78125 -11.3125 C 6.738281 -11.3125 5.847656 -10.890625 5.109375 -10.046875 C 4.378906 -9.203125 4.015625 -8.148438 4.015625 -6.890625 L 4.015625 0 L 2.0625 0 L 2.0625 -12.84375 L 3.671875 -12.84375 L 3.890625 -10.46875 L 3.984375 -10.46875 C 4.460938 -11.300781 5.035156 -11.941406 5.703125 -12.390625 C 6.378906 -12.847656 7.117188 -13.078125 7.921875 -13.078125 Z M 7.921875 -13.078125 "/></g></g><g transform="translate(1060.548418, 195.079338)"><g><path d="M 7.484375 0.234375 C 5.585938 0.234375 4.085938 -0.34375 2.984375 -1.5 C 1.890625 -2.65625 1.34375 -4.257812 1.34375 -6.3125 C 1.34375 -8.382812 1.851562 -10.03125 2.875 -11.25 C 3.894531 -12.46875 5.265625 -13.078125 6.984375 -13.078125 C 8.597656 -13.078125 9.875 -12.546875 10.8125 -11.484375 C 11.75 -10.429688 12.21875 -9.035156 12.21875 -7.296875 L 12.21875 -6.078125 L 3.359375 -6.078125 C 3.398438 -4.566406 3.78125 -3.421875 4.5 -2.640625 C 5.226562 -1.859375 6.25 -1.46875 7.5625 -1.46875 C 8.945312 -1.46875 10.3125 -1.753906 11.65625 -2.328125 L 11.65625 -0.59375 C 10.96875 -0.300781 10.316406 -0.09375 9.703125 0.03125 C 9.097656 0.164062 8.359375 0.234375 7.484375 0.234375 Z M 6.96875 -11.453125 C 5.9375 -11.453125 5.113281 -11.113281 4.5 -10.4375 C 3.882812 -9.769531 3.519531 -8.84375 3.40625 -7.65625 L 10.125 -7.65625 C 10.125 -8.882812 9.847656 -9.820312 9.296875 -10.46875 C 8.753906 -11.125 7.976562 -11.453125 6.96875 -11.453125 Z M 6.96875 -11.453125 "/></g></g><g transform="translate(1074.013261, 195.079338)"><g><path d="M 10.34375 -3.5 C 10.34375 -2.3125 9.894531 -1.390625 9 -0.734375 C 8.113281 -0.0859375 6.867188 0.234375 5.265625 0.234375 C 3.554688 0.234375 2.226562 -0.0351562 1.28125 -0.578125 L 1.28125 -2.375 C 1.894531 -2.0625 2.554688 -1.816406 3.265625 -1.640625 C 3.972656 -1.460938 4.65625 -1.375 5.3125 -1.375 C 6.320312 -1.375 7.097656 -1.535156 7.640625 -1.859375 C 8.191406 -2.179688 8.46875 -2.675781 8.46875 -3.34375 C 8.46875 -3.84375 8.25 -4.269531 7.8125 -4.625 C 7.382812 -4.976562 6.539062 -5.398438 5.28125 -5.890625 C 4.09375 -6.328125 3.242188 -6.710938 2.734375 -7.046875 C 2.234375 -7.378906 1.859375 -7.753906 1.609375 -8.171875 C 1.367188 -8.597656 1.25 -9.101562 1.25 -9.6875 C 1.25 -10.738281 1.671875 -11.566406 2.515625 -12.171875 C 3.367188 -12.773438 4.539062 -13.078125 6.03125 -13.078125 C 7.40625 -13.078125 8.753906 -12.796875 10.078125 -12.234375 L 9.390625 -10.65625 C 8.097656 -11.1875 6.929688 -11.453125 5.890625 -11.453125 C 4.960938 -11.453125 4.265625 -11.304688 3.796875 -11.015625 C 3.328125 -10.722656 3.09375 -10.328125 3.09375 -9.828125 C 3.09375 -9.484375 3.179688 -9.1875 3.359375 -8.9375 C 3.535156 -8.695312 3.816406 -8.46875 4.203125 -8.25 C 4.597656 -8.03125 5.347656 -7.710938 6.453125 -7.296875 C 7.984375 -6.742188 9.015625 -6.1875 9.546875 -5.625 C 10.078125 -5.0625 10.34375 -4.351562 10.34375 -3.5 Z M 10.34375 -3.5 "/></g></g><g transform="translate(1085.462479, 195.079338)"><g><path d="M 6.21875 -1.375 C 6.5625 -1.375 6.890625 -1.398438 7.203125 -1.453125 C 7.523438 -1.503906 7.78125 -1.554688 7.96875 -1.609375 L 7.96875 -0.125 C 7.757812 -0.0195312 7.445312 0.0625 7.03125 0.125 C 6.625 0.195312 6.257812 0.234375 5.9375 0.234375 C 3.445312 0.234375 2.203125 -1.070312 2.203125 -3.6875 L 2.203125 -11.328125 L 0.359375 -11.328125 L 0.359375 -12.265625 L 2.203125 -13.078125 L 3.03125 -15.828125 L 4.15625 -15.828125 L 4.15625 -12.84375 L 7.875 -12.84375 L 7.875 -11.328125 L 4.15625 -11.328125 L 4.15625 -3.78125 C 4.15625 -3 4.335938 -2.398438 4.703125 -1.984375 C 5.066406 -1.578125 5.570312 -1.375 6.21875 -1.375 Z M 6.21875 -1.375 "/></g></g><g transform="translate(1093.935135, 195.079338)"><g><path d="M 7.921875 -13.078125 C 8.492188 -13.078125 9.003906 -13.03125 9.453125 -12.9375 L 9.1875 -11.140625 C 8.65625 -11.253906 8.1875 -11.3125 7.78125 -11.3125 C 6.738281 -11.3125 5.847656 -10.890625 5.109375 -10.046875 C 4.378906 -9.203125 4.015625 -8.148438 4.015625 -6.890625 L 4.015625 0 L 2.0625 0 L 2.0625 -12.84375 L 3.671875 -12.84375 L 3.890625 -10.46875 L 3.984375 -10.46875 C 4.460938 -11.300781 5.035156 -11.941406 5.703125 -12.390625 C 6.378906 -12.847656 7.117188 -13.078125 7.921875 -13.078125 Z M 7.921875 -13.078125 "/></g></g><g transform="translate(1103.73201, 195.079338)"><g><path d="M 4.015625 0 L 2.0625 0 L 2.0625 -12.84375 L 4.015625 -12.84375 Z M 1.90625 -16.328125 C 1.90625 -16.773438 2.015625 -17.097656 2.234375 -17.296875 C 2.453125 -17.503906 2.722656 -17.609375 3.046875 -17.609375 C 3.359375 -17.609375 3.628906 -17.503906 3.859375 -17.296875 C 4.085938 -17.085938 4.203125 -16.765625 4.203125 -16.328125 C 4.203125 -15.890625 4.085938 -15.5625 3.859375 -15.34375 C 3.628906 -15.132812 3.359375 -15.03125 3.046875 -15.03125 C 2.722656 -15.03125 2.453125 -15.132812 2.234375 -15.34375 C 2.015625 -15.5625 1.90625 -15.890625 1.90625 -16.328125 Z M 1.90625 -16.328125 "/></g></g><g transform="translate(1109.802322, 195.079338)"><g><path d="M 10.859375 0 L 10.859375 -8.3125 C 10.859375 -9.351562 10.617188 -10.128906 10.140625 -10.640625 C 9.660156 -11.160156 8.914062 -11.421875 7.90625 -11.421875 C 6.5625 -11.421875 5.578125 -11.054688 4.953125 -10.328125 C 4.328125 -9.609375 4.015625 -8.410156 4.015625 -6.734375 L 4.015625 0 L 2.0625 0 L 2.0625 -12.84375 L 3.640625 -12.84375 L 3.96875 -11.09375 L 4.0625 -11.09375 C 4.457031 -11.71875 5.015625 -12.203125 5.734375 -12.546875 C 6.453125 -12.898438 7.253906 -13.078125 8.140625 -13.078125 C 9.679688 -13.078125 10.84375 -12.703125 11.625 -11.953125 C 12.40625 -11.210938 12.796875 -10.019531 12.796875 -8.375 L 12.796875 0 Z M 10.859375 0 "/></g></g><g transform="translate(1124.53279, 195.079338)"><g><path d="M 12.578125 -12.84375 L 12.578125 -11.609375 L 10.203125 -11.328125 C 10.421875 -11.054688 10.613281 -10.695312 10.78125 -10.25 C 10.957031 -9.8125 11.046875 -9.316406 11.046875 -8.765625 C 11.046875 -7.503906 10.613281 -6.5 9.75 -5.75 C 8.894531 -5 7.71875 -4.625 6.21875 -4.625 C 5.832031 -4.625 5.472656 -4.65625 5.140625 -4.71875 C 4.304688 -4.28125 3.890625 -3.734375 3.890625 -3.078125 C 3.890625 -2.722656 4.035156 -2.460938 4.328125 -2.296875 C 4.617188 -2.128906 5.113281 -2.046875 5.8125 -2.046875 L 8.09375 -2.046875 C 9.476562 -2.046875 10.539062 -1.75 11.28125 -1.15625 C 12.03125 -0.570312 12.40625 0.273438 12.40625 1.390625 C 12.40625 2.816406 11.832031 3.898438 10.6875 4.640625 C 9.550781 5.390625 7.890625 5.765625 5.703125 5.765625 C 4.023438 5.765625 2.726562 5.453125 1.8125 4.828125 C 0.90625 4.203125 0.453125 3.320312 0.453125 2.1875 C 0.453125 1.40625 0.703125 0.726562 1.203125 0.15625 C 1.703125 -0.414062 2.40625 -0.804688 3.3125 -1.015625 C 2.988281 -1.160156 2.710938 -1.390625 2.484375 -1.703125 C 2.265625 -2.015625 2.15625 -2.378906 2.15625 -2.796875 C 2.15625 -3.265625 2.28125 -3.671875 2.53125 -4.015625 C 2.78125 -4.367188 3.175781 -4.710938 3.71875 -5.046875 C 3.050781 -5.316406 2.507812 -5.78125 2.09375 -6.4375 C 1.675781 -7.09375 1.46875 -7.84375 1.46875 -8.6875 C 1.46875 -10.09375 1.890625 -11.175781 2.734375 -11.9375 C 3.578125 -12.695312 4.769531 -13.078125 6.3125 -13.078125 C 6.988281 -13.078125 7.597656 -13 8.140625 -12.84375 Z M 2.328125 2.15625 C 2.328125 2.851562 2.617188 3.378906 3.203125 3.734375 C 3.796875 4.097656 4.640625 4.28125 5.734375 4.28125 C 7.367188 4.28125 8.578125 4.035156 9.359375 3.546875 C 10.140625 3.054688 10.53125 2.394531 10.53125 1.5625 C 10.53125 0.863281 10.316406 0.378906 9.890625 0.109375 C 9.460938 -0.160156 8.65625 -0.296875 7.46875 -0.296875 L 5.140625 -0.296875 C 4.253906 -0.296875 3.5625 -0.0859375 3.0625 0.328125 C 2.570312 0.753906 2.328125 1.363281 2.328125 2.15625 Z M 3.390625 -8.734375 C 3.390625 -7.835938 3.640625 -7.15625 4.140625 -6.6875 C 4.648438 -6.226562 5.359375 -6 6.265625 -6 C 8.171875 -6 9.125 -6.921875 9.125 -8.765625 C 9.125 -10.691406 8.160156 -11.65625 6.234375 -11.65625 C 5.316406 -11.65625 4.613281 -11.410156 4.125 -10.921875 C 3.632812 -10.429688 3.390625 -9.703125 3.390625 -8.734375 Z M 3.390625 -8.734375 "/></g></g><g transform="translate(1137.681227, 195.079338)"><g><path d="M 4.015625 0 L 2.0625 0 L 2.0625 -12.84375 L 4.015625 -12.84375 Z M 1.90625 -16.328125 C 1.90625 -16.773438 2.015625 -17.097656 2.234375 -17.296875 C 2.453125 -17.503906 2.722656 -17.609375 3.046875 -17.609375 C 3.359375 -17.609375 3.628906 -17.503906 3.859375 -17.296875 C 4.085938 -17.085938 4.203125 -16.765625 4.203125 -16.328125 C 4.203125 -15.890625 4.085938 -15.5625 3.859375 -15.34375 C 3.628906 -15.132812 3.359375 -15.03125 3.046875 -15.03125 C 2.722656 -15.03125 2.453125 -15.132812 2.234375 -15.34375 C 2.015625 -15.5625 1.90625 -15.890625 1.90625 -16.328125 Z M 1.90625 -16.328125 "/></g></g><g transform="translate(1143.751539, 195.079338)"><g><path d="M 10.8125 -1.71875 L 10.703125 -1.71875 C 9.804688 -0.414062 8.460938 0.234375 6.671875 0.234375 C 4.992188 0.234375 3.6875 -0.335938 2.75 -1.484375 C 1.8125 -2.640625 1.34375 -4.273438 1.34375 -6.390625 C 1.34375 -8.503906 1.8125 -10.144531 2.75 -11.3125 C 3.6875 -12.488281 4.992188 -13.078125 6.671875 -13.078125 C 8.410156 -13.078125 9.742188 -12.445312 10.671875 -11.1875 L 10.828125 -11.1875 L 10.75 -12.109375 L 10.703125 -13.015625 L 10.703125 -18.234375 L 12.640625 -18.234375 L 12.640625 0 L 11.0625 0 Z M 6.921875 -1.390625 C 8.242188 -1.390625 9.203125 -1.75 9.796875 -2.46875 C 10.398438 -3.195312 10.703125 -4.367188 10.703125 -5.984375 L 10.703125 -6.390625 C 10.703125 -8.210938 10.398438 -9.507812 9.796875 -10.28125 C 9.191406 -11.0625 8.222656 -11.453125 6.890625 -11.453125 C 5.753906 -11.453125 4.878906 -11.007812 4.265625 -10.125 C 3.660156 -9.238281 3.359375 -7.984375 3.359375 -6.359375 C 3.359375 -4.722656 3.660156 -3.484375 4.265625 -2.640625 C 4.867188 -1.804688 5.753906 -1.390625 6.921875 -1.390625 Z M 6.921875 -1.390625 "/></g></g><g transform="translate(1158.45857, 195.079338)"><g><path d="M 13.15625 -6.4375 C 13.15625 -4.34375 12.625 -2.707031 11.5625 -1.53125 C 10.507812 -0.351562 9.054688 0.234375 7.203125 0.234375 C 6.046875 0.234375 5.019531 -0.0351562 4.125 -0.578125 C 3.238281 -1.117188 2.550781 -1.890625 2.0625 -2.890625 C 1.582031 -3.898438 1.34375 -5.082031 1.34375 -6.4375 C 1.34375 -8.53125 1.863281 -10.160156 2.90625 -11.328125 C 3.957031 -12.492188 5.414062 -13.078125 7.28125 -13.078125 C 9.070312 -13.078125 10.5 -12.476562 11.5625 -11.28125 C 12.625 -10.09375 13.15625 -8.476562 13.15625 -6.4375 Z M 3.359375 -6.4375 C 3.359375 -4.789062 3.6875 -3.535156 4.34375 -2.671875 C 5 -1.816406 5.96875 -1.390625 7.25 -1.390625 C 8.519531 -1.390625 9.484375 -1.816406 10.140625 -2.671875 C 10.804688 -3.535156 11.140625 -4.789062 11.140625 -6.4375 C 11.140625 -8.070312 10.804688 -9.3125 10.140625 -10.15625 C 9.484375 -11 8.507812 -11.421875 7.21875 -11.421875 C 5.945312 -11.421875 4.984375 -11.003906 4.328125 -10.171875 C 3.679688 -9.335938 3.359375 -8.09375 3.359375 -6.4375 Z M 3.359375 -6.4375 "/></g></g></g><g fill="#000000" fill-opacity="1"><g transform="translate(1046.849204, 230.176988)"><g><path d="M 12.4375 0 L 1.171875 0 L 1.171875 -1.671875 L 5.6875 -6.21875 C 7.0625 -7.601562 7.96875 -8.59375 8.40625 -9.1875 C 8.84375 -9.78125 9.171875 -10.359375 9.390625 -10.921875 C 9.609375 -11.484375 9.71875 -12.085938 9.71875 -12.734375 C 9.71875 -13.648438 9.4375 -14.375 8.875 -14.90625 C 8.320312 -15.445312 7.554688 -15.71875 6.578125 -15.71875 C 5.867188 -15.71875 5.191406 -15.597656 4.546875 -15.359375 C 3.910156 -15.128906 3.203125 -14.707031 2.421875 -14.09375 L 1.390625 -15.40625 C 2.972656 -16.71875 4.691406 -17.375 6.546875 -17.375 C 8.160156 -17.375 9.421875 -16.960938 10.328125 -16.140625 C 11.242188 -15.316406 11.703125 -14.210938 11.703125 -12.828125 C 11.703125 -11.734375 11.394531 -10.65625 10.78125 -9.59375 C 10.175781 -8.53125 9.039062 -7.1875 7.375 -5.5625 L 3.625 -1.90625 L 3.625 -1.8125 L 12.4375 -1.8125 Z M 12.4375 0 "/></g></g><g transform="translate(1060.571859, 230.176988)"><g><path d="M 6.84375 -17.375 C 8.40625 -17.375 9.644531 -17.007812 10.5625 -16.28125 C 11.476562 -15.5625 11.9375 -14.5625 11.9375 -13.28125 C 11.9375 -12.4375 11.671875 -11.664062 11.140625 -10.96875 C 10.617188 -10.269531 9.785156 -9.640625 8.640625 -9.078125 C 10.023438 -8.410156 11.007812 -7.710938 11.59375 -6.984375 C 12.1875 -6.253906 12.484375 -5.40625 12.484375 -4.4375 C 12.484375 -3.019531 11.984375 -1.882812 10.984375 -1.03125 C 9.992188 -0.1875 8.640625 0.234375 6.921875 0.234375 C 5.085938 0.234375 3.675781 -0.164062 2.6875 -0.96875 C 1.707031 -1.769531 1.21875 -2.90625 1.21875 -4.375 C 1.21875 -6.332031 2.414062 -7.859375 4.8125 -8.953125 C 3.726562 -9.566406 2.953125 -10.222656 2.484375 -10.921875 C 2.015625 -11.628906 1.78125 -12.421875 1.78125 -13.296875 C 1.78125 -14.546875 2.238281 -15.535156 3.15625 -16.265625 C 4.070312 -17.003906 5.300781 -17.375 6.84375 -17.375 Z M 3.140625 -4.328125 C 3.140625 -3.390625 3.460938 -2.65625 4.109375 -2.125 C 4.765625 -1.601562 5.6875 -1.34375 6.875 -1.34375 C 8.03125 -1.34375 8.929688 -1.613281 9.578125 -2.15625 C 10.234375 -2.707031 10.5625 -3.460938 10.5625 -4.421875 C 10.5625 -5.179688 10.253906 -5.851562 9.640625 -6.4375 C 9.035156 -7.03125 7.972656 -7.601562 6.453125 -8.15625 C 5.296875 -7.65625 4.453125 -7.101562 3.921875 -6.5 C 3.398438 -5.894531 3.140625 -5.171875 3.140625 -4.328125 Z M 6.828125 -15.796875 C 5.847656 -15.796875 5.078125 -15.5625 4.515625 -15.09375 C 3.960938 -14.625 3.6875 -14 3.6875 -13.21875 C 3.6875 -12.5 3.914062 -11.878906 4.375 -11.359375 C 4.84375 -10.847656 5.695312 -10.335938 6.9375 -9.828125 C 8.050781 -10.296875 8.84375 -10.796875 9.3125 -11.328125 C 9.78125 -11.867188 10.015625 -12.5 10.015625 -13.21875 C 10.015625 -14.007812 9.726562 -14.632812 9.15625 -15.09375 C 8.59375 -15.5625 7.816406 -15.796875 6.828125 -15.796875 Z M 6.828125 -15.796875 "/></g></g><g transform="translate(1074.294514, 230.176988)"><g><path d="M 2.84375 -12.03125 C 2.84375 -10.695312 2.984375 -9.695312 3.265625 -9.03125 C 3.554688 -8.375 4.023438 -8.046875 4.671875 -8.046875 C 5.953125 -8.046875 6.59375 -9.375 6.59375 -12.03125 C 6.59375 -14.664062 5.953125 -15.984375 4.671875 -15.984375 C 4.023438 -15.984375 3.554688 -15.65625 3.265625 -15 C 2.984375 -14.34375 2.84375 -13.351562 2.84375 -12.03125 Z M 8.203125 -12.03125 C 8.203125 -10.25 7.898438 -8.898438 7.296875 -7.984375 C 6.703125 -7.078125 5.828125 -6.625 4.671875 -6.625 C 3.578125 -6.625 2.726562 -7.085938 2.125 -8.015625 C 1.519531 -8.941406 1.21875 -10.28125 1.21875 -12.03125 C 1.21875 -13.800781 1.507812 -15.132812 2.09375 -16.03125 C 2.675781 -16.925781 3.535156 -17.375 4.671875 -17.375 C 5.804688 -17.375 6.675781 -16.910156 7.28125 -15.984375 C 7.894531 -15.054688 8.203125 -13.738281 8.203125 -12.03125 Z M 13.15625 -5.15625 C 13.15625 -3.820312 13.296875 -2.820312 13.578125 -2.15625 C 13.867188 -1.5 14.34375 -1.171875 15 -1.171875 C 15.65625 -1.171875 16.140625 -1.492188 16.453125 -2.140625 C 16.765625 -2.796875 16.921875 -3.800781 16.921875 -5.15625 C 16.921875 -6.488281 16.765625 -7.476562 16.453125 -8.125 C 16.140625 -8.769531 15.65625 -9.09375 15 -9.09375 C 14.34375 -9.09375 13.867188 -8.769531 13.578125 -8.125 C 13.296875 -7.476562 13.15625 -6.488281 13.15625 -5.15625 Z M 18.53125 -5.15625 C 18.53125 -3.382812 18.226562 -2.039062 17.625 -1.125 C 17.03125 -0.21875 16.15625 0.234375 15 0.234375 C 13.894531 0.234375 13.039062 -0.226562 12.4375 -1.15625 C 11.84375 -2.09375 11.546875 -3.425781 11.546875 -5.15625 C 11.546875 -6.925781 11.835938 -8.257812 12.421875 -9.15625 C 13.003906 -10.0625 13.863281 -10.515625 15 -10.515625 C 16.113281 -10.515625 16.976562 -10.054688 17.59375 -9.140625 C 18.21875 -8.222656 18.53125 -6.894531 18.53125 -5.15625 Z M 15.5 -17.140625 L 6 0 L 4.28125 0 L 13.78125 -17.140625 Z M 15.5 -17.140625 "/></g></g></g></svg>