<svg xmlns="http://www.w3.org/2000/svg" xmlns:xlink="http://www.w3.org/1999/xlink" width="1920" zoomAndPan="magnify" viewBox="0 0 1440 809.999993" height="1080" preserveAspectRatio="xMidYMid meet" version="1.0"><defs><g/></defs><rect x="-144" width="1728" fill="#ffffff" y="-80.999999" height="971.999992" fill-opacity="1"/><rect x="-144" width="1728" fill="#ffffff" y="-80.999999" height="971.999992" fill-opacity="1"/><g fill="#ff83b7" fill-opacity="1"><g transform="translate(526.910682, 103.342704)"><g><path d="M 44.046875 0 L 33.125 0 L 14.875 -27.640625 L 14.875 0 L 3.953125 0 L 3.953125 -44.8125 L 14.875 -44.8125 L 33.125 -17.046875 L 33.125 -44.8125 L 44.046875 -44.8125 Z M 44.046875 0 "/></g></g></g><g fill="#ff83b7" fill-opacity="1"><g transform="translate(574.909884, 103.342704)"><g><path d="M 37.53125 -18.375 C 37.53125 -17.351562 37.46875 -16.289062 37.34375 -15.1875 L 12.640625 -15.1875 C 12.804688 -12.976562 13.515625 -11.285156 14.765625 -10.109375 C 16.023438 -8.941406 17.570312 -8.359375 19.40625 -8.359375 C 22.125 -8.359375 24.015625 -9.507812 25.078125 -11.8125 L 36.703125 -11.8125 C 36.109375 -9.46875 35.03125 -7.359375 33.46875 -5.484375 C 31.914062 -3.617188 29.96875 -2.148438 27.625 -1.078125 C 25.289062 -0.015625 22.675781 0.515625 19.78125 0.515625 C 16.289062 0.515625 13.1875 -0.226562 10.46875 -1.71875 C 7.75 -3.207031 5.617188 -5.332031 4.078125 -8.09375 C 2.546875 -10.863281 1.78125 -14.101562 1.78125 -17.8125 C 1.78125 -21.507812 2.535156 -24.738281 4.046875 -27.5 C 5.554688 -30.269531 7.671875 -32.398438 10.390625 -33.890625 C 13.117188 -35.378906 16.25 -36.125 19.78125 -36.125 C 23.226562 -36.125 26.289062 -35.398438 28.96875 -33.953125 C 31.65625 -32.503906 33.753906 -30.441406 35.265625 -27.765625 C 36.773438 -25.085938 37.53125 -21.957031 37.53125 -18.375 Z M 26.359375 -21.25 C 26.359375 -23.125 25.71875 -24.613281 24.4375 -25.71875 C 23.164062 -26.820312 21.570312 -27.375 19.65625 -27.375 C 17.832031 -27.375 16.289062 -26.84375 15.03125 -25.78125 C 13.78125 -24.71875 13.003906 -23.207031 12.703125 -21.25 Z M 26.359375 -21.25 "/></g></g></g><g fill="#ff83b7" fill-opacity="1"><g transform="translate(614.228382, 103.342704)"><g><path d="M 39.125 -35.609375 L 39.125 0 L 28.21875 0 L 28.21875 -4.84375 C 27.101562 -3.269531 25.597656 -2.003906 23.703125 -1.046875 C 21.816406 -0.0859375 19.722656 0.390625 17.421875 0.390625 C 14.703125 0.390625 12.296875 -0.210938 10.203125 -1.421875 C 8.117188 -2.640625 6.503906 -4.398438 5.359375 -6.703125 C 4.210938 -9.003906 3.640625 -11.707031 3.640625 -14.8125 L 3.640625 -35.609375 L 14.484375 -35.609375 L 14.484375 -16.28125 C 14.484375 -13.894531 15.097656 -12.039062 16.328125 -10.71875 C 17.566406 -9.40625 19.226562 -8.75 21.3125 -8.75 C 23.445312 -8.75 25.128906 -9.40625 26.359375 -10.71875 C 27.597656 -12.039062 28.21875 -13.894531 28.21875 -16.28125 L 28.21875 -35.609375 Z M 39.125 -35.609375 "/></g></g></g><g fill="#ff83b7" fill-opacity="1"><g transform="translate(657.248946, 103.342704)"><g><path d="M 14.875 -29.6875 C 16.144531 -31.632812 17.738281 -33.171875 19.65625 -34.296875 C 21.570312 -35.429688 23.703125 -36 26.046875 -36 L 26.046875 -24.453125 L 23.046875 -24.453125 C 20.316406 -24.453125 18.269531 -23.863281 16.90625 -22.6875 C 15.550781 -21.519531 14.875 -19.46875 14.875 -16.53125 L 14.875 0 L 3.953125 0 L 3.953125 -35.609375 L 14.875 -35.609375 Z M 14.875 -29.6875 "/></g></g></g><g fill="#ff83b7" fill-opacity="1"><g transform="translate(684.567635, 103.342704)"><g><path d="M 20.171875 0.515625 C 16.679688 0.515625 13.539062 -0.226562 10.75 -1.71875 C 7.96875 -3.207031 5.773438 -5.332031 4.171875 -8.09375 C 2.578125 -10.863281 1.78125 -14.101562 1.78125 -17.8125 C 1.78125 -21.46875 2.585938 -24.6875 4.203125 -27.46875 C 5.828125 -30.257812 8.039062 -32.398438 10.84375 -33.890625 C 13.65625 -35.378906 16.804688 -36.125 20.296875 -36.125 C 23.785156 -36.125 26.929688 -35.378906 29.734375 -33.890625 C 32.546875 -32.398438 34.757812 -30.257812 36.375 -27.46875 C 38 -24.6875 38.8125 -21.46875 38.8125 -17.8125 C 38.8125 -14.144531 37.988281 -10.914062 36.34375 -8.125 C 34.707031 -5.34375 32.472656 -3.207031 29.640625 -1.71875 C 26.816406 -0.226562 23.660156 0.515625 20.171875 0.515625 Z M 20.171875 -8.9375 C 22.253906 -8.9375 24.03125 -9.703125 25.5 -11.234375 C 26.96875 -12.765625 27.703125 -14.957031 27.703125 -17.8125 C 27.703125 -20.65625 26.988281 -22.84375 25.5625 -24.375 C 24.132812 -25.914062 22.378906 -26.6875 20.296875 -26.6875 C 18.171875 -26.6875 16.40625 -25.925781 15 -24.40625 C 13.59375 -22.894531 12.890625 -20.695312 12.890625 -17.8125 C 12.890625 -14.957031 13.582031 -12.765625 14.96875 -11.234375 C 16.351562 -9.703125 18.085938 -8.9375 20.171875 -8.9375 Z M 20.171875 -8.9375 "/></g></g></g><g fill="#ff83b7" fill-opacity="1"><g transform="translate(725.22654, 103.342704)"><g><path d="M 23.8125 -9.25 L 23.8125 0 L 18.25 0 C 14.289062 0 11.207031 -0.96875 9 -2.90625 C 6.789062 -4.84375 5.6875 -8 5.6875 -12.375 L 5.6875 -26.546875 L 1.34375 -26.546875 L 1.34375 -35.609375 L 5.6875 -35.609375 L 5.6875 -44.296875 L 16.59375 -44.296875 L 16.59375 -35.609375 L 23.75 -35.609375 L 23.75 -26.546875 L 16.59375 -26.546875 L 16.59375 -12.25 C 16.59375 -11.1875 16.847656 -10.421875 17.359375 -9.953125 C 17.867188 -9.484375 18.722656 -9.25 19.921875 -9.25 Z M 23.8125 -9.25 "/></g></g></g><g fill="#ff83b7" fill-opacity="1"><g transform="translate(751.141011, 103.342704)"><g><path d="M 15.703125 -35.609375 L 15.703125 0 L 4.78125 0 L 4.78125 -35.609375 Z M 17.671875 -44.484375 L 2.296875 -38.046875 L 2.296875 -45.578125 L 17.671875 -52.984375 Z M 17.671875 -44.484375 "/></g></g></g><g fill="#ff83b7" fill-opacity="1"><g transform="translate(771.630029, 103.342704)"><g><path d="M 14.875 -30.578125 C 15.9375 -32.234375 17.398438 -33.570312 19.265625 -34.59375 C 21.140625 -35.613281 23.332031 -36.125 25.84375 -36.125 C 28.78125 -36.125 31.441406 -35.378906 33.828125 -33.890625 C 36.210938 -32.398438 38.09375 -30.269531 39.46875 -27.5 C 40.851562 -24.738281 41.546875 -21.53125 41.546875 -17.875 C 41.546875 -14.207031 40.851562 -10.976562 39.46875 -8.1875 C 38.09375 -5.40625 36.210938 -3.257812 33.828125 -1.75 C 31.441406 -0.238281 28.78125 0.515625 25.84375 0.515625 C 23.375 0.515625 21.191406 0.00390625 19.296875 -1.015625 C 17.410156 -2.035156 15.9375 -3.359375 14.875 -4.984375 L 14.875 16.984375 L 3.953125 16.984375 L 3.953125 -35.609375 L 14.875 -35.609375 Z M 30.453125 -17.875 C 30.453125 -20.59375 29.695312 -22.726562 28.1875 -24.28125 C 26.675781 -25.832031 24.8125 -26.609375 22.59375 -26.609375 C 20.425781 -26.609375 18.585938 -25.820312 17.078125 -24.25 C 15.566406 -22.675781 14.8125 -20.53125 14.8125 -17.8125 C 14.8125 -15.082031 15.566406 -12.929688 17.078125 -11.359375 C 18.585938 -9.785156 20.425781 -9 22.59375 -9 C 24.757812 -9 26.609375 -9.796875 28.140625 -11.390625 C 29.679688 -12.984375 30.453125 -15.144531 30.453125 -17.875 Z M 30.453125 -17.875 "/></g></g></g><g fill="#ff83b7" fill-opacity="1"><g transform="translate(814.969732, 103.342704)"><g><path d="M 9.453125 -39.3125 C 7.535156 -39.3125 5.96875 -39.875 4.75 -41 C 3.539062 -42.132812 2.9375 -43.53125 2.9375 -45.1875 C 2.9375 -46.894531 3.539062 -48.3125 4.75 -49.4375 C 5.96875 -50.5625 7.535156 -51.125 9.453125 -51.125 C 11.316406 -51.125 12.851562 -50.5625 14.0625 -49.4375 C 15.28125 -48.3125 15.890625 -46.894531 15.890625 -45.1875 C 15.890625 -43.53125 15.28125 -42.132812 14.0625 -41 C 12.851562 -39.875 11.316406 -39.3125 9.453125 -39.3125 Z M 14.875 -35.609375 L 14.875 0 L 3.953125 0 L 3.953125 -35.609375 Z M 14.875 -35.609375 "/></g></g></g><g fill="#ff83b7" fill-opacity="1"><g transform="translate(833.799204, 103.342704)"><g><path d="M 1.78125 -17.8125 C 1.78125 -21.507812 2.535156 -24.738281 4.046875 -27.5 C 5.554688 -30.269531 7.660156 -32.398438 10.359375 -33.890625 C 13.066406 -35.378906 16.164062 -36.125 19.65625 -36.125 C 24.125 -36.125 27.859375 -34.953125 30.859375 -32.609375 C 33.859375 -30.273438 35.828125 -26.976562 36.765625 -22.71875 L 25.140625 -22.71875 C 24.171875 -25.445312 22.28125 -26.8125 19.46875 -26.8125 C 17.46875 -26.8125 15.867188 -26.03125 14.671875 -24.46875 C 13.484375 -22.914062 12.890625 -20.695312 12.890625 -17.8125 C 12.890625 -14.914062 13.484375 -12.691406 14.671875 -11.140625 C 15.867188 -9.585938 17.46875 -8.8125 19.46875 -8.8125 C 22.28125 -8.8125 24.171875 -10.171875 25.140625 -12.890625 L 36.765625 -12.890625 C 35.828125 -8.722656 33.847656 -5.445312 30.828125 -3.0625 C 27.804688 -0.675781 24.082031 0.515625 19.65625 0.515625 C 16.164062 0.515625 13.066406 -0.226562 10.359375 -1.71875 C 7.660156 -3.207031 5.554688 -5.332031 4.046875 -8.09375 C 2.535156 -10.863281 1.78125 -14.101562 1.78125 -17.8125 Z M 1.78125 -17.8125 "/></g></g></g><g fill="#ff83b7" fill-opacity="1"><g transform="translate(872.415574, 103.342704)"><g><path d="M 20.171875 0.515625 C 16.679688 0.515625 13.539062 -0.226562 10.75 -1.71875 C 7.96875 -3.207031 5.773438 -5.332031 4.171875 -8.09375 C 2.578125 -10.863281 1.78125 -14.101562 1.78125 -17.8125 C 1.78125 -21.46875 2.585938 -24.6875 4.203125 -27.46875 C 5.828125 -30.257812 8.039062 -32.398438 10.84375 -33.890625 C 13.65625 -35.378906 16.804688 -36.125 20.296875 -36.125 C 23.785156 -36.125 26.929688 -35.378906 29.734375 -33.890625 C 32.546875 -32.398438 34.757812 -30.257812 36.375 -27.46875 C 38 -24.6875 38.8125 -21.46875 38.8125 -17.8125 C 38.8125 -14.144531 37.988281 -10.914062 36.34375 -8.125 C 34.707031 -5.34375 32.472656 -3.207031 29.640625 -1.71875 C 26.816406 -0.226562 23.660156 0.515625 20.171875 0.515625 Z M 20.171875 -8.9375 C 22.253906 -8.9375 24.03125 -9.703125 25.5 -11.234375 C 26.96875 -12.765625 27.703125 -14.957031 27.703125 -17.8125 C 27.703125 -20.65625 26.988281 -22.84375 25.5625 -24.375 C 24.132812 -25.914062 22.378906 -26.6875 20.296875 -26.6875 C 18.171875 -26.6875 16.40625 -25.925781 15 -24.40625 C 13.59375 -22.894531 12.890625 -20.695312 12.890625 -17.8125 C 12.890625 -14.957031 13.582031 -12.765625 14.96875 -11.234375 C 16.351562 -9.703125 18.085938 -8.9375 20.171875 -8.9375 Z M 20.171875 -8.9375 "/></g></g></g><path fill="#ff83b7" d="M 754.78125 160.273438 C 760.75 160.273438 766.710938 160.449219 772.664062 160.800781 C 778.621094 161.152344 784.558594 161.679688 790.484375 162.378906 C 796.410156 163.082031 802.308594 163.957031 808.179688 165.003906 C 814.054688 166.054688 819.890625 167.273438 825.691406 168.667969 C 831.492188 170.058594 837.246094 171.621094 842.957031 173.355469 C 848.664062 175.085938 854.320312 176.984375 859.914062 179.050781 C 865.511719 181.113281 871.042969 183.339844 876.511719 185.734375 C 881.976562 188.125 887.367188 190.671875 892.683594 193.382812 C 897.996094 196.089844 903.230469 198.953125 908.375 201.96875 C 913.523438 204.984375 918.578125 208.152344 923.539062 211.464844 C 928.496094 214.78125 933.355469 218.238281 938.113281 221.839844 C 942.871094 225.4375 947.515625 229.175781 952.050781 233.050781 C 956.589844 236.925781 961.007812 240.929688 965.308594 245.066406 C 969.609375 249.199219 973.785156 253.457031 977.832031 257.839844 C 981.882812 262.21875 985.800781 266.714844 989.585938 271.328125 C 993.371094 275.9375 997.015625 280.660156 1000.523438 285.484375 L 754.78125 464.023438 Z M 754.78125 160.273438 " fill-opacity="1" fill-rule="nonzero"/><path fill="#c39c9d" d="M 1000.523438 285.484375 C 1003.832031 290.042969 1007.015625 294.691406 1010.070312 299.425781 C 1013.121094 304.160156 1016.042969 308.976562 1018.824219 313.875 C 1021.609375 318.773438 1024.257812 323.742188 1026.765625 328.789062 C 1029.273438 333.832031 1031.640625 338.941406 1033.863281 344.121094 C 1036.089844 349.296875 1038.167969 354.53125 1040.101562 359.824219 C 1042.035156 365.117188 1043.816406 370.457031 1045.453125 375.847656 C 1047.089844 381.242188 1048.574219 386.671875 1049.90625 392.148438 C 1051.238281 397.621094 1052.417969 403.128906 1053.445312 408.667969 C 1054.472656 414.207031 1055.34375 419.773438 1056.0625 425.359375 C 1056.777344 430.949219 1057.339844 436.550781 1057.746094 442.171875 C 1058.152344 447.792969 1058.398438 453.417969 1058.492188 459.050781 C 1058.585938 464.683594 1058.519531 470.316406 1058.296875 475.945312 C 1058.078125 481.574219 1057.699219 487.195312 1057.167969 492.804688 C 1056.632812 498.414062 1055.941406 504.003906 1055.097656 509.574219 C 1054.253906 515.144531 1053.253906 520.6875 1052.101562 526.199219 C 1050.949219 531.714844 1049.640625 537.195312 1048.183594 542.636719 C 1046.726562 548.078125 1045.117188 553.476562 1043.359375 558.828125 C 1041.601562 564.179688 1039.695312 569.480469 1037.640625 574.726562 C 1035.589844 579.972656 1033.390625 585.160156 1031.046875 590.285156 C 1028.707031 595.40625 1026.222656 600.464844 1023.601562 605.449219 C 1020.976562 610.433594 1018.21875 615.34375 1015.320312 620.175781 C 1012.425781 625.011719 1009.394531 629.757812 1006.234375 634.421875 C 1003.074219 639.085938 999.789062 643.660156 996.371094 648.140625 C 992.957031 652.621094 989.421875 657.003906 985.761719 661.289062 C 982.101562 665.574219 978.328125 669.753906 974.433594 673.828125 C 970.542969 677.902344 966.542969 681.863281 962.429688 685.714844 C 958.316406 689.566406 954.101562 693.300781 949.78125 696.917969 C 945.460938 700.535156 941.046875 704.027344 936.53125 707.398438 C 932.015625 710.769531 927.414062 714.015625 922.71875 717.128906 C 918.023438 720.246094 913.246094 723.226562 908.382812 726.074219 C 903.523438 728.925781 898.585938 731.636719 893.574219 734.210938 C 888.566406 736.785156 883.484375 739.21875 878.339844 741.511719 C 873.191406 743.800781 867.984375 745.949219 862.71875 747.949219 C 857.453125 749.953125 852.132812 751.808594 846.765625 753.511719 C 841.394531 755.21875 835.980469 756.773438 830.527344 758.179688 C 825.070312 759.585938 819.578125 760.835938 814.050781 761.9375 C 808.527344 763.035156 802.976562 763.980469 797.394531 764.769531 C 791.816406 765.5625 786.222656 766.195312 780.609375 766.675781 C 774.996094 767.152344 769.371094 767.476562 763.738281 767.640625 C 758.109375 767.808594 752.476562 767.816406 746.84375 767.671875 C 741.210938 767.523438 735.589844 767.21875 729.972656 766.757812 C 724.359375 766.300781 718.757812 765.683594 713.179688 764.910156 C 707.597656 764.140625 702.042969 763.214844 696.511719 762.132812 C 690.984375 761.050781 685.488281 759.820312 680.027344 758.433594 C 674.566406 757.046875 669.148438 755.507812 663.773438 753.820312 C 658.398438 752.132812 653.074219 750.296875 647.800781 748.3125 C 642.527344 746.328125 637.3125 744.195312 632.160156 741.921875 C 627.003906 739.648438 621.917969 737.230469 616.898438 734.675781 C 611.875 732.117188 606.929688 729.421875 602.0625 726.589844 C 597.191406 723.757812 592.402344 720.789062 587.699219 717.691406 C 582.992188 714.59375 578.378906 711.363281 573.851562 708.007812 C 569.328125 704.652344 564.898438 701.171875 560.566406 697.570312 C 556.234375 693.96875 552.003906 690.25 547.878906 686.410156 C 543.753906 682.574219 539.742188 678.625 535.835938 674.5625 C 531.929688 670.5 528.140625 666.335938 524.46875 662.0625 C 520.792969 657.789062 517.242188 653.417969 513.8125 648.949219 C 510.382812 644.480469 507.078125 639.917969 503.902344 635.265625 C 500.726562 630.613281 497.683594 625.875 494.769531 621.050781 C 491.855469 616.226562 489.082031 611.328125 486.441406 606.351562 C 483.800781 601.371094 481.300781 596.324219 478.941406 591.210938 C 476.582031 586.09375 474.367188 580.914062 472.296875 575.675781 C 470.226562 570.4375 468.300781 565.140625 466.527344 559.796875 C 464.75 554.449219 463.125 549.058594 461.648438 543.621094 C 460.171875 538.183594 458.847656 532.707031 457.675781 527.199219 C 456.503906 521.6875 455.484375 516.148438 454.621094 510.578125 C 453.757812 505.011719 453.050781 499.425781 452.496094 493.816406 C 451.945312 488.210938 451.546875 482.59375 451.308594 476.964844 C 451.070312 471.335938 450.984375 465.703125 451.058594 460.070312 C 451.132812 454.4375 451.363281 448.808594 451.75 443.1875 C 452.136719 437.566406 452.675781 431.960938 453.375 426.371094 C 454.074219 420.78125 454.925781 415.214844 455.9375 409.671875 C 456.945312 404.128906 458.105469 398.617188 459.421875 393.136719 C 460.734375 387.660156 462.199219 382.222656 463.820312 376.824219 C 465.4375 371.425781 467.203125 366.078125 469.117188 360.78125 C 471.03125 355.480469 473.09375 350.242188 475.300781 345.058594 C 477.507812 339.871094 479.855469 334.753906 482.347656 329.699219 C 484.839844 324.648438 487.46875 319.667969 490.238281 314.761719 C 493.007812 309.855469 495.910156 305.027344 498.945312 300.28125 C 501.984375 295.535156 505.148438 290.878906 508.445312 286.308594 C 511.742188 281.742188 515.164062 277.265625 518.707031 272.886719 C 522.253906 268.507812 525.917969 264.230469 529.703125 260.058594 C 533.484375 255.882812 537.382812 251.816406 541.390625 247.859375 C 545.402344 243.898438 549.515625 240.054688 553.742188 236.328125 C 557.964844 232.597656 562.289062 228.988281 566.710938 225.5 C 571.136719 222.011719 575.652344 218.648438 580.265625 215.414062 C 584.878906 212.175781 589.574219 209.070312 594.359375 206.09375 C 599.144531 203.117188 604.007812 200.277344 608.949219 197.574219 C 613.890625 194.867188 618.90625 192.300781 623.988281 189.875 C 629.074219 187.449219 634.222656 185.167969 639.4375 183.027344 C 644.648438 180.886719 649.914062 178.894531 655.238281 177.050781 C 660.5625 175.203125 665.929688 173.503906 671.347656 171.957031 C 676.765625 170.410156 682.222656 169.015625 687.71875 167.769531 C 693.210938 166.527344 698.738281 165.4375 704.292969 164.5 C 709.847656 163.5625 715.425781 162.78125 721.027344 162.15625 C 726.625 161.53125 732.238281 161.058594 737.863281 160.746094 C 743.488281 160.433594 749.117188 160.273438 754.753906 160.273438 L 754.78125 464.023438 Z M 1000.523438 285.484375 " fill-opacity="1" fill-rule="nonzero"/><g fill="#000000" fill-opacity="1"><g transform="translate(425.462512, 799.672937)"><g><path d="M 15.734375 0 L 13.46875 0 L 4.109375 -14.375 L 4.015625 -14.375 C 4.140625 -12.6875 4.203125 -11.140625 4.203125 -9.734375 L 4.203125 0 L 2.359375 0 L 2.359375 -17.140625 L 4.609375 -17.140625 L 13.953125 -2.8125 L 14.046875 -2.8125 C 14.023438 -3.019531 13.988281 -3.695312 13.9375 -4.84375 C 13.882812 -5.988281 13.863281 -6.804688 13.875 -7.296875 L 13.875 -17.140625 L 15.734375 -17.140625 Z M 15.734375 0 "/></g></g><g transform="translate(443.556261, 799.672937)"><g><path d="M 13.15625 -6.4375 C 13.15625 -4.34375 12.625 -2.707031 11.5625 -1.53125 C 10.507812 -0.351562 9.054688 0.234375 7.203125 0.234375 C 6.046875 0.234375 5.019531 -0.0351562 4.125 -0.578125 C 3.238281 -1.117188 2.550781 -1.890625 2.0625 -2.890625 C 1.582031 -3.898438 1.34375 -5.082031 1.34375 -6.4375 C 1.34375 -8.53125 1.863281 -10.160156 2.90625 -11.328125 C 3.957031 -12.492188 5.414062 -13.078125 7.28125 -13.078125 C 9.070312 -13.078125 10.5 -12.476562 11.5625 -11.28125 C 12.625 -10.09375 13.15625 -8.476562 13.15625 -6.4375 Z M 3.359375 -6.4375 C 3.359375 -4.789062 3.6875 -3.535156 4.34375 -2.671875 C 5 -1.816406 5.96875 -1.390625 7.25 -1.390625 C 8.519531 -1.390625 9.484375 -1.816406 10.140625 -2.671875 C 10.804688 -3.535156 11.140625 -4.789062 11.140625 -6.4375 C 11.140625 -8.070312 10.804688 -9.3125 10.140625 -10.15625 C 9.484375 -11 8.507812 -11.421875 7.21875 -11.421875 C 5.945312 -11.421875 4.984375 -11.003906 4.328125 -10.171875 C 3.679688 -9.335938 3.359375 -8.09375 3.359375 -6.4375 Z M 3.359375 -6.4375 "/></g></g><g transform="translate(458.052355, 799.672937)"><g/></g><g transform="translate(464.286729, 799.672937)"><g><path d="M 6.21875 -1.375 C 6.5625 -1.375 6.890625 -1.398438 7.203125 -1.453125 C 7.523438 -1.503906 7.78125 -1.554688 7.96875 -1.609375 L 7.96875 -0.125 C 7.757812 -0.0195312 7.445312 0.0625 7.03125 0.125 C 6.625 0.195312 6.257812 0.234375 5.9375 0.234375 C 3.445312 0.234375 2.203125 -1.070312 2.203125 -3.6875 L 2.203125 -11.328125 L 0.359375 -11.328125 L 0.359375 -12.265625 L 2.203125 -13.078125 L 3.03125 -15.828125 L 4.15625 -15.828125 L 4.15625 -12.84375 L 7.875 -12.84375 L 7.875 -11.328125 L 4.15625 -11.328125 L 4.15625 -3.78125 C 4.15625 -3 4.335938 -2.398438 4.703125 -1.984375 C 5.066406 -1.578125 5.570312 -1.375 6.21875 -1.375 Z M 6.21875 -1.375 "/></g></g><g transform="translate(472.759385, 799.672937)"><g><path d="M 4.015625 0 L 2.0625 0 L 2.0625 -12.84375 L 4.015625 -12.84375 Z M 1.90625 -16.328125 C 1.90625 -16.773438 2.015625 -17.097656 2.234375 -17.296875 C 2.453125 -17.503906 2.722656 -17.609375 3.046875 -17.609375 C 3.359375 -17.609375 3.628906 -17.503906 3.859375 -17.296875 C 4.085938 -17.085938 4.203125 -16.765625 4.203125 -16.328125 C 4.203125 -15.890625 4.085938 -15.5625 3.859375 -15.34375 C 3.628906 -15.132812 3.359375 -15.03125 3.046875 -15.03125 C 2.722656 -15.03125 2.453125 -15.132812 2.234375 -15.34375 C 2.015625 -15.5625 1.90625 -15.890625 1.90625 -16.328125 Z M 1.90625 -16.328125 "/></g></g><g transform="translate(478.829697, 799.672937)"><g><path d="M 7.484375 0.234375 C 5.585938 0.234375 4.085938 -0.34375 2.984375 -1.5 C 1.890625 -2.65625 1.34375 -4.257812 1.34375 -6.3125 C 1.34375 -8.382812 1.851562 -10.03125 2.875 -11.25 C 3.894531 -12.46875 5.265625 -13.078125 6.984375 -13.078125 C 8.597656 -13.078125 9.875 -12.546875 10.8125 -11.484375 C 11.75 -10.429688 12.21875 -9.035156 12.21875 -7.296875 L 12.21875 -6.078125 L 3.359375 -6.078125 C 3.398438 -4.566406 3.78125 -3.421875 4.5 -2.640625 C 5.226562 -1.859375 6.25 -1.46875 7.5625 -1.46875 C 8.945312 -1.46875 10.3125 -1.753906 11.65625 -2.328125 L 11.65625 -0.59375 C 10.96875 -0.300781 10.316406 -0.09375 9.703125 0.03125 C 9.097656 0.164062 8.359375 0.234375 7.484375 0.234375 Z M 6.96875 -11.453125 C 5.9375 -11.453125 5.113281 -11.113281 4.5 -10.4375 C 3.882812 -9.769531 3.519531 -8.84375 3.40625 -7.65625 L 10.125 -7.65625 C 10.125 -8.882812 9.847656 -9.820312 9.296875 -10.46875 C 8.753906 -11.125 7.976562 -11.453125 6.96875 -11.453125 Z M 6.96875 -11.453125 "/></g></g><g transform="translate(492.29454, 799.672937)"><g><path d="M 10.859375 0 L 10.859375 -8.3125 C 10.859375 -9.351562 10.617188 -10.128906 10.140625 -10.640625 C 9.660156 -11.160156 8.914062 -11.421875 7.90625 -11.421875 C 6.5625 -11.421875 5.578125 -11.054688 4.953125 -10.328125 C 4.328125 -9.609375 4.015625 -8.410156 4.015625 -6.734375 L 4.015625 0 L 2.0625 0 L 2.0625 -12.84375 L 3.640625 -12.84375 L 3.96875 -11.09375 L 4.0625 -11.09375 C 4.457031 -11.71875 5.015625 -12.203125 5.734375 -12.546875 C 6.453125 -12.898438 7.253906 -13.078125 8.140625 -13.078125 C 9.679688 -13.078125 10.84375 -12.703125 11.625 -11.953125 C 12.40625 -11.210938 12.796875 -10.019531 12.796875 -8.375 L 12.796875 0 Z M 10.859375 0 "/></g></g><g transform="translate(507.025008, 799.672937)"><g><path d="M 7.484375 0.234375 C 5.585938 0.234375 4.085938 -0.34375 2.984375 -1.5 C 1.890625 -2.65625 1.34375 -4.257812 1.34375 -6.3125 C 1.34375 -8.382812 1.851562 -10.03125 2.875 -11.25 C 3.894531 -12.46875 5.265625 -13.078125 6.984375 -13.078125 C 8.597656 -13.078125 9.875 -12.546875 10.8125 -11.484375 C 11.75 -10.429688 12.21875 -9.035156 12.21875 -7.296875 L 12.21875 -6.078125 L 3.359375 -6.078125 C 3.398438 -4.566406 3.78125 -3.421875 4.5 -2.640625 C 5.226562 -1.859375 6.25 -1.46875 7.5625 -1.46875 C 8.945312 -1.46875 10.3125 -1.753906 11.65625 -2.328125 L 11.65625 -0.59375 C 10.96875 -0.300781 10.316406 -0.09375 9.703125 0.03125 C 9.097656 0.164062 8.359375 0.234375 7.484375 0.234375 Z M 6.96875 -11.453125 C 5.9375 -11.453125 5.113281 -11.113281 4.5 -10.4375 C 3.882812 -9.769531 3.519531 -8.84375 3.40625 -7.65625 L 10.125 -7.65625 C 10.125 -8.882812 9.847656 -9.820312 9.296875 -10.46875 C 8.753906 -11.125 7.976562 -11.453125 6.96875 -11.453125 Z M 6.96875 -11.453125 "/></g></g><g transform="translate(520.489852, 799.672937)"><g/></g><g transform="translate(526.724226, 799.672937)"><g><path d="M 4.015625 0 L 2.0625 0 L 2.0625 -12.84375 L 4.015625 -12.84375 Z M 1.90625 -16.328125 C 1.90625 -16.773438 2.015625 -17.097656 2.234375 -17.296875 C 2.453125 -17.503906 2.722656 -17.609375 3.046875 -17.609375 C 3.359375 -17.609375 3.628906 -17.503906 3.859375 -17.296875 C 4.085938 -17.085938 4.203125 -16.765625 4.203125 -16.328125 C 4.203125 -15.890625 4.085938 -15.5625 3.859375 -15.34375 C 3.628906 -15.132812 3.359375 -15.03125 3.046875 -15.03125 C 2.722656 -15.03125 2.453125 -15.132812 2.234375 -15.34375 C 2.015625 -15.5625 1.90625 -15.890625 1.90625 -16.328125 Z M 1.90625 -16.328125 "/></g></g><g transform="translate(532.794539, 799.672937)"><g><path d="M 10.859375 0 L 10.859375 -8.3125 C 10.859375 -9.351562 10.617188 -10.128906 10.140625 -10.640625 C 9.660156 -11.160156 8.914062 -11.421875 7.90625 -11.421875 C 6.5625 -11.421875 5.578125 -11.054688 4.953125 -10.328125 C 4.328125 -9.609375 4.015625 -8.410156 4.015625 -6.734375 L 4.015625 0 L 2.0625 0 L 2.0625 -12.84375 L 3.640625 -12.84375 L 3.96875 -11.09375 L 4.0625 -11.09375 C 4.457031 -11.71875 5.015625 -12.203125 5.734375 -12.546875 C 6.453125 -12.898438 7.253906 -13.078125 8.140625 -13.078125 C 9.679688 -13.078125 10.84375 -12.703125 11.625 -11.953125 C 12.40625 -11.210938 12.796875 -10.019531 12.796875 -8.375 L 12.796875 0 Z M 10.859375 0 "/></g></g><g transform="translate(547.525007, 799.672937)"><g><path d="M 6.21875 -1.375 C 6.5625 -1.375 6.890625 -1.398438 7.203125 -1.453125 C 7.523438 -1.503906 7.78125 -1.554688 7.96875 -1.609375 L 7.96875 -0.125 C 7.757812 -0.0195312 7.445312 0.0625 7.03125 0.125 C 6.625 0.195312 6.257812 0.234375 5.9375 0.234375 C 3.445312 0.234375 2.203125 -1.070312 2.203125 -3.6875 L 2.203125 -11.328125 L 0.359375 -11.328125 L 0.359375 -12.265625 L 2.203125 -13.078125 L 3.03125 -15.828125 L 4.15625 -15.828125 L 4.15625 -12.84375 L 7.875 -12.84375 L 7.875 -11.328125 L 4.15625 -11.328125 L 4.15625 -3.78125 C 4.15625 -3 4.335938 -2.398438 4.703125 -1.984375 C 5.066406 -1.578125 5.570312 -1.375 6.21875 -1.375 Z M 6.21875 -1.375 "/></g></g><g transform="translate(555.997662, 799.672937)"><g><path d="M 7.484375 0.234375 C 5.585938 0.234375 4.085938 -0.34375 2.984375 -1.5 C 1.890625 -2.65625 1.34375 -4.257812 1.34375 -6.3125 C 1.34375 -8.382812 1.851562 -10.03125 2.875 -11.25 C 3.894531 -12.46875 5.265625 -13.078125 6.984375 -13.078125 C 8.597656 -13.078125 9.875 -12.546875 10.8125 -11.484375 C 11.75 -10.429688 12.21875 -9.035156 12.21875 -7.296875 L 12.21875 -6.078125 L 3.359375 -6.078125 C 3.398438 -4.566406 3.78125 -3.421875 4.5 -2.640625 C 5.226562 -1.859375 6.25 -1.46875 7.5625 -1.46875 C 8.945312 -1.46875 10.3125 -1.753906 11.65625 -2.328125 L 11.65625 -0.59375 C 10.96875 -0.300781 10.316406 -0.09375 9.703125 0.03125 C 9.097656 0.164062 8.359375 0.234375 7.484375 0.234375 Z M 6.96875 -11.453125 C 5.9375 -11.453125 5.113281 -11.113281 4.5 -10.4375 C 3.882812 -9.769531 3.519531 -8.84375 3.40625 -7.65625 L 10.125 -7.65625 C 10.125 -8.882812 9.847656 -9.820312 9.296875 -10.46875 C 8.753906 -11.125 7.976562 -11.453125 6.96875 -11.453125 Z M 6.96875 -11.453125 "/></g></g><g transform="translate(569.462506, 799.672937)"><g><path d="M 7.921875 -13.078125 C 8.492188 -13.078125 9.003906 -13.03125 9.453125 -12.9375 L 9.1875 -11.140625 C 8.65625 -11.253906 8.1875 -11.3125 7.78125 -11.3125 C 6.738281 -11.3125 5.847656 -10.890625 5.109375 -10.046875 C 4.378906 -9.203125 4.015625 -8.148438 4.015625 -6.890625 L 4.015625 0 L 2.0625 0 L 2.0625 -12.84375 L 3.671875 -12.84375 L 3.890625 -10.46875 L 3.984375 -10.46875 C 4.460938 -11.300781 5.035156 -11.941406 5.703125 -12.390625 C 6.378906 -12.847656 7.117188 -13.078125 7.921875 -13.078125 Z M 7.921875 -13.078125 "/></g></g><g transform="translate(579.25938, 799.672937)"><g><path d="M 7.484375 0.234375 C 5.585938 0.234375 4.085938 -0.34375 2.984375 -1.5 C 1.890625 -2.65625 1.34375 -4.257812 1.34375 -6.3125 C 1.34375 -8.382812 1.851562 -10.03125 2.875 -11.25 C 3.894531 -12.46875 5.265625 -13.078125 6.984375 -13.078125 C 8.597656 -13.078125 9.875 -12.546875 10.8125 -11.484375 C 11.75 -10.429688 12.21875 -9.035156 12.21875 -7.296875 L 12.21875 -6.078125 L 3.359375 -6.078125 C 3.398438 -4.566406 3.78125 -3.421875 4.5 -2.640625 C 5.226562 -1.859375 6.25 -1.46875 7.5625 -1.46875 C 8.945312 -1.46875 10.3125 -1.753906 11.65625 -2.328125 L 11.65625 -0.59375 C 10.96875 -0.300781 10.316406 -0.09375 9.703125 0.03125 C 9.097656 0.164062 8.359375 0.234375 7.484375 0.234375 Z M 6.96875 -11.453125 C 5.9375 -11.453125 5.113281 -11.113281 4.5 -10.4375 C 3.882812 -9.769531 3.519531 -8.84375 3.40625 -7.65625 L 10.125 -7.65625 C 10.125 -8.882812 9.847656 -9.820312 9.296875 -10.46875 C 8.753906 -11.125 7.976562 -11.453125 6.96875 -11.453125 Z M 5.53125 -14.84375 C 5.90625 -15.320312 6.304688 -15.90625 6.734375 -16.59375 C 7.171875 -17.28125 7.515625 -17.878906 7.765625 -18.390625 L 10.140625 -18.390625 L 10.140625 -18.140625 C 9.796875 -17.628906 9.28125 -17.003906 8.59375 -16.265625 C 7.914062 -15.523438 7.328125 -14.953125 6.828125 -14.546875 L 5.53125 -14.546875 Z M 5.53125 -14.84375 "/></g></g><g transform="translate(592.724223, 799.672937)"><g><path d="M 10.34375 -3.5 C 10.34375 -2.3125 9.894531 -1.390625 9 -0.734375 C 8.113281 -0.0859375 6.867188 0.234375 5.265625 0.234375 C 3.554688 0.234375 2.226562 -0.0351562 1.28125 -0.578125 L 1.28125 -2.375 C 1.894531 -2.0625 2.554688 -1.816406 3.265625 -1.640625 C 3.972656 -1.460938 4.65625 -1.375 5.3125 -1.375 C 6.320312 -1.375 7.097656 -1.535156 7.640625 -1.859375 C 8.191406 -2.179688 8.46875 -2.675781 8.46875 -3.34375 C 8.46875 -3.84375 8.25 -4.269531 7.8125 -4.625 C 7.382812 -4.976562 6.539062 -5.398438 5.28125 -5.890625 C 4.09375 -6.328125 3.242188 -6.710938 2.734375 -7.046875 C 2.234375 -7.378906 1.859375 -7.753906 1.609375 -8.171875 C 1.367188 -8.597656 1.25 -9.101562 1.25 -9.6875 C 1.25 -10.738281 1.671875 -11.566406 2.515625 -12.171875 C 3.367188 -12.773438 4.539062 -13.078125 6.03125 -13.078125 C 7.40625 -13.078125 8.753906 -12.796875 10.078125 -12.234375 L 9.390625 -10.65625 C 8.097656 -11.1875 6.929688 -11.453125 5.890625 -11.453125 C 4.960938 -11.453125 4.265625 -11.304688 3.796875 -11.015625 C 3.328125 -10.722656 3.09375 -10.328125 3.09375 -9.828125 C 3.09375 -9.484375 3.179688 -9.1875 3.359375 -8.9375 C 3.535156 -8.695312 3.816406 -8.46875 4.203125 -8.25 C 4.597656 -8.03125 5.347656 -7.710938 6.453125 -7.296875 C 7.984375 -6.742188 9.015625 -6.1875 9.546875 -5.625 C 10.078125 -5.0625 10.34375 -4.351562 10.34375 -3.5 Z M 10.34375 -3.5 "/></g></g><g transform="translate(604.173441, 799.672937)"><g/></g><g transform="translate(610.407816, 799.672937)"><g><path d="M 7.921875 -13.078125 C 8.492188 -13.078125 9.003906 -13.03125 9.453125 -12.9375 L 9.1875 -11.140625 C 8.65625 -11.253906 8.1875 -11.3125 7.78125 -11.3125 C 6.738281 -11.3125 5.847656 -10.890625 5.109375 -10.046875 C 4.378906 -9.203125 4.015625 -8.148438 4.015625 -6.890625 L 4.015625 0 L 2.0625 0 L 2.0625 -12.84375 L 3.671875 -12.84375 L 3.890625 -10.46875 L 3.984375 -10.46875 C 4.460938 -11.300781 5.035156 -11.941406 5.703125 -12.390625 C 6.378906 -12.847656 7.117188 -13.078125 7.921875 -13.078125 Z M 7.921875 -13.078125 "/></g></g><g transform="translate(620.204691, 799.672937)"><g><path d="M 7.484375 0.234375 C 5.585938 0.234375 4.085938 -0.34375 2.984375 -1.5 C 1.890625 -2.65625 1.34375 -4.257812 1.34375 -6.3125 C 1.34375 -8.382812 1.851562 -10.03125 2.875 -11.25 C 3.894531 -12.46875 5.265625 -13.078125 6.984375 -13.078125 C 8.597656 -13.078125 9.875 -12.546875 10.8125 -11.484375 C 11.75 -10.429688 12.21875 -9.035156 12.21875 -7.296875 L 12.21875 -6.078125 L 3.359375 -6.078125 C 3.398438 -4.566406 3.78125 -3.421875 4.5 -2.640625 C 5.226562 -1.859375 6.25 -1.46875 7.5625 -1.46875 C 8.945312 -1.46875 10.3125 -1.753906 11.65625 -2.328125 L 11.65625 -0.59375 C 10.96875 -0.300781 10.316406 -0.09375 9.703125 0.03125 C 9.097656 0.164062 8.359375 0.234375 7.484375 0.234375 Z M 6.96875 -11.453125 C 5.9375 -11.453125 5.113281 -11.113281 4.5 -10.4375 C 3.882812 -9.769531 3.519531 -8.84375 3.40625 -7.65625 L 10.125 -7.65625 C 10.125 -8.882812 9.847656 -9.820312 9.296875 -10.46875 C 8.753906 -11.125 7.976562 -11.453125 6.96875 -11.453125 Z M 6.96875 -11.453125 "/></g></g><g transform="translate(633.669534, 799.672937)"><g><path d="M 10.34375 -3.5 C 10.34375 -2.3125 9.894531 -1.390625 9 -0.734375 C 8.113281 -0.0859375 6.867188 0.234375 5.265625 0.234375 C 3.554688 0.234375 2.226562 -0.0351562 1.28125 -0.578125 L 1.28125 -2.375 C 1.894531 -2.0625 2.554688 -1.816406 3.265625 -1.640625 C 3.972656 -1.460938 4.65625 -1.375 5.3125 -1.375 C 6.320312 -1.375 7.097656 -1.535156 7.640625 -1.859375 C 8.191406 -2.179688 8.46875 -2.675781 8.46875 -3.34375 C 8.46875 -3.84375 8.25 -4.269531 7.8125 -4.625 C 7.382812 -4.976562 6.539062 -5.398438 5.28125 -5.890625 C 4.09375 -6.328125 3.242188 -6.710938 2.734375 -7.046875 C 2.234375 -7.378906 1.859375 -7.753906 1.609375 -8.171875 C 1.367188 -8.597656 1.25 -9.101562 1.25 -9.6875 C 1.25 -10.738281 1.671875 -11.566406 2.515625 -12.171875 C 3.367188 -12.773438 4.539062 -13.078125 6.03125 -13.078125 C 7.40625 -13.078125 8.753906 -12.796875 10.078125 -12.234375 L 9.390625 -10.65625 C 8.097656 -11.1875 6.929688 -11.453125 5.890625 -11.453125 C 4.960938 -11.453125 4.265625 -11.304688 3.796875 -11.015625 C 3.328125 -10.722656 3.09375 -10.328125 3.09375 -9.828125 C 3.09375 -9.484375 3.179688 -9.1875 3.359375 -8.9375 C 3.535156 -8.695312 3.816406 -8.46875 4.203125 -8.25 C 4.597656 -8.03125 5.347656 -7.710938 6.453125 -7.296875 C 7.984375 -6.742188 9.015625 -6.1875 9.546875 -5.625 C 10.078125 -5.0625 10.34375 -4.351562 10.34375 -3.5 Z M 10.34375 -3.5 "/></g></g><g transform="translate(645.118752, 799.672937)"><g><path d="M 6.21875 -1.375 C 6.5625 -1.375 6.890625 -1.398438 7.203125 -1.453125 C 7.523438 -1.503906 7.78125 -1.554688 7.96875 -1.609375 L 7.96875 -0.125 C 7.757812 -0.0195312 7.445312 0.0625 7.03125 0.125 C 6.625 0.195312 6.257812 0.234375 5.9375 0.234375 C 3.445312 0.234375 2.203125 -1.070312 2.203125 -3.6875 L 2.203125 -11.328125 L 0.359375 -11.328125 L 0.359375 -12.265625 L 2.203125 -13.078125 L 3.03125 -15.828125 L 4.15625 -15.828125 L 4.15625 -12.84375 L 7.875 -12.84375 L 7.875 -11.328125 L 4.15625 -11.328125 L 4.15625 -3.78125 C 4.15625 -3 4.335938 -2.398438 4.703125 -1.984375 C 5.066406 -1.578125 5.570312 -1.375 6.21875 -1.375 Z M 6.21875 -1.375 "/></g></g><g transform="translate(653.591408, 799.672937)"><g><path d="M 7.921875 -13.078125 C 8.492188 -13.078125 9.003906 -13.03125 9.453125 -12.9375 L 9.1875 -11.140625 C 8.65625 -11.253906 8.1875 -11.3125 7.78125 -11.3125 C 6.738281 -11.3125 5.847656 -10.890625 5.109375 -10.046875 C 4.378906 -9.203125 4.015625 -8.148438 4.015625 -6.890625 L 4.015625 0 L 2.0625 0 L 2.0625 -12.84375 L 3.671875 -12.84375 L 3.890625 -10.46875 L 3.984375 -10.46875 C 4.460938 -11.300781 5.035156 -11.941406 5.703125 -12.390625 C 6.378906 -12.847656 7.117188 -13.078125 7.921875 -13.078125 Z M 7.921875 -13.078125 "/></g></g><g transform="translate(663.388283, 799.672937)"><g><path d="M 4.015625 0 L 2.0625 0 L 2.0625 -12.84375 L 4.015625 -12.84375 Z M 1.90625 -16.328125 C 1.90625 -16.773438 2.015625 -17.097656 2.234375 -17.296875 C 2.453125 -17.503906 2.722656 -17.609375 3.046875 -17.609375 C 3.359375 -17.609375 3.628906 -17.503906 3.859375 -17.296875 C 4.085938 -17.085938 4.203125 -16.765625 4.203125 -16.328125 C 4.203125 -15.890625 4.085938 -15.5625 3.859375 -15.34375 C 3.628906 -15.132812 3.359375 -15.03125 3.046875 -15.03125 C 2.722656 -15.03125 2.453125 -15.132812 2.234375 -15.34375 C 2.015625 -15.5625 1.90625 -15.890625 1.90625 -16.328125 Z M 1.90625 -16.328125 "/></g></g><g transform="translate(669.458595, 799.672937)"><g><path d="M 10.859375 0 L 10.859375 -8.3125 C 10.859375 -9.351562 10.617188 -10.128906 10.140625 -10.640625 C 9.660156 -11.160156 8.914062 -11.421875 7.90625 -11.421875 C 6.5625 -11.421875 5.578125 -11.054688 4.953125 -10.328125 C 4.328125 -9.609375 4.015625 -8.410156 4.015625 -6.734375 L 4.015625 0 L 2.0625 0 L 2.0625 -12.84375 L 3.640625 -12.84375 L 3.96875 -11.09375 L 4.0625 -11.09375 C 4.457031 -11.71875 5.015625 -12.203125 5.734375 -12.546875 C 6.453125 -12.898438 7.253906 -13.078125 8.140625 -13.078125 C 9.679688 -13.078125 10.84375 -12.703125 11.625 -11.953125 C 12.40625 -11.210938 12.796875 -10.019531 12.796875 -8.375 L 12.796875 0 Z M 10.859375 0 "/></g></g><g transform="translate(684.189063, 799.672937)"><g><path d="M 12.578125 -12.84375 L 12.578125 -11.609375 L 10.203125 -11.328125 C 10.421875 -11.054688 10.613281 -10.695312 10.78125 -10.25 C 10.957031 -9.8125 11.046875 -9.316406 11.046875 -8.765625 C 11.046875 -7.503906 10.613281 -6.5 9.75 -5.75 C 8.894531 -5 7.71875 -4.625 6.21875 -4.625 C 5.832031 -4.625 5.472656 -4.65625 5.140625 -4.71875 C 4.304688 -4.28125 3.890625 -3.734375 3.890625 -3.078125 C 3.890625 -2.722656 4.035156 -2.460938 4.328125 -2.296875 C 4.617188 -2.128906 5.113281 -2.046875 5.8125 -2.046875 L 8.09375 -2.046875 C 9.476562 -2.046875 10.539062 -1.75 11.28125 -1.15625 C 12.03125 -0.570312 12.40625 0.273438 12.40625 1.390625 C 12.40625 2.816406 11.832031 3.898438 10.6875 4.640625 C 9.550781 5.390625 7.890625 5.765625 5.703125 5.765625 C 4.023438 5.765625 2.726562 5.453125 1.8125 4.828125 C 0.90625 4.203125 0.453125 3.320312 0.453125 2.1875 C 0.453125 1.40625 0.703125 0.726562 1.203125 0.15625 C 1.703125 -0.414062 2.40625 -0.804688 3.3125 -1.015625 C 2.988281 -1.160156 2.710938 -1.390625 2.484375 -1.703125 C 2.265625 -2.015625 2.15625 -2.378906 2.15625 -2.796875 C 2.15625 -3.265625 2.28125 -3.671875 2.53125 -4.015625 C 2.78125 -4.367188 3.175781 -4.710938 3.71875 -5.046875 C 3.050781 -5.316406 2.507812 -5.78125 2.09375 -6.4375 C 1.675781 -7.09375 1.46875 -7.84375 1.46875 -8.6875 C 1.46875 -10.09375 1.890625 -11.175781 2.734375 -11.9375 C 3.578125 -12.695312 4.769531 -13.078125 6.3125 -13.078125 C 6.988281 -13.078125 7.597656 -13 8.140625 -12.84375 Z M 2.328125 2.15625 C 2.328125 2.851562 2.617188 3.378906 3.203125 3.734375 C 3.796875 4.097656 4.640625 4.28125 5.734375 4.28125 C 7.367188 4.28125 8.578125 4.035156 9.359375 3.546875 C 10.140625 3.054688 10.53125 2.394531 10.53125 1.5625 C 10.53125 0.863281 10.316406 0.378906 9.890625 0.109375 C 9.460938 -0.160156 8.65625 -0.296875 7.46875 -0.296875 L 5.140625 -0.296875 C 4.253906 -0.296875 3.5625 -0.0859375 3.0625 0.328125 C 2.570312 0.753906 2.328125 1.363281 2.328125 2.15625 Z M 3.390625 -8.734375 C 3.390625 -7.835938 3.640625 -7.15625 4.140625 -6.6875 C 4.648438 -6.226562 5.359375 -6 6.265625 -6 C 8.171875 -6 9.125 -6.921875 9.125 -8.765625 C 9.125 -10.691406 8.160156 -11.65625 6.234375 -11.65625 C 5.316406 -11.65625 4.613281 -11.410156 4.125 -10.921875 C 3.632812 -10.429688 3.390625 -9.703125 3.390625 -8.734375 Z M 3.390625 -8.734375 "/></g></g><g transform="translate(697.3375, 799.672937)"><g><path d="M 4.015625 0 L 2.0625 0 L 2.0625 -12.84375 L 4.015625 -12.84375 Z M 1.90625 -16.328125 C 1.90625 -16.773438 2.015625 -17.097656 2.234375 -17.296875 C 2.453125 -17.503906 2.722656 -17.609375 3.046875 -17.609375 C 3.359375 -17.609375 3.628906 -17.503906 3.859375 -17.296875 C 4.085938 -17.085938 4.203125 -16.765625 4.203125 -16.328125 C 4.203125 -15.890625 4.085938 -15.5625 3.859375 -15.34375 C 3.628906 -15.132812 3.359375 -15.03125 3.046875 -15.03125 C 2.722656 -15.03125 2.453125 -15.132812 2.234375 -15.34375 C 2.015625 -15.5625 1.90625 -15.890625 1.90625 -16.328125 Z M 1.90625 -16.328125 "/></g></g><g transform="translate(703.407812, 799.672937)"><g><path d="M 10.8125 -1.71875 L 10.703125 -1.71875 C 9.804688 -0.414062 8.460938 0.234375 6.671875 0.234375 C 4.992188 0.234375 3.6875 -0.335938 2.75 -1.484375 C 1.8125 -2.640625 1.34375 -4.273438 1.34375 -6.390625 C 1.34375 -8.503906 1.8125 -10.144531 2.75 -11.3125 C 3.6875 -12.488281 4.992188 -13.078125 6.671875 -13.078125 C 8.410156 -13.078125 9.742188 -12.445312 10.671875 -11.1875 L 10.828125 -11.1875 L 10.75 -12.109375 L 10.703125 -13.015625 L 10.703125 -18.234375 L 12.640625 -18.234375 L 12.640625 0 L 11.0625 0 Z M 6.921875 -1.390625 C 8.242188 -1.390625 9.203125 -1.75 9.796875 -2.46875 C 10.398438 -3.195312 10.703125 -4.367188 10.703125 -5.984375 L 10.703125 -6.390625 C 10.703125 -8.210938 10.398438 -9.507812 9.796875 -10.28125 C 9.191406 -11.0625 8.222656 -11.453125 6.890625 -11.453125 C 5.753906 -11.453125 4.878906 -11.007812 4.265625 -10.125 C 3.660156 -9.238281 3.359375 -7.984375 3.359375 -6.359375 C 3.359375 -4.722656 3.660156 -3.484375 4.265625 -2.640625 C 4.867188 -1.804688 5.753906 -1.390625 6.921875 -1.390625 Z M 6.921875 -1.390625 "/></g></g><g transform="translate(718.114842, 799.672937)"><g><path d="M 13.15625 -6.4375 C 13.15625 -4.34375 12.625 -2.707031 11.5625 -1.53125 C 10.507812 -0.351562 9.054688 0.234375 7.203125 0.234375 C 6.046875 0.234375 5.019531 -0.0351562 4.125 -0.578125 C 3.238281 -1.117188 2.550781 -1.890625 2.0625 -2.890625 C 1.582031 -3.898438 1.34375 -5.082031 1.34375 -6.4375 C 1.34375 -8.53125 1.863281 -10.160156 2.90625 -11.328125 C 3.957031 -12.492188 5.414062 -13.078125 7.28125 -13.078125 C 9.070312 -13.078125 10.5 -12.476562 11.5625 -11.28125 C 12.625 -10.09375 13.15625 -8.476562 13.15625 -6.4375 Z M 3.359375 -6.4375 C 3.359375 -4.789062 3.6875 -3.535156 4.34375 -2.671875 C 5 -1.816406 5.96875 -1.390625 7.25 -1.390625 C 8.519531 -1.390625 9.484375 -1.816406 10.140625 -2.671875 C 10.804688 -3.535156 11.140625 -4.789062 11.140625 -6.4375 C 11.140625 -8.070312 10.804688 -9.3125 10.140625 -10.15625 C 9.484375 -11 8.507812 -11.421875 7.21875 -11.421875 C 5.945312 -11.421875 4.984375 -11.003906 4.328125 -10.171875 C 3.679688 -9.335938 3.359375 -8.09375 3.359375 -6.4375 Z M 3.359375 -6.4375 "/></g></g></g><g fill="#000000" fill-opacity="1"><g transform="translate(822.247649, 119.692499)"><g><path d="M 2.359375 0 L 2.359375 -17.140625 L 4.34375 -17.140625 L 4.34375 0 Z M 2.359375 0 "/></g></g><g transform="translate(828.939054, 119.692499)"><g><path d="M 10.859375 0 L 10.859375 -8.3125 C 10.859375 -9.351562 10.617188 -10.128906 10.140625 -10.640625 C 9.660156 -11.160156 8.914062 -11.421875 7.90625 -11.421875 C 6.5625 -11.421875 5.578125 -11.054688 4.953125 -10.328125 C 4.328125 -9.609375 4.015625 -8.410156 4.015625 -6.734375 L 4.015625 0 L 2.0625 0 L 2.0625 -12.84375 L 3.640625 -12.84375 L 3.96875 -11.09375 L 4.0625 -11.09375 C 4.457031 -11.71875 5.015625 -12.203125 5.734375 -12.546875 C 6.453125 -12.898438 7.253906 -13.078125 8.140625 -13.078125 C 9.679688 -13.078125 10.84375 -12.703125 11.625 -11.953125 C 12.40625 -11.210938 12.796875 -10.019531 12.796875 -8.375 L 12.796875 0 Z M 10.859375 0 "/></g></g><g transform="translate(843.669522, 119.692499)"><g><path d="M 6.21875 -1.375 C 6.5625 -1.375 6.890625 -1.398438 7.203125 -1.453125 C 7.523438 -1.503906 7.78125 -1.554688 7.96875 -1.609375 L 7.96875 -0.125 C 7.757812 -0.0195312 7.445312 0.0625 7.03125 0.125 C 6.625 0.195312 6.257812 0.234375 5.9375 0.234375 C 3.445312 0.234375 2.203125 -1.070312 2.203125 -3.6875 L 2.203125 -11.328125 L 0.359375 -11.328125 L 0.359375 -12.265625 L 2.203125 -13.078125 L 3.03125 -15.828125 L 4.15625 -15.828125 L 4.15625 -12.84375 L 7.875 -12.84375 L 7.875 -11.328125 L 4.15625 -11.328125 L 4.15625 -3.78125 C 4.15625 -3 4.335938 -2.398438 4.703125 -1.984375 C 5.066406 -1.578125 5.570312 -1.375 6.21875 -1.375 Z M 6.21875 -1.375 "/></g></g><g transform="translate(852.142178, 119.692499)"><g><path d="M 7.484375 0.234375 C 5.585938 0.234375 4.085938 -0.34375 2.984375 -1.5 C 1.890625 -2.65625 1.34375 -4.257812 1.34375 -6.3125 C 1.34375 -8.382812 1.851562 -10.03125 2.875 -11.25 C 3.894531 -12.46875 5.265625 -13.078125 6.984375 -13.078125 C 8.597656 -13.078125 9.875 -12.546875 10.8125 -11.484375 C 11.75 -10.429688 12.21875 -9.035156 12.21875 -7.296875 L 12.21875 -6.078125 L 3.359375 -6.078125 C 3.398438 -4.566406 3.78125 -3.421875 4.5 -2.640625 C 5.226562 -1.859375 6.25 -1.46875 7.5625 -1.46875 C 8.945312 -1.46875 10.3125 -1.753906 11.65625 -2.328125 L 11.65625 -0.59375 C 10.96875 -0.300781 10.316406 -0.09375 9.703125 0.03125 C 9.097656 0.164062 8.359375 0.234375 7.484375 0.234375 Z M 6.96875 -11.453125 C 5.9375 -11.453125 5.113281 -11.113281 4.5 -10.4375 C 3.882812 -9.769531 3.519531 -8.84375 3.40625 -7.65625 L 10.125 -7.65625 C 10.125 -8.882812 9.847656 -9.820312 9.296875 -10.46875 C 8.753906 -11.125 7.976562 -11.453125 6.96875 -11.453125 Z M 6.96875 -11.453125 "/></g></g><g transform="translate(865.607021, 119.692499)"><g><path d="M 7.921875 -13.078125 C 8.492188 -13.078125 9.003906 -13.03125 9.453125 -12.9375 L 9.1875 -11.140625 C 8.65625 -11.253906 8.1875 -11.3125 7.78125 -11.3125 C 6.738281 -11.3125 5.847656 -10.890625 5.109375 -10.046875 C 4.378906 -9.203125 4.015625 -8.148438 4.015625 -6.890625 L 4.015625 0 L 2.0625 0 L 2.0625 -12.84375 L 3.671875 -12.84375 L 3.890625 -10.46875 L 3.984375 -10.46875 C 4.460938 -11.300781 5.035156 -11.941406 5.703125 -12.390625 C 6.378906 -12.847656 7.117188 -13.078125 7.921875 -13.078125 Z M 7.921875 -13.078125 "/></g></g><g transform="translate(875.403896, 119.692499)"><g><path d="M 7.484375 0.234375 C 5.585938 0.234375 4.085938 -0.34375 2.984375 -1.5 C 1.890625 -2.65625 1.34375 -4.257812 1.34375 -6.3125 C 1.34375 -8.382812 1.851562 -10.03125 2.875 -11.25 C 3.894531 -12.46875 5.265625 -13.078125 6.984375 -13.078125 C 8.597656 -13.078125 9.875 -12.546875 10.8125 -11.484375 C 11.75 -10.429688 12.21875 -9.035156 12.21875 -7.296875 L 12.21875 -6.078125 L 3.359375 -6.078125 C 3.398438 -4.566406 3.78125 -3.421875 4.5 -2.640625 C 5.226562 -1.859375 6.25 -1.46875 7.5625 -1.46875 C 8.945312 -1.46875 10.3125 -1.753906 11.65625 -2.328125 L 11.65625 -0.59375 C 10.96875 -0.300781 10.316406 -0.09375 9.703125 0.03125 C 9.097656 0.164062 8.359375 0.234375 7.484375 0.234375 Z M 6.96875 -11.453125 C 5.9375 -11.453125 5.113281 -11.113281 4.5 -10.4375 C 3.882812 -9.769531 3.519531 -8.84375 3.40625 -7.65625 L 10.125 -7.65625 C 10.125 -8.882812 9.847656 -9.820312 9.296875 -10.46875 C 8.753906 -11.125 7.976562 -11.453125 6.96875 -11.453125 Z M 5.53125 -14.84375 C 5.90625 -15.320312 6.304688 -15.90625 6.734375 -16.59375 C 7.171875 -17.28125 7.515625 -17.878906 7.765625 -18.390625 L 10.140625 -18.390625 L 10.140625 -18.140625 C 9.796875 -17.628906 9.28125 -17.003906 8.59375 -16.265625 C 7.914062 -15.523438 7.328125 -14.953125 6.828125 -14.546875 L 5.53125 -14.546875 Z M 5.53125 -14.84375 "/></g></g><g transform="translate(888.868739, 119.692499)"><g><path d="M 10.34375 -3.5 C 10.34375 -2.3125 9.894531 -1.390625 9 -0.734375 C 8.113281 -0.0859375 6.867188 0.234375 5.265625 0.234375 C 3.554688 0.234375 2.226562 -0.0351562 1.28125 -0.578125 L 1.28125 -2.375 C 1.894531 -2.0625 2.554688 -1.816406 3.265625 -1.640625 C 3.972656 -1.460938 4.65625 -1.375 5.3125 -1.375 C 6.320312 -1.375 7.097656 -1.535156 7.640625 -1.859375 C 8.191406 -2.179688 8.46875 -2.675781 8.46875 -3.34375 C 8.46875 -3.84375 8.25 -4.269531 7.8125 -4.625 C 7.382812 -4.976562 6.539062 -5.398438 5.28125 -5.890625 C 4.09375 -6.328125 3.242188 -6.710938 2.734375 -7.046875 C 2.234375 -7.378906 1.859375 -7.753906 1.609375 -8.171875 C 1.367188 -8.597656 1.25 -9.101562 1.25 -9.6875 C 1.25 -10.738281 1.671875 -11.566406 2.515625 -12.171875 C 3.367188 -12.773438 4.539062 -13.078125 6.03125 -13.078125 C 7.40625 -13.078125 8.753906 -12.796875 10.078125 -12.234375 L 9.390625 -10.65625 C 8.097656 -11.1875 6.929688 -11.453125 5.890625 -11.453125 C 4.960938 -11.453125 4.265625 -11.304688 3.796875 -11.015625 C 3.328125 -10.722656 3.09375 -10.328125 3.09375 -9.828125 C 3.09375 -9.484375 3.179688 -9.1875 3.359375 -8.9375 C 3.535156 -8.695312 3.816406 -8.46875 4.203125 -8.25 C 4.597656 -8.03125 5.347656 -7.710938 6.453125 -7.296875 C 7.984375 -6.742188 9.015625 -6.1875 9.546875 -5.625 C 10.078125 -5.0625 10.34375 -4.351562 10.34375 -3.5 Z M 10.34375 -3.5 "/></g></g><g transform="translate(900.317957, 119.692499)"><g/></g><g transform="translate(906.552332, 119.692499)"><g><path d="M 7.921875 -13.078125 C 8.492188 -13.078125 9.003906 -13.03125 9.453125 -12.9375 L 9.1875 -11.140625 C 8.65625 -11.253906 8.1875 -11.3125 7.78125 -11.3125 C 6.738281 -11.3125 5.847656 -10.890625 5.109375 -10.046875 C 4.378906 -9.203125 4.015625 -8.148438 4.015625 -6.890625 L 4.015625 0 L 2.0625 0 L 2.0625 -12.84375 L 3.671875 -12.84375 L 3.890625 -10.46875 L 3.984375 -10.46875 C 4.460938 -11.300781 5.035156 -11.941406 5.703125 -12.390625 C 6.378906 -12.847656 7.117188 -13.078125 7.921875 -13.078125 Z M 7.921875 -13.078125 "/></g></g><g transform="translate(916.349207, 119.692499)"><g><path d="M 7.484375 0.234375 C 5.585938 0.234375 4.085938 -0.34375 2.984375 -1.5 C 1.890625 -2.65625 1.34375 -4.257812 1.34375 -6.3125 C 1.34375 -8.382812 1.851562 -10.03125 2.875 -11.25 C 3.894531 -12.46875 5.265625 -13.078125 6.984375 -13.078125 C 8.597656 -13.078125 9.875 -12.546875 10.8125 -11.484375 C 11.75 -10.429688 12.21875 -9.035156 12.21875 -7.296875 L 12.21875 -6.078125 L 3.359375 -6.078125 C 3.398438 -4.566406 3.78125 -3.421875 4.5 -2.640625 C 5.226562 -1.859375 6.25 -1.46875 7.5625 -1.46875 C 8.945312 -1.46875 10.3125 -1.753906 11.65625 -2.328125 L 11.65625 -0.59375 C 10.96875 -0.300781 10.316406 -0.09375 9.703125 0.03125 C 9.097656 0.164062 8.359375 0.234375 7.484375 0.234375 Z M 6.96875 -11.453125 C 5.9375 -11.453125 5.113281 -11.113281 4.5 -10.4375 C 3.882812 -9.769531 3.519531 -8.84375 3.40625 -7.65625 L 10.125 -7.65625 C 10.125 -8.882812 9.847656 -9.820312 9.296875 -10.46875 C 8.753906 -11.125 7.976562 -11.453125 6.96875 -11.453125 Z M 6.96875 -11.453125 "/></g></g><g transform="translate(929.81405, 119.692499)"><g><path d="M 10.34375 -3.5 C 10.34375 -2.3125 9.894531 -1.390625 9 -0.734375 C 8.113281 -0.0859375 6.867188 0.234375 5.265625 0.234375 C 3.554688 0.234375 2.226562 -0.0351562 1.28125 -0.578125 L 1.28125 -2.375 C 1.894531 -2.0625 2.554688 -1.816406 3.265625 -1.640625 C 3.972656 -1.460938 4.65625 -1.375 5.3125 -1.375 C 6.320312 -1.375 7.097656 -1.535156 7.640625 -1.859375 C 8.191406 -2.179688 8.46875 -2.675781 8.46875 -3.34375 C 8.46875 -3.84375 8.25 -4.269531 7.8125 -4.625 C 7.382812 -4.976562 6.539062 -5.398438 5.28125 -5.890625 C 4.09375 -6.328125 3.242188 -6.710938 2.734375 -7.046875 C 2.234375 -7.378906 1.859375 -7.753906 1.609375 -8.171875 C 1.367188 -8.597656 1.25 -9.101562 1.25 -9.6875 C 1.25 -10.738281 1.671875 -11.566406 2.515625 -12.171875 C 3.367188 -12.773438 4.539062 -13.078125 6.03125 -13.078125 C 7.40625 -13.078125 8.753906 -12.796875 10.078125 -12.234375 L 9.390625 -10.65625 C 8.097656 -11.1875 6.929688 -11.453125 5.890625 -11.453125 C 4.960938 -11.453125 4.265625 -11.304688 3.796875 -11.015625 C 3.328125 -10.722656 3.09375 -10.328125 3.09375 -9.828125 C 3.09375 -9.484375 3.179688 -9.1875 3.359375 -8.9375 C 3.535156 -8.695312 3.816406 -8.46875 4.203125 -8.25 C 4.597656 -8.03125 5.347656 -7.710938 6.453125 -7.296875 C 7.984375 -6.742188 9.015625 -6.1875 9.546875 -5.625 C 10.078125 -5.0625 10.34375 -4.351562 10.34375 -3.5 Z M 10.34375 -3.5 "/></g></g><g transform="translate(941.263268, 119.692499)"><g><path d="M 6.21875 -1.375 C 6.5625 -1.375 6.890625 -1.398438 7.203125 -1.453125 C 7.523438 -1.503906 7.78125 -1.554688 7.96875 -1.609375 L 7.96875 -0.125 C 7.757812 -0.0195312 7.445312 0.0625 7.03125 0.125 C 6.625 0.195312 6.257812 0.234375 5.9375 0.234375 C 3.445312 0.234375 2.203125 -1.070312 2.203125 -3.6875 L 2.203125 -11.328125 L 0.359375 -11.328125 L 0.359375 -12.265625 L 2.203125 -13.078125 L 3.03125 -15.828125 L 4.15625 -15.828125 L 4.15625 -12.84375 L 7.875 -12.84375 L 7.875 -11.328125 L 4.15625 -11.328125 L 4.15625 -3.78125 C 4.15625 -3 4.335938 -2.398438 4.703125 -1.984375 C 5.066406 -1.578125 5.570312 -1.375 6.21875 -1.375 Z M 6.21875 -1.375 "/></g></g><g transform="translate(949.735924, 119.692499)"><g><path d="M 7.921875 -13.078125 C 8.492188 -13.078125 9.003906 -13.03125 9.453125 -12.9375 L 9.1875 -11.140625 C 8.65625 -11.253906 8.1875 -11.3125 7.78125 -11.3125 C 6.738281 -11.3125 5.847656 -10.890625 5.109375 -10.046875 C 4.378906 -9.203125 4.015625 -8.148438 4.015625 -6.890625 L 4.015625 0 L 2.0625 0 L 2.0625 -12.84375 L 3.671875 -12.84375 L 3.890625 -10.46875 L 3.984375 -10.46875 C 4.460938 -11.300781 5.035156 -11.941406 5.703125 -12.390625 C 6.378906 -12.847656 7.117188 -13.078125 7.921875 -13.078125 Z M 7.921875 -13.078125 "/></g></g><g transform="translate(959.532798, 119.692499)"><g><path d="M 4.015625 0 L 2.0625 0 L 2.0625 -12.84375 L 4.015625 -12.84375 Z M 1.90625 -16.328125 C 1.90625 -16.773438 2.015625 -17.097656 2.234375 -17.296875 C 2.453125 -17.503906 2.722656 -17.609375 3.046875 -17.609375 C 3.359375 -17.609375 3.628906 -17.503906 3.859375 -17.296875 C 4.085938 -17.085938 4.203125 -16.765625 4.203125 -16.328125 C 4.203125 -15.890625 4.085938 -15.5625 3.859375 -15.34375 C 3.628906 -15.132812 3.359375 -15.03125 3.046875 -15.03125 C 2.722656 -15.03125 2.453125 -15.132812 2.234375 -15.34375 C 2.015625 -15.5625 1.90625 -15.890625 1.90625 -16.328125 Z M 1.90625 -16.328125 "/></g></g><g transform="translate(965.603111, 119.692499)"><g><path d="M 10.859375 0 L 10.859375 -8.3125 C 10.859375 -9.351562 10.617188 -10.128906 10.140625 -10.640625 C 9.660156 -11.160156 8.914062 -11.421875 7.90625 -11.421875 C 6.5625 -11.421875 5.578125 -11.054688 4.953125 -10.328125 C 4.328125 -9.609375 4.015625 -8.410156 4.015625 -6.734375 L 4.015625 0 L 2.0625 0 L 2.0625 -12.84375 L 3.640625 -12.84375 L 3.96875 -11.09375 L 4.0625 -11.09375 C 4.457031 -11.71875 5.015625 -12.203125 5.734375 -12.546875 C 6.453125 -12.898438 7.253906 -13.078125 8.140625 -13.078125 C 9.679688 -13.078125 10.84375 -12.703125 11.625 -11.953125 C 12.40625 -11.210938 12.796875 -10.019531 12.796875 -8.375 L 12.796875 0 Z M 10.859375 0 "/></g></g><g transform="translate(980.333579, 119.692499)"><g><path d="M 12.578125 -12.84375 L 12.578125 -11.609375 L 10.203125 -11.328125 C 10.421875 -11.054688 10.613281 -10.695312 10.78125 -10.25 C 10.957031 -9.8125 11.046875 -9.316406 11.046875 -8.765625 C 11.046875 -7.503906 10.613281 -6.5 9.75 -5.75 C 8.894531 -5 7.71875 -4.625 6.21875 -4.625 C 5.832031 -4.625 5.472656 -4.65625 5.140625 -4.71875 C 4.304688 -4.28125 3.890625 -3.734375 3.890625 -3.078125 C 3.890625 -2.722656 4.035156 -2.460938 4.328125 -2.296875 C 4.617188 -2.128906 5.113281 -2.046875 5.8125 -2.046875 L 8.09375 -2.046875 C 9.476562 -2.046875 10.539062 -1.75 11.28125 -1.15625 C 12.03125 -0.570312 12.40625 0.273438 12.40625 1.390625 C 12.40625 2.816406 11.832031 3.898438 10.6875 4.640625 C 9.550781 5.390625 7.890625 5.765625 5.703125 5.765625 C 4.023438 5.765625 2.726562 5.453125 1.8125 4.828125 C 0.90625 4.203125 0.453125 3.320312 0.453125 2.1875 C 0.453125 1.40625 0.703125 0.726562 1.203125 0.15625 C 1.703125 -0.414062 2.40625 -0.804688 3.3125 -1.015625 C 2.988281 -1.160156 2.710938 -1.390625 2.484375 -1.703125 C 2.265625 -2.015625 2.15625 -2.378906 2.15625 -2.796875 C 2.15625 -3.265625 2.28125 -3.671875 2.53125 -4.015625 C 2.78125 -4.367188 3.175781 -4.710938 3.71875 -5.046875 C 3.050781 -5.316406 2.507812 -5.78125 2.09375 -6.4375 C 1.675781 -7.09375 1.46875 -7.84375 1.46875 -8.6875 C 1.46875 -10.09375 1.890625 -11.175781 2.734375 -11.9375 C 3.578125 -12.695312 4.769531 -13.078125 6.3125 -13.078125 C 6.988281 -13.078125 7.597656 -13 8.140625 -12.84375 Z M 2.328125 2.15625 C 2.328125 2.851562 2.617188 3.378906 3.203125 3.734375 C 3.796875 4.097656 4.640625 4.28125 5.734375 4.28125 C 7.367188 4.28125 8.578125 4.035156 9.359375 3.546875 C 10.140625 3.054688 10.53125 2.394531 10.53125 1.5625 C 10.53125 0.863281 10.316406 0.378906 9.890625 0.109375 C 9.460938 -0.160156 8.65625 -0.296875 7.46875 -0.296875 L 5.140625 -0.296875 C 4.253906 -0.296875 3.5625 -0.0859375 3.0625 0.328125 C 2.570312 0.753906 2.328125 1.363281 2.328125 2.15625 Z M 3.390625 -8.734375 C 3.390625 -7.835938 3.640625 -7.15625 4.140625 -6.6875 C 4.648438 -6.226562 5.359375 -6 6.265625 -6 C 8.171875 -6 9.125 -6.921875 9.125 -8.765625 C 9.125 -10.691406 8.160156 -11.65625 6.234375 -11.65625 C 5.316406 -11.65625 4.613281 -11.410156 4.125 -10.921875 C 3.632812 -10.429688 3.390625 -9.703125 3.390625 -8.734375 Z M 3.390625 -8.734375 "/></g></g><g transform="translate(993.482015, 119.692499)"><g><path d="M 4.015625 0 L 2.0625 0 L 2.0625 -12.84375 L 4.015625 -12.84375 Z M 1.90625 -16.328125 C 1.90625 -16.773438 2.015625 -17.097656 2.234375 -17.296875 C 2.453125 -17.503906 2.722656 -17.609375 3.046875 -17.609375 C 3.359375 -17.609375 3.628906 -17.503906 3.859375 -17.296875 C 4.085938 -17.085938 4.203125 -16.765625 4.203125 -16.328125 C 4.203125 -15.890625 4.085938 -15.5625 3.859375 -15.34375 C 3.628906 -15.132812 3.359375 -15.03125 3.046875 -15.03125 C 2.722656 -15.03125 2.453125 -15.132812 2.234375 -15.34375 C 2.015625 -15.5625 1.90625 -15.890625 1.90625 -16.328125 Z M 1.90625 -16.328125 "/></g></g><g transform="translate(999.552328, 119.692499)"><g><path d="M 10.8125 -1.71875 L 10.703125 -1.71875 C 9.804688 -0.414062 8.460938 0.234375 6.671875 0.234375 C 4.992188 0.234375 3.6875 -0.335938 2.75 -1.484375 C 1.8125 -2.640625 1.34375 -4.273438 1.34375 -6.390625 C 1.34375 -8.503906 1.8125 -10.144531 2.75 -11.3125 C 3.6875 -12.488281 4.992188 -13.078125 6.671875 -13.078125 C 8.410156 -13.078125 9.742188 -12.445312 10.671875 -11.1875 L 10.828125 -11.1875 L 10.75 -12.109375 L 10.703125 -13.015625 L 10.703125 -18.234375 L 12.640625 -18.234375 L 12.640625 0 L 11.0625 0 Z M 6.921875 -1.390625 C 8.242188 -1.390625 9.203125 -1.75 9.796875 -2.46875 C 10.398438 -3.195312 10.703125 -4.367188 10.703125 -5.984375 L 10.703125 -6.390625 C 10.703125 -8.210938 10.398438 -9.507812 9.796875 -10.28125 C 9.191406 -11.0625 8.222656 -11.453125 6.890625 -11.453125 C 5.753906 -11.453125 4.878906 -11.007812 4.265625 -10.125 C 3.660156 -9.238281 3.359375 -7.984375 3.359375 -6.359375 C 3.359375 -4.722656 3.660156 -3.484375 4.265625 -2.640625 C 4.867188 -1.804688 5.753906 -1.390625 6.921875 -1.390625 Z M 6.921875 -1.390625 "/></g></g><g transform="translate(1014.259358, 119.692499)"><g><path d="M 13.15625 -6.4375 C 13.15625 -4.34375 12.625 -2.707031 11.5625 -1.53125 C 10.507812 -0.351562 9.054688 0.234375 7.203125 0.234375 C 6.046875 0.234375 5.019531 -0.0351562 4.125 -0.578125 C 3.238281 -1.117188 2.550781 -1.890625 2.0625 -2.890625 C 1.582031 -3.898438 1.34375 -5.082031 1.34375 -6.4375 C 1.34375 -8.53125 1.863281 -10.160156 2.90625 -11.328125 C 3.957031 -12.492188 5.414062 -13.078125 7.28125 -13.078125 C 9.070312 -13.078125 10.5 -12.476562 11.5625 -11.28125 C 12.625 -10.09375 13.15625 -8.476562 13.15625 -6.4375 Z M 3.359375 -6.4375 C 3.359375 -4.789062 3.6875 -3.535156 4.34375 -2.671875 C 5 -1.816406 5.96875 -1.390625 7.25 -1.390625 C 8.519531 -1.390625 9.484375 -1.816406 10.140625 -2.671875 C 10.804688 -3.535156 11.140625 -4.789062 11.140625 -6.4375 C 11.140625 -8.070312 10.804688 -9.3125 10.140625 -10.15625 C 9.484375 -11 8.507812 -11.421875 7.21875 -11.421875 C 5.945312 -11.421875 4.984375 -11.003906 4.328125 -10.171875 C 3.679688 -9.335938 3.359375 -8.09375 3.359375 -6.4375 Z M 3.359375 -6.4375 "/></g></g></g><g fill="#000000" fill-opacity="1"><g transform="translate(902.274988, 154.790157)"><g><path d="M 8.375 0 L 6.484375 0 L 6.484375 -12.21875 C 6.484375 -13.226562 6.515625 -14.1875 6.578125 -15.09375 C 6.410156 -14.925781 6.222656 -14.753906 6.015625 -14.578125 C 5.816406 -14.398438 4.890625 -13.640625 3.234375 -12.296875 L 2.203125 -13.625 L 6.734375 -17.140625 L 8.375 -17.140625 Z M 8.375 0 "/></g></g><g transform="translate(915.997644, 154.790157)"><g><path d="M 6.53125 -10.46875 C 8.332031 -10.46875 9.75 -10.019531 10.78125 -9.125 C 11.820312 -8.226562 12.34375 -7.003906 12.34375 -5.453125 C 12.34375 -3.679688 11.773438 -2.289062 10.640625 -1.28125 C 9.515625 -0.269531 7.960938 0.234375 5.984375 0.234375 C 4.046875 0.234375 2.570312 -0.0703125 1.5625 -0.6875 L 1.5625 -2.5625 C 2.101562 -2.21875 2.78125 -1.941406 3.59375 -1.734375 C 4.40625 -1.535156 5.207031 -1.4375 6 -1.4375 C 7.375 -1.4375 8.441406 -1.757812 9.203125 -2.40625 C 9.960938 -3.0625 10.34375 -4.003906 10.34375 -5.234375 C 10.34375 -7.617188 8.878906 -8.8125 5.953125 -8.8125 C 5.210938 -8.8125 4.222656 -8.695312 2.984375 -8.46875 L 1.96875 -9.125 L 2.609375 -17.140625 L 11.140625 -17.140625 L 11.140625 -15.34375 L 4.28125 -15.34375 L 3.84375 -10.203125 C 4.738281 -10.378906 5.632812 -10.46875 6.53125 -10.46875 Z M 6.53125 -10.46875 "/></g></g><g transform="translate(929.720299, 154.790157)"><g><path d="M 2.84375 -12.03125 C 2.84375 -10.695312 2.984375 -9.695312 3.265625 -9.03125 C 3.554688 -8.375 4.023438 -8.046875 4.671875 -8.046875 C 5.953125 -8.046875 6.59375 -9.375 6.59375 -12.03125 C 6.59375 -14.664062 5.953125 -15.984375 4.671875 -15.984375 C 4.023438 -15.984375 3.554688 -15.65625 3.265625 -15 C 2.984375 -14.34375 2.84375 -13.351562 2.84375 -12.03125 Z M 8.203125 -12.03125 C 8.203125 -10.25 7.898438 -8.898438 7.296875 -7.984375 C 6.703125 -7.078125 5.828125 -6.625 4.671875 -6.625 C 3.578125 -6.625 2.726562 -7.085938 2.125 -8.015625 C 1.519531 -8.941406 1.21875 -10.28125 1.21875 -12.03125 C 1.21875 -13.800781 1.507812 -15.132812 2.09375 -16.03125 C 2.675781 -16.925781 3.535156 -17.375 4.671875 -17.375 C 5.804688 -17.375 6.675781 -16.910156 7.28125 -15.984375 C 7.894531 -15.054688 8.203125 -13.738281 8.203125 -12.03125 Z M 13.15625 -5.15625 C 13.15625 -3.820312 13.296875 -2.820312 13.578125 -2.15625 C 13.867188 -1.5 14.34375 -1.171875 15 -1.171875 C 15.65625 -1.171875 16.140625 -1.492188 16.453125 -2.140625 C 16.765625 -2.796875 16.921875 -3.800781 16.921875 -5.15625 C 16.921875 -6.488281 16.765625 -7.476562 16.453125 -8.125 C 16.140625 -8.769531 15.65625 -9.09375 15 -9.09375 C 14.34375 -9.09375 13.867188 -8.769531 13.578125 -8.125 C 13.296875 -7.476562 13.15625 -6.488281 13.15625 -5.15625 Z M 18.53125 -5.15625 C 18.53125 -3.382812 18.226562 -2.039062 17.625 -1.125 C 17.03125 -0.21875 16.15625 0.234375 15 0.234375 C 13.894531 0.234375 13.039062 -0.226562 12.4375 -1.15625 C 11.84375 -2.09375 11.546875 -3.425781 11.546875 -5.15625 C 11.546875 -6.925781 11.835938 -8.257812 12.421875 -9.15625 C 13.003906 -10.0625 13.863281 -10.515625 15 -10.515625 C 16.113281 -10.515625 16.976562 -10.054688 17.59375 -9.140625 C 18.21875 -8.222656 18.53125 -6.894531 18.53125 -5.15625 Z M 15.5 -17.140625 L 6 0 L 4.28125 0 L 13.78125 -17.140625 Z M 15.5 -17.140625 "/></g></g></g></svg>