<svg xmlns="http://www.w3.org/2000/svg" xmlns:xlink="http://www.w3.org/1999/xlink" width="1920" zoomAndPan="magnify" viewBox="0 0 1440 809.999993" height="1080" preserveAspectRatio="xMidYMid meet" version="1.0"><defs><g/></defs><rect x="-144" width="1728" fill="#ffffff" y="-80.999999" height="971.999992" fill-opacity="1"/><rect x="-144" width="1728" fill="#ffffff" y="-80.999999" height="971.999992" fill-opacity="1"/><path stroke-linecap="round" transform="matrix(0.811984, 0, 0, 0.811984, 192.358194, 60.464314)" fill="none" stroke-linejoin="miter" d="M 165.40929 202.49933 L 165.40929 202.49933 " stroke="#ff83b7" stroke-width="22" stroke-opacity="1" stroke-miterlimit="4"/><path stroke-linecap="round" transform="matrix(0.811984, 0, 0, 0.811984, 192.358194, 60.464314)" fill="none" stroke-linejoin="miter" d="M 165.40929 688.500004 C 165.40929 688.500004 496.22496 583.197613 496.22496 583.197613 " stroke="#ec79ff" stroke-width="22" stroke-opacity="1" stroke-miterlimit="4"/><path stroke-linecap="round" transform="matrix(0.811984, 0, 0, 0.811984, 192.358194, 60.464314)" fill="none" stroke-linejoin="miter" d="M 165.40929 202.49933 C 165.40929 202.49933 496.22496 40.502312 496.22496 40.502312 " stroke="#ff83b7" stroke-width="22" stroke-opacity="1" stroke-miterlimit="4"/><path stroke-linecap="round" transform="matrix(0.811984, 0, 0, 0.811984, 192.358194, 60.464314)" fill="none" stroke-linejoin="miter" d="M 827.040631 688.500004 C 827.040631 688.500004 1157.856302 607.501495 1157.856302 607.501495 " stroke="#ffa2ac" stroke-width="22" stroke-opacity="1" stroke-miterlimit="4"/><path fill="#ff83b7" d="M 333.972656 224.890625 C 333.972656 224.410156 333.925781 223.9375 333.835938 223.464844 C 333.742188 222.996094 333.601562 222.539062 333.417969 222.09375 C 333.234375 221.652344 333.007812 221.230469 332.742188 220.832031 C 332.476562 220.433594 332.171875 220.0625 331.835938 219.722656 C 331.496094 219.382812 331.125 219.082031 330.726562 218.816406 C 330.328125 218.546875 329.90625 218.324219 329.464844 218.140625 C 329.019531 217.957031 328.5625 217.816406 328.09375 217.722656 C 327.621094 217.628906 327.148438 217.582031 326.667969 217.582031 C 326.1875 217.582031 325.710938 217.628906 325.242188 217.722656 C 324.769531 217.816406 324.3125 217.957031 323.871094 218.140625 C 323.425781 218.324219 323.003906 218.546875 322.605469 218.816406 C 322.207031 219.082031 321.839844 219.382812 321.5 219.722656 C 321.160156 220.0625 320.855469 220.433594 320.589844 220.832031 C 320.324219 221.230469 320.097656 221.652344 319.914062 222.09375 C 319.730469 222.539062 319.59375 222.996094 319.5 223.464844 C 319.40625 223.9375 319.359375 224.410156 319.359375 224.890625 C 319.359375 225.371094 319.40625 225.847656 319.5 226.316406 C 319.59375 226.789062 319.730469 227.246094 319.914062 227.6875 C 320.097656 228.132812 320.324219 228.550781 320.589844 228.953125 C 320.855469 229.351562 321.160156 229.71875 321.5 230.058594 C 321.839844 230.398438 322.207031 230.699219 322.605469 230.96875 C 323.003906 231.234375 323.425781 231.460938 323.871094 231.644531 C 324.3125 231.828125 324.769531 231.964844 325.242188 232.058594 C 325.710938 232.152344 326.1875 232.199219 326.667969 232.199219 C 327.148438 232.199219 327.621094 232.152344 328.09375 232.058594 C 328.5625 231.964844 329.019531 231.828125 329.464844 231.644531 C 329.90625 231.460938 330.328125 231.234375 330.726562 230.96875 C 331.125 230.699219 331.496094 230.398438 331.835938 230.058594 C 332.171875 229.71875 332.476562 229.351562 332.742188 228.953125 C 333.007812 228.550781 333.234375 228.132812 333.417969 227.6875 C 333.601562 227.246094 333.742188 226.789062 333.835938 226.316406 C 333.925781 225.847656 333.972656 225.371094 333.972656 224.890625 Z M 333.972656 224.890625 " fill-opacity="1" fill-rule="nonzero"/><path fill="#ec79ff" d="M 333.972656 619.515625 C 333.972656 619.035156 333.925781 618.5625 333.835938 618.089844 C 333.742188 617.621094 333.601562 617.164062 333.417969 616.71875 C 333.234375 616.277344 333.007812 615.855469 332.742188 615.457031 C 332.476562 615.054688 332.171875 614.6875 331.835938 614.347656 C 331.496094 614.007812 331.125 613.707031 330.726562 613.4375 C 330.328125 613.171875 329.90625 612.949219 329.464844 612.765625 C 329.019531 612.582031 328.5625 612.441406 328.09375 612.347656 C 327.621094 612.253906 327.148438 612.207031 326.667969 612.207031 C 326.1875 612.207031 325.710938 612.253906 325.242188 612.347656 C 324.769531 612.441406 324.3125 612.582031 323.871094 612.765625 C 323.425781 612.949219 323.003906 613.171875 322.605469 613.4375 C 322.207031 613.707031 321.839844 614.007812 321.5 614.347656 C 321.160156 614.6875 320.855469 615.054688 320.589844 615.457031 C 320.324219 615.855469 320.097656 616.277344 319.914062 616.71875 C 319.730469 617.164062 319.59375 617.621094 319.5 618.089844 C 319.40625 618.5625 319.359375 619.035156 319.359375 619.515625 C 319.359375 619.996094 319.40625 620.46875 319.5 620.941406 C 319.59375 621.410156 319.730469 621.867188 319.914062 622.3125 C 320.097656 622.753906 320.324219 623.175781 320.589844 623.574219 C 320.855469 623.976562 321.160156 624.34375 321.5 624.683594 C 321.839844 625.023438 322.207031 625.324219 322.605469 625.59375 C 323.003906 625.859375 323.425781 626.082031 323.871094 626.265625 C 324.3125 626.449219 324.769531 626.589844 325.242188 626.683594 C 325.710938 626.777344 326.1875 626.824219 326.667969 626.824219 C 327.148438 626.824219 327.621094 626.777344 328.09375 626.683594 C 328.5625 626.589844 329.019531 626.449219 329.464844 626.265625 C 329.90625 626.082031 330.328125 625.859375 330.726562 625.59375 C 331.125 625.324219 331.496094 625.023438 331.835938 624.683594 C 332.171875 624.34375 332.476562 623.976562 332.742188 623.574219 C 333.007812 623.175781 333.234375 622.753906 333.417969 622.3125 C 333.601562 621.867188 333.742188 621.410156 333.835938 620.941406 C 333.925781 620.46875 333.972656 619.996094 333.972656 619.515625 Z M 333.972656 619.515625 " fill-opacity="1" fill-rule="nonzero"/><path fill="#ec79ff" d="M 602.589844 534.011719 C 602.589844 533.535156 602.542969 533.058594 602.449219 532.589844 C 602.359375 532.117188 602.21875 531.660156 602.035156 531.21875 C 601.851562 530.773438 601.625 530.351562 601.359375 529.953125 C 601.09375 529.554688 600.789062 529.183594 600.449219 528.847656 C 600.113281 528.507812 599.742188 528.203125 599.34375 527.9375 C 598.945312 527.671875 598.523438 527.445312 598.082031 527.261719 C 597.636719 527.078125 597.179688 526.941406 596.710938 526.847656 C 596.238281 526.753906 595.761719 526.707031 595.285156 526.707031 C 594.804688 526.707031 594.328125 526.753906 593.859375 526.847656 C 593.386719 526.941406 592.929688 527.078125 592.488281 527.261719 C 592.042969 527.445312 591.621094 527.671875 591.222656 527.9375 C 590.824219 528.203125 590.457031 528.507812 590.117188 528.847656 C 589.777344 529.183594 589.472656 529.554688 589.207031 529.953125 C 588.941406 530.351562 588.714844 530.773438 588.53125 531.21875 C 588.347656 531.660156 588.210938 532.117188 588.117188 532.585938 C 588.023438 533.058594 587.976562 533.535156 587.976562 534.011719 C 587.976562 534.492188 588.023438 534.96875 588.117188 535.4375 C 588.210938 535.910156 588.347656 536.367188 588.53125 536.808594 C 588.714844 537.253906 588.941406 537.675781 589.207031 538.074219 C 589.472656 538.472656 589.777344 538.839844 590.117188 539.179688 C 590.457031 539.519531 590.824219 539.824219 591.222656 540.089844 C 591.621094 540.355469 592.042969 540.582031 592.488281 540.765625 C 592.929688 540.949219 593.386719 541.085938 593.859375 541.179688 C 594.328125 541.273438 594.804688 541.320312 595.285156 541.320312 C 595.761719 541.320312 596.238281 541.273438 596.710938 541.179688 C 597.179688 541.085938 597.636719 540.949219 598.082031 540.765625 C 598.523438 540.582031 598.945312 540.355469 599.34375 540.089844 C 599.742188 539.824219 600.113281 539.519531 600.449219 539.179688 C 600.789062 538.839844 601.09375 538.472656 601.359375 538.074219 C 601.625 537.675781 601.851562 537.253906 602.035156 536.808594 C 602.21875 536.367188 602.359375 535.910156 602.449219 535.4375 C 602.542969 534.96875 602.589844 534.492188 602.589844 534.011719 Z M 602.589844 534.011719 " fill-opacity="1" fill-rule="nonzero"/><path fill="#ff83b7" d="M 333.972656 224.890625 C 333.972656 224.410156 333.925781 223.9375 333.835938 223.464844 C 333.742188 222.996094 333.601562 222.539062 333.417969 222.09375 C 333.234375 221.652344 333.007812 221.230469 332.742188 220.832031 C 332.476562 220.433594 332.171875 220.0625 331.835938 219.722656 C 331.496094 219.382812 331.125 219.082031 330.726562 218.816406 C 330.328125 218.546875 329.90625 218.324219 329.464844 218.140625 C 329.019531 217.957031 328.5625 217.816406 328.09375 217.722656 C 327.621094 217.628906 327.148438 217.582031 326.667969 217.582031 C 326.1875 217.582031 325.710938 217.628906 325.242188 217.722656 C 324.769531 217.816406 324.3125 217.957031 323.871094 218.140625 C 323.425781 218.324219 323.003906 218.546875 322.605469 218.816406 C 322.207031 219.082031 321.839844 219.382812 321.5 219.722656 C 321.160156 220.0625 320.855469 220.433594 320.589844 220.832031 C 320.324219 221.230469 320.097656 221.652344 319.914062 222.09375 C 319.730469 222.539062 319.59375 222.996094 319.5 223.464844 C 319.40625 223.9375 319.359375 224.410156 319.359375 224.890625 C 319.359375 225.371094 319.40625 225.847656 319.5 226.316406 C 319.59375 226.789062 319.730469 227.246094 319.914062 227.6875 C 320.097656 228.132812 320.324219 228.550781 320.589844 228.953125 C 320.855469 229.351562 321.160156 229.71875 321.5 230.058594 C 321.839844 230.398438 322.207031 230.699219 322.605469 230.96875 C 323.003906 231.234375 323.425781 231.460938 323.871094 231.644531 C 324.3125 231.828125 324.769531 231.964844 325.242188 232.058594 C 325.710938 232.152344 326.1875 232.199219 326.667969 232.199219 C 327.148438 232.199219 327.621094 232.152344 328.09375 232.058594 C 328.5625 231.964844 329.019531 231.828125 329.464844 231.644531 C 329.90625 231.460938 330.328125 231.234375 330.726562 230.96875 C 331.125 230.699219 331.496094 230.398438 331.835938 230.058594 C 332.171875 229.71875 332.476562 229.351562 332.742188 228.953125 C 333.007812 228.550781 333.234375 228.132812 333.417969 227.6875 C 333.601562 227.246094 333.742188 226.789062 333.835938 226.316406 C 333.925781 225.847656 333.972656 225.371094 333.972656 224.890625 Z M 333.972656 224.890625 " fill-opacity="1" fill-rule="nonzero"/><path fill="#ff83b7" d="M 602.589844 93.351562 C 602.589844 92.871094 602.542969 92.394531 602.449219 91.925781 C 602.359375 91.453125 602.21875 90.996094 602.035156 90.554688 C 601.851562 90.109375 601.625 89.6875 601.359375 89.289062 C 601.09375 88.890625 600.789062 88.523438 600.449219 88.183594 C 600.113281 87.84375 599.742188 87.539062 599.34375 87.273438 C 598.945312 87.007812 598.523438 86.78125 598.082031 86.597656 C 597.636719 86.414062 597.179688 86.277344 596.710938 86.183594 C 596.238281 86.089844 595.761719 86.042969 595.285156 86.042969 C 594.804688 86.042969 594.328125 86.089844 593.859375 86.183594 C 593.386719 86.277344 592.929688 86.414062 592.488281 86.597656 C 592.042969 86.78125 591.621094 87.007812 591.222656 87.273438 C 590.824219 87.539062 590.457031 87.84375 590.117188 88.183594 C 589.777344 88.523438 589.472656 88.890625 589.207031 89.289062 C 588.941406 89.6875 588.714844 90.109375 588.53125 90.554688 C 588.347656 90.996094 588.210938 91.453125 588.117188 91.925781 C 588.023438 92.394531 587.976562 92.871094 587.976562 93.351562 C 587.976562 93.828125 588.023438 94.304688 588.117188 94.773438 C 588.210938 95.246094 588.347656 95.703125 588.53125 96.144531 C 588.714844 96.589844 588.941406 97.011719 589.207031 97.410156 C 589.472656 97.808594 589.777344 98.179688 590.117188 98.515625 C 590.457031 98.855469 590.824219 99.160156 591.222656 99.425781 C 591.621094 99.691406 592.042969 99.917969 592.488281 100.101562 C 592.929688 100.285156 593.386719 100.421875 593.859375 100.515625 C 594.328125 100.609375 594.804688 100.65625 595.285156 100.65625 C 595.761719 100.65625 596.238281 100.609375 596.710938 100.515625 C 597.179688 100.421875 597.636719 100.285156 598.082031 100.101562 C 598.523438 99.917969 598.945312 99.691406 599.34375 99.425781 C 599.742188 99.160156 600.113281 98.855469 600.449219 98.515625 C 600.789062 98.179688 601.09375 97.808594 601.359375 97.410156 C 601.625 97.011719 601.851562 96.589844 602.035156 96.144531 C 602.21875 95.703125 602.359375 95.246094 602.449219 94.773438 C 602.542969 94.304688 602.589844 93.828125 602.589844 93.351562 Z M 602.589844 93.351562 " fill-opacity="1" fill-rule="nonzero"/><path fill="#ffa2ac" d="M 871.207031 619.515625 C 871.207031 619.035156 871.160156 618.5625 871.066406 618.089844 C 870.972656 617.621094 870.835938 617.164062 870.652344 616.71875 C 870.46875 616.277344 870.242188 615.855469 869.976562 615.457031 C 869.710938 615.054688 869.40625 614.6875 869.066406 614.347656 C 868.730469 614.007812 868.359375 613.707031 867.960938 613.4375 C 867.5625 613.171875 867.140625 612.949219 866.695312 612.765625 C 866.253906 612.582031 865.796875 612.441406 865.328125 612.347656 C 864.855469 612.253906 864.378906 612.207031 863.902344 612.207031 C 863.421875 612.207031 862.945312 612.253906 862.476562 612.347656 C 862.003906 612.441406 861.546875 612.582031 861.105469 612.765625 C 860.660156 612.949219 860.238281 613.171875 859.839844 613.4375 C 859.441406 613.707031 859.074219 614.007812 858.734375 614.347656 C 858.394531 614.6875 858.089844 615.054688 857.824219 615.457031 C 857.558594 615.855469 857.332031 616.277344 857.148438 616.71875 C 856.964844 617.164062 856.828125 617.621094 856.734375 618.089844 C 856.640625 618.5625 856.59375 619.035156 856.59375 619.515625 C 856.59375 619.996094 856.640625 620.46875 856.734375 620.941406 C 856.828125 621.410156 856.964844 621.867188 857.148438 622.3125 C 857.332031 622.753906 857.558594 623.175781 857.824219 623.574219 C 858.089844 623.976562 858.394531 624.34375 858.734375 624.683594 C 859.074219 625.023438 859.441406 625.324219 859.839844 625.59375 C 860.238281 625.859375 860.660156 626.082031 861.105469 626.265625 C 861.546875 626.449219 862.003906 626.589844 862.476562 626.683594 C 862.945312 626.777344 863.421875 626.824219 863.902344 626.824219 C 864.378906 626.824219 864.855469 626.777344 865.328125 626.683594 C 865.796875 626.589844 866.253906 626.449219 866.695312 626.265625 C 867.140625 626.082031 867.5625 625.859375 867.960938 625.59375 C 868.359375 625.324219 868.730469 625.023438 869.066406 624.683594 C 869.40625 624.34375 869.710938 623.976562 869.976562 623.574219 C 870.242188 623.175781 870.46875 622.753906 870.652344 622.3125 C 870.835938 621.867188 870.972656 621.410156 871.066406 620.941406 C 871.160156 620.46875 871.207031 619.996094 871.207031 619.515625 Z M 871.207031 619.515625 " fill-opacity="1" fill-rule="nonzero"/><path fill="#ffa2ac" d="M 1139.824219 553.746094 C 1139.824219 553.265625 1139.777344 552.789062 1139.683594 552.320312 C 1139.589844 551.847656 1139.453125 551.390625 1139.269531 550.949219 C 1139.085938 550.503906 1138.859375 550.082031 1138.59375 549.683594 C 1138.328125 549.285156 1138.023438 548.917969 1137.683594 548.578125 C 1137.34375 548.238281 1136.976562 547.933594 1136.578125 547.667969 C 1136.179688 547.402344 1135.757812 547.175781 1135.3125 546.992188 C 1134.871094 546.808594 1134.414062 546.671875 1133.941406 546.578125 C 1133.472656 546.484375 1132.996094 546.4375 1132.519531 546.4375 C 1132.039062 546.4375 1131.5625 546.484375 1131.09375 546.578125 C 1130.621094 546.671875 1130.164062 546.808594 1129.722656 546.992188 C 1129.277344 547.175781 1128.855469 547.402344 1128.457031 547.667969 C 1128.058594 547.933594 1127.6875 548.238281 1127.351562 548.578125 C 1127.011719 548.917969 1126.707031 549.285156 1126.441406 549.683594 C 1126.175781 550.082031 1125.949219 550.503906 1125.765625 550.949219 C 1125.582031 551.390625 1125.445312 551.847656 1125.351562 552.320312 C 1125.257812 552.789062 1125.210938 553.265625 1125.210938 553.746094 C 1125.210938 554.226562 1125.257812 554.699219 1125.351562 555.171875 C 1125.445312 555.640625 1125.582031 556.097656 1125.765625 556.542969 C 1125.949219 556.984375 1126.175781 557.40625 1126.441406 557.804688 C 1126.707031 558.203125 1127.011719 558.574219 1127.351562 558.914062 C 1127.6875 559.25 1128.058594 559.554688 1128.457031 559.820312 C 1128.855469 560.085938 1129.277344 560.3125 1129.722656 560.496094 C 1130.164062 560.679688 1130.621094 560.820312 1131.09375 560.914062 C 1131.5625 561.007812 1132.039062 561.050781 1132.519531 561.054688 C 1132.996094 561.050781 1133.472656 561.007812 1133.941406 560.914062 C 1134.414062 560.820312 1134.871094 560.679688 1135.3125 560.496094 C 1135.757812 560.3125 1136.179688 560.085938 1136.578125 559.820312 C 1136.976562 559.554688 1137.34375 559.25 1137.683594 558.914062 C 1138.023438 558.574219 1138.328125 558.203125 1138.59375 557.804688 C 1138.859375 557.40625 1139.085938 556.984375 1139.269531 556.542969 C 1139.453125 556.097656 1139.589844 555.640625 1139.683594 555.171875 C 1139.777344 554.699219 1139.824219 554.226562 1139.824219 553.746094 Z M 1139.824219 553.746094 " fill-opacity="1" fill-rule="nonzero"/><g fill="#000000" fill-opacity="1"><g transform="translate(218.825018, 753.595518)"><g><path d="M 19.53125 0 L 14.328125 0 L 5.953125 -14.578125 L 5.828125 -14.578125 C 5.992188 -12.003906 6.078125 -10.171875 6.078125 -9.078125 L 6.078125 0 L 2.421875 0 L 2.421875 -19.28125 L 7.578125 -19.28125 L 15.953125 -4.84375 L 16.046875 -4.84375 C 15.910156 -7.34375 15.84375 -9.113281 15.84375 -10.15625 L 15.84375 -19.28125 L 19.53125 -19.28125 Z M 19.53125 0 "/></g></g><g transform="translate(240.774468, 753.595518)"><g><path d="M 5.3125 -7.390625 C 5.3125 -5.929688 5.550781 -4.828125 6.03125 -4.078125 C 6.507812 -3.335938 7.289062 -2.96875 8.375 -2.96875 C 9.445312 -2.96875 10.21875 -3.335938 10.6875 -4.078125 C 11.15625 -4.816406 11.390625 -5.921875 11.390625 -7.390625 C 11.390625 -8.847656 11.148438 -9.941406 10.671875 -10.671875 C 10.203125 -11.398438 9.425781 -11.765625 8.34375 -11.765625 C 7.269531 -11.765625 6.492188 -11.398438 6.015625 -10.671875 C 5.546875 -9.953125 5.3125 -8.859375 5.3125 -7.390625 Z M 15.5 -7.390625 C 15.5 -4.992188 14.863281 -3.117188 13.59375 -1.765625 C 12.332031 -0.410156 10.570312 0.265625 8.3125 0.265625 C 6.90625 0.265625 5.660156 -0.0390625 4.578125 -0.65625 C 3.492188 -1.28125 2.660156 -2.171875 2.078125 -3.328125 C 1.503906 -4.492188 1.21875 -5.847656 1.21875 -7.390625 C 1.21875 -9.804688 1.84375 -11.679688 3.09375 -13.015625 C 4.351562 -14.347656 6.117188 -15.015625 8.390625 -15.015625 C 9.804688 -15.015625 11.054688 -14.707031 12.140625 -14.09375 C 13.222656 -13.476562 14.050781 -12.59375 14.625 -11.4375 C 15.207031 -10.289062 15.5 -8.941406 15.5 -7.390625 Z M 15.5 -7.390625 "/></g></g><g transform="translate(257.490327, 753.595518)"><g><path d="M 0.796875 -5.59375 L 0.796875 -8.890625 L 7.890625 -8.890625 L 7.890625 -5.59375 Z M 0.796875 -5.59375 "/></g></g><g transform="translate(266.177827, 753.595518)"><g/></g><g transform="translate(273.191105, 753.595518)"><g><path d="M 19.53125 0 L 14.328125 0 L 5.953125 -14.578125 L 5.828125 -14.578125 C 5.992188 -12.003906 6.078125 -10.171875 6.078125 -9.078125 L 6.078125 0 L 2.421875 0 L 2.421875 -19.28125 L 7.578125 -19.28125 L 15.953125 -4.84375 L 16.046875 -4.84375 C 15.910156 -7.34375 15.84375 -9.113281 15.84375 -10.15625 L 15.84375 -19.28125 L 19.53125 -19.28125 Z M 19.53125 0 "/></g></g><g transform="translate(295.140556, 753.595518)"><g><path d="M 8.21875 -12.15625 C 7.363281 -12.15625 6.691406 -11.882812 6.203125 -11.34375 C 5.722656 -10.800781 5.445312 -10.035156 5.375 -9.046875 L 11.015625 -9.046875 C 11.003906 -10.035156 10.75 -10.800781 10.25 -11.34375 C 9.75 -11.882812 9.070312 -12.15625 8.21875 -12.15625 Z M 8.78125 0.265625 C 6.40625 0.265625 4.550781 -0.390625 3.21875 -1.703125 C 1.882812 -3.015625 1.21875 -4.867188 1.21875 -7.265625 C 1.21875 -9.734375 1.832031 -11.640625 3.0625 -12.984375 C 4.300781 -14.335938 6.007812 -15.015625 8.1875 -15.015625 C 10.269531 -15.015625 11.890625 -14.421875 13.046875 -13.234375 C 14.210938 -12.046875 14.796875 -10.40625 14.796875 -8.3125 L 14.796875 -6.375 L 5.28125 -6.375 C 5.332031 -5.226562 5.671875 -4.332031 6.296875 -3.6875 C 6.929688 -3.050781 7.820312 -2.734375 8.96875 -2.734375 C 9.851562 -2.734375 10.691406 -2.820312 11.484375 -3 C 12.273438 -3.1875 13.101562 -3.484375 13.96875 -3.890625 L 13.96875 -0.78125 C 13.257812 -0.425781 12.503906 -0.164062 11.703125 0 C 10.898438 0.175781 9.925781 0.265625 8.78125 0.265625 Z M 8.78125 0.265625 "/></g></g><g transform="translate(311.091808, 753.595518)"><g><path d="M 12.546875 0 L 12.015625 -1.890625 L 11.796875 -1.890625 C 11.367188 -1.203125 10.757812 -0.671875 9.96875 -0.296875 C 9.175781 0.078125 8.273438 0.265625 7.265625 0.265625 C 5.535156 0.265625 4.226562 -0.195312 3.34375 -1.125 C 2.46875 -2.050781 2.03125 -3.382812 2.03125 -5.125 L 2.03125 -14.734375 L 6.046875 -14.734375 L 6.046875 -6.125 C 6.046875 -5.0625 6.234375 -4.265625 6.609375 -3.734375 C 6.992188 -3.203125 7.597656 -2.9375 8.421875 -2.9375 C 9.546875 -2.9375 10.359375 -3.3125 10.859375 -4.0625 C 11.359375 -4.8125 11.609375 -6.0625 11.609375 -7.8125 L 11.609375 -14.734375 L 15.640625 -14.734375 L 15.640625 0 Z M 12.546875 0 "/></g></g><g transform="translate(328.835929, 753.595518)"><g><path d="M 10.34375 -15.015625 C 10.882812 -15.015625 11.332031 -14.972656 11.6875 -14.890625 L 11.390625 -11.125 C 11.066406 -11.21875 10.671875 -11.265625 10.203125 -11.265625 C 8.921875 -11.265625 7.921875 -10.929688 7.203125 -10.265625 C 6.484375 -9.609375 6.125 -8.6875 6.125 -7.5 L 6.125 0 L 2.109375 0 L 2.109375 -14.734375 L 5.15625 -14.734375 L 5.75 -12.265625 L 5.953125 -12.265625 C 6.398438 -13.085938 7.015625 -13.75 7.796875 -14.25 C 8.578125 -14.757812 9.425781 -15.015625 10.34375 -15.015625 Z M 10.34375 -15.015625 "/></g></g><g transform="translate(341.095982, 753.595518)"><g><path d="M 5.3125 -7.390625 C 5.3125 -5.929688 5.550781 -4.828125 6.03125 -4.078125 C 6.507812 -3.335938 7.289062 -2.96875 8.375 -2.96875 C 9.445312 -2.96875 10.21875 -3.335938 10.6875 -4.078125 C 11.15625 -4.816406 11.390625 -5.921875 11.390625 -7.390625 C 11.390625 -8.847656 11.148438 -9.941406 10.671875 -10.671875 C 10.203125 -11.398438 9.425781 -11.765625 8.34375 -11.765625 C 7.269531 -11.765625 6.492188 -11.398438 6.015625 -10.671875 C 5.546875 -9.953125 5.3125 -8.859375 5.3125 -7.390625 Z M 15.5 -7.390625 C 15.5 -4.992188 14.863281 -3.117188 13.59375 -1.765625 C 12.332031 -0.410156 10.570312 0.265625 8.3125 0.265625 C 6.90625 0.265625 5.660156 -0.0390625 4.578125 -0.65625 C 3.492188 -1.28125 2.660156 -2.171875 2.078125 -3.328125 C 1.503906 -4.492188 1.21875 -5.847656 1.21875 -7.390625 C 1.21875 -9.804688 1.84375 -11.679688 3.09375 -13.015625 C 4.351562 -14.347656 6.117188 -15.015625 8.390625 -15.015625 C 9.804688 -15.015625 11.054688 -14.707031 12.140625 -14.09375 C 13.222656 -13.476562 14.050781 -12.59375 14.625 -11.4375 C 15.207031 -10.289062 15.5 -8.941406 15.5 -7.390625 Z M 15.5 -7.390625 "/></g></g><g transform="translate(357.811841, 753.595518)"><g><path d="M 8.3125 -2.9375 C 9.019531 -2.9375 9.863281 -3.09375 10.84375 -3.40625 L 10.84375 -0.40625 C 9.84375 0.0390625 8.613281 0.265625 7.15625 0.265625 C 5.550781 0.265625 4.378906 -0.140625 3.640625 -0.953125 C 2.910156 -1.765625 2.546875 -2.984375 2.546875 -4.609375 L 2.546875 -11.71875 L 0.625 -11.71875 L 0.625 -13.421875 L 2.828125 -14.765625 L 4 -17.875 L 6.5625 -17.875 L 6.5625 -14.734375 L 10.6875 -14.734375 L 10.6875 -11.71875 L 6.5625 -11.71875 L 6.5625 -4.609375 C 6.5625 -4.035156 6.722656 -3.613281 7.046875 -3.34375 C 7.367188 -3.070312 7.789062 -2.9375 8.3125 -2.9375 Z M 8.3125 -2.9375 "/></g></g><g transform="translate(369.531397, 753.595518)"><g><path d="M 6.125 0 L 2.109375 0 L 2.109375 -14.734375 L 6.125 -14.734375 Z M 1.90625 -16.359375 L 1.90625 -16.71875 C 3.414062 -18.476562 4.445312 -19.800781 5 -20.6875 L 9.515625 -20.6875 L 9.515625 -20.40625 C 9.054688 -19.945312 8.273438 -19.265625 7.171875 -18.359375 C 6.066406 -17.460938 5.203125 -16.796875 4.578125 -16.359375 Z M 1.90625 -16.359375 "/></g></g><g transform="translate(377.770681, 753.595518)"><g><path d="M 10.203125 0.265625 C 8.472656 0.265625 7.113281 -0.363281 6.125 -1.625 L 5.921875 -1.625 C 6.054688 -0.394531 6.125 0.316406 6.125 0.515625 L 6.125 6.484375 L 2.109375 6.484375 L 2.109375 -14.734375 L 5.375 -14.734375 L 5.953125 -12.828125 L 6.125 -12.828125 C 7.070312 -14.285156 8.46875 -15.015625 10.3125 -15.015625 C 12.050781 -15.015625 13.410156 -14.34375 14.390625 -13 C 15.378906 -11.65625 15.875 -9.785156 15.875 -7.390625 C 15.875 -5.816406 15.640625 -4.453125 15.171875 -3.296875 C 14.710938 -2.140625 14.054688 -1.253906 13.203125 -0.640625 C 12.359375 -0.0351562 11.359375 0.265625 10.203125 0.265625 Z M 9.015625 -11.796875 C 8.023438 -11.796875 7.300781 -11.488281 6.84375 -10.875 C 6.382812 -10.269531 6.144531 -9.265625 6.125 -7.859375 L 6.125 -7.421875 C 6.125 -5.835938 6.359375 -4.703125 6.828125 -4.015625 C 7.304688 -3.335938 8.054688 -3 9.078125 -3 C 10.867188 -3 11.765625 -4.484375 11.765625 -7.453125 C 11.765625 -8.898438 11.539062 -9.984375 11.09375 -10.703125 C 10.65625 -11.429688 9.960938 -11.796875 9.015625 -11.796875 Z M 9.015625 -11.796875 "/></g></g><g transform="translate(394.855658, 753.595518)"><g><path d="M 1.9375 -18.546875 C 1.9375 -19.859375 2.664062 -20.515625 4.125 -20.515625 C 5.582031 -20.515625 6.3125 -19.859375 6.3125 -18.546875 C 6.3125 -17.921875 6.128906 -17.4375 5.765625 -17.09375 C 5.398438 -16.75 4.851562 -16.578125 4.125 -16.578125 C 2.664062 -16.578125 1.9375 -17.234375 1.9375 -18.546875 Z M 6.125 0 L 2.109375 0 L 2.109375 -14.734375 L 6.125 -14.734375 Z M 6.125 0 "/></g></g><g transform="translate(403.094942, 753.595518)"><g><path d="M 8.09375 0.265625 C 3.507812 0.265625 1.21875 -2.253906 1.21875 -7.296875 C 1.21875 -9.796875 1.835938 -11.707031 3.078125 -13.03125 C 4.328125 -14.351562 6.117188 -15.015625 8.453125 -15.015625 C 10.160156 -15.015625 11.6875 -14.679688 13.03125 -14.015625 L 11.859375 -10.90625 C 11.222656 -11.15625 10.628906 -11.359375 10.078125 -11.515625 C 9.535156 -11.679688 8.992188 -11.765625 8.453125 -11.765625 C 6.359375 -11.765625 5.3125 -10.28125 5.3125 -7.3125 C 5.3125 -4.4375 6.359375 -3 8.453125 -3 C 9.222656 -3 9.9375 -3.097656 10.59375 -3.296875 C 11.257812 -3.503906 11.921875 -3.828125 12.578125 -4.265625 L 12.578125 -0.828125 C 11.929688 -0.421875 11.273438 -0.140625 10.609375 0.015625 C 9.941406 0.179688 9.101562 0.265625 8.09375 0.265625 Z M 8.09375 0.265625 "/></g></g><g transform="translate(416.976486, 753.595518)"><g><path d="M 5.3125 -7.390625 C 5.3125 -5.929688 5.550781 -4.828125 6.03125 -4.078125 C 6.507812 -3.335938 7.289062 -2.96875 8.375 -2.96875 C 9.445312 -2.96875 10.21875 -3.335938 10.6875 -4.078125 C 11.15625 -4.816406 11.390625 -5.921875 11.390625 -7.390625 C 11.390625 -8.847656 11.148438 -9.941406 10.671875 -10.671875 C 10.203125 -11.398438 9.425781 -11.765625 8.34375 -11.765625 C 7.269531 -11.765625 6.492188 -11.398438 6.015625 -10.671875 C 5.546875 -9.953125 5.3125 -8.859375 5.3125 -7.390625 Z M 15.5 -7.390625 C 15.5 -4.992188 14.863281 -3.117188 13.59375 -1.765625 C 12.332031 -0.410156 10.570312 0.265625 8.3125 0.265625 C 6.90625 0.265625 5.660156 -0.0390625 4.578125 -0.65625 C 3.492188 -1.28125 2.660156 -2.171875 2.078125 -3.328125 C 1.503906 -4.492188 1.21875 -5.847656 1.21875 -7.390625 C 1.21875 -9.804688 1.84375 -11.679688 3.09375 -13.015625 C 4.351562 -14.347656 6.117188 -15.015625 8.390625 -15.015625 C 9.804688 -15.015625 11.054688 -14.707031 12.140625 -14.09375 C 13.222656 -13.476562 14.050781 -12.59375 14.625 -11.4375 C 15.207031 -10.289062 15.5 -8.941406 15.5 -7.390625 Z M 15.5 -7.390625 "/></g></g></g><g fill="#000000" fill-opacity="1"><g transform="translate(791.21529, 753.595518)"><g><path d="M 19.53125 0 L 14.328125 0 L 5.953125 -14.578125 L 5.828125 -14.578125 C 5.992188 -12.003906 6.078125 -10.171875 6.078125 -9.078125 L 6.078125 0 L 2.421875 0 L 2.421875 -19.28125 L 7.578125 -19.28125 L 15.953125 -4.84375 L 16.046875 -4.84375 C 15.910156 -7.34375 15.84375 -9.113281 15.84375 -10.15625 L 15.84375 -19.28125 L 19.53125 -19.28125 Z M 19.53125 0 "/></g></g><g transform="translate(813.16474, 753.595518)"><g><path d="M 12.546875 0 L 12.015625 -1.890625 L 11.796875 -1.890625 C 11.367188 -1.203125 10.757812 -0.671875 9.96875 -0.296875 C 9.175781 0.078125 8.273438 0.265625 7.265625 0.265625 C 5.535156 0.265625 4.226562 -0.195312 3.34375 -1.125 C 2.46875 -2.050781 2.03125 -3.382812 2.03125 -5.125 L 2.03125 -14.734375 L 6.046875 -14.734375 L 6.046875 -6.125 C 6.046875 -5.0625 6.234375 -4.265625 6.609375 -3.734375 C 6.992188 -3.203125 7.597656 -2.9375 8.421875 -2.9375 C 9.546875 -2.9375 10.359375 -3.3125 10.859375 -4.0625 C 11.359375 -4.8125 11.609375 -6.0625 11.609375 -7.8125 L 11.609375 -14.734375 L 15.640625 -14.734375 L 15.640625 0 Z M 12.546875 0 "/></g></g><g transform="translate(830.908861, 753.595518)"><g><path d="M 10.34375 -15.015625 C 10.882812 -15.015625 11.332031 -14.972656 11.6875 -14.890625 L 11.390625 -11.125 C 11.066406 -11.21875 10.671875 -11.265625 10.203125 -11.265625 C 8.921875 -11.265625 7.921875 -10.929688 7.203125 -10.265625 C 6.484375 -9.609375 6.125 -8.6875 6.125 -7.5 L 6.125 0 L 2.109375 0 L 2.109375 -14.734375 L 5.15625 -14.734375 L 5.75 -12.265625 L 5.953125 -12.265625 C 6.398438 -13.085938 7.015625 -13.75 7.796875 -14.25 C 8.578125 -14.757812 9.425781 -15.015625 10.34375 -15.015625 Z M 10.34375 -15.015625 "/></g></g><g transform="translate(843.168914, 753.595518)"><g><path d="M 5.3125 -7.390625 C 5.3125 -5.929688 5.550781 -4.828125 6.03125 -4.078125 C 6.507812 -3.335938 7.289062 -2.96875 8.375 -2.96875 C 9.445312 -2.96875 10.21875 -3.335938 10.6875 -4.078125 C 11.15625 -4.816406 11.390625 -5.921875 11.390625 -7.390625 C 11.390625 -8.847656 11.148438 -9.941406 10.671875 -10.671875 C 10.203125 -11.398438 9.425781 -11.765625 8.34375 -11.765625 C 7.269531 -11.765625 6.492188 -11.398438 6.015625 -10.671875 C 5.546875 -9.953125 5.3125 -8.859375 5.3125 -7.390625 Z M 15.5 -7.390625 C 15.5 -4.992188 14.863281 -3.117188 13.59375 -1.765625 C 12.332031 -0.410156 10.570312 0.265625 8.3125 0.265625 C 6.90625 0.265625 5.660156 -0.0390625 4.578125 -0.65625 C 3.492188 -1.28125 2.660156 -2.171875 2.078125 -3.328125 C 1.503906 -4.492188 1.21875 -5.847656 1.21875 -7.390625 C 1.21875 -9.804688 1.84375 -11.679688 3.09375 -13.015625 C 4.351562 -14.347656 6.117188 -15.015625 8.390625 -15.015625 C 9.804688 -15.015625 11.054688 -14.707031 12.140625 -14.09375 C 13.222656 -13.476562 14.050781 -12.59375 14.625 -11.4375 C 15.207031 -10.289062 15.5 -8.941406 15.5 -7.390625 Z M 15.5 -7.390625 "/></g></g><g transform="translate(859.884773, 753.595518)"><g><path d="M 8.3125 -2.9375 C 9.019531 -2.9375 9.863281 -3.09375 10.84375 -3.40625 L 10.84375 -0.40625 C 9.84375 0.0390625 8.613281 0.265625 7.15625 0.265625 C 5.550781 0.265625 4.378906 -0.140625 3.640625 -0.953125 C 2.910156 -1.765625 2.546875 -2.984375 2.546875 -4.609375 L 2.546875 -11.71875 L 0.625 -11.71875 L 0.625 -13.421875 L 2.828125 -14.765625 L 4 -17.875 L 6.5625 -17.875 L 6.5625 -14.734375 L 10.6875 -14.734375 L 10.6875 -11.71875 L 6.5625 -11.71875 L 6.5625 -4.609375 C 6.5625 -4.035156 6.722656 -3.613281 7.046875 -3.34375 C 7.367188 -3.070312 7.789062 -2.9375 8.3125 -2.9375 Z M 8.3125 -2.9375 "/></g></g><g transform="translate(871.604329, 753.595518)"><g><path d="M 6.125 0 L 2.109375 0 L 2.109375 -14.734375 L 6.125 -14.734375 Z M 1.90625 -16.359375 L 1.90625 -16.71875 C 3.414062 -18.476562 4.445312 -19.800781 5 -20.6875 L 9.515625 -20.6875 L 9.515625 -20.40625 C 9.054688 -19.945312 8.273438 -19.265625 7.171875 -18.359375 C 6.066406 -17.460938 5.203125 -16.796875 4.578125 -16.359375 Z M 1.90625 -16.359375 "/></g></g><g transform="translate(879.843613, 753.595518)"><g><path d="M 10.203125 0.265625 C 8.472656 0.265625 7.113281 -0.363281 6.125 -1.625 L 5.921875 -1.625 C 6.054688 -0.394531 6.125 0.316406 6.125 0.515625 L 6.125 6.484375 L 2.109375 6.484375 L 2.109375 -14.734375 L 5.375 -14.734375 L 5.953125 -12.828125 L 6.125 -12.828125 C 7.070312 -14.285156 8.46875 -15.015625 10.3125 -15.015625 C 12.050781 -15.015625 13.410156 -14.34375 14.390625 -13 C 15.378906 -11.65625 15.875 -9.785156 15.875 -7.390625 C 15.875 -5.816406 15.640625 -4.453125 15.171875 -3.296875 C 14.710938 -2.140625 14.054688 -1.253906 13.203125 -0.640625 C 12.359375 -0.0351562 11.359375 0.265625 10.203125 0.265625 Z M 9.015625 -11.796875 C 8.023438 -11.796875 7.300781 -11.488281 6.84375 -10.875 C 6.382812 -10.269531 6.144531 -9.265625 6.125 -7.859375 L 6.125 -7.421875 C 6.125 -5.835938 6.359375 -4.703125 6.828125 -4.015625 C 7.304688 -3.335938 8.054688 -3 9.078125 -3 C 10.867188 -3 11.765625 -4.484375 11.765625 -7.453125 C 11.765625 -8.898438 11.539062 -9.984375 11.09375 -10.703125 C 10.65625 -11.429688 9.960938 -11.796875 9.015625 -11.796875 Z M 9.015625 -11.796875 "/></g></g><g transform="translate(896.928591, 753.595518)"><g><path d="M 1.9375 -18.546875 C 1.9375 -19.859375 2.664062 -20.515625 4.125 -20.515625 C 5.582031 -20.515625 6.3125 -19.859375 6.3125 -18.546875 C 6.3125 -17.921875 6.128906 -17.4375 5.765625 -17.09375 C 5.398438 -16.75 4.851562 -16.578125 4.125 -16.578125 C 2.664062 -16.578125 1.9375 -17.234375 1.9375 -18.546875 Z M 6.125 0 L 2.109375 0 L 2.109375 -14.734375 L 6.125 -14.734375 Z M 6.125 0 "/></g></g><g transform="translate(905.167874, 753.595518)"><g><path d="M 8.09375 0.265625 C 3.507812 0.265625 1.21875 -2.253906 1.21875 -7.296875 C 1.21875 -9.796875 1.835938 -11.707031 3.078125 -13.03125 C 4.328125 -14.351562 6.117188 -15.015625 8.453125 -15.015625 C 10.160156 -15.015625 11.6875 -14.679688 13.03125 -14.015625 L 11.859375 -10.90625 C 11.222656 -11.15625 10.628906 -11.359375 10.078125 -11.515625 C 9.535156 -11.679688 8.992188 -11.765625 8.453125 -11.765625 C 6.359375 -11.765625 5.3125 -10.28125 5.3125 -7.3125 C 5.3125 -4.4375 6.359375 -3 8.453125 -3 C 9.222656 -3 9.9375 -3.097656 10.59375 -3.296875 C 11.257812 -3.503906 11.921875 -3.828125 12.578125 -4.265625 L 12.578125 -0.828125 C 11.929688 -0.421875 11.273438 -0.140625 10.609375 0.015625 C 9.941406 0.179688 9.101562 0.265625 8.09375 0.265625 Z M 8.09375 0.265625 "/></g></g><g transform="translate(919.049419, 753.595518)"><g><path d="M 5.3125 -7.390625 C 5.3125 -5.929688 5.550781 -4.828125 6.03125 -4.078125 C 6.507812 -3.335938 7.289062 -2.96875 8.375 -2.96875 C 9.445312 -2.96875 10.21875 -3.335938 10.6875 -4.078125 C 11.15625 -4.816406 11.390625 -5.921875 11.390625 -7.390625 C 11.390625 -8.847656 11.148438 -9.941406 10.671875 -10.671875 C 10.203125 -11.398438 9.425781 -11.765625 8.34375 -11.765625 C 7.269531 -11.765625 6.492188 -11.398438 6.015625 -10.671875 C 5.546875 -9.953125 5.3125 -8.859375 5.3125 -7.390625 Z M 15.5 -7.390625 C 15.5 -4.992188 14.863281 -3.117188 13.59375 -1.765625 C 12.332031 -0.410156 10.570312 0.265625 8.3125 0.265625 C 6.90625 0.265625 5.660156 -0.0390625 4.578125 -0.65625 C 3.492188 -1.28125 2.660156 -2.171875 2.078125 -3.328125 C 1.503906 -4.492188 1.21875 -5.847656 1.21875 -7.390625 C 1.21875 -9.804688 1.84375 -11.679688 3.09375 -13.015625 C 4.351562 -14.347656 6.117188 -15.015625 8.390625 -15.015625 C 9.804688 -15.015625 11.054688 -14.707031 12.140625 -14.09375 C 13.222656 -13.476562 14.050781 -12.59375 14.625 -11.4375 C 15.207031 -10.289062 15.5 -8.941406 15.5 -7.390625 Z M 15.5 -7.390625 "/></g></g></g><g fill="#000000" fill-opacity="1"><g transform="translate(156.835899, 727.915519)"><g><path d="M 14.453125 -9.640625 C 14.453125 -6.273438 13.898438 -3.78125 12.796875 -2.15625 C 11.691406 -0.539062 9.992188 0.265625 7.703125 0.265625 C 5.472656 0.265625 3.789062 -0.566406 2.65625 -2.234375 C 1.53125 -3.910156 0.96875 -6.378906 0.96875 -9.640625 C 0.96875 -13.035156 1.515625 -15.539062 2.609375 -17.15625 C 3.710938 -18.769531 5.410156 -19.578125 7.703125 -19.578125 C 9.921875 -19.578125 11.597656 -18.734375 12.734375 -17.046875 C 13.878906 -15.359375 14.453125 -12.890625 14.453125 -9.640625 Z M 5.015625 -9.640625 C 5.015625 -7.273438 5.21875 -5.578125 5.625 -4.546875 C 6.039062 -3.523438 6.734375 -3.015625 7.703125 -3.015625 C 8.648438 -3.015625 9.332031 -3.53125 9.75 -4.5625 C 10.175781 -5.601562 10.390625 -7.296875 10.390625 -9.640625 C 10.390625 -12.003906 10.175781 -13.703125 9.75 -14.734375 C 9.320312 -15.765625 8.640625 -16.28125 7.703125 -16.28125 C 6.742188 -16.28125 6.054688 -15.765625 5.640625 -14.734375 C 5.222656 -13.703125 5.015625 -12.003906 5.015625 -9.640625 Z M 5.015625 -9.640625 "/></g></g></g><g fill="#000000" fill-opacity="1"><g transform="translate(141.814174, 596.374214)"><g><path d="M 14.5625 0 L 1.078125 0 L 1.078125 -2.828125 L 5.921875 -7.71875 C 7.347656 -9.1875 8.28125 -10.203125 8.71875 -10.765625 C 9.164062 -11.335938 9.484375 -11.863281 9.671875 -12.34375 C 9.867188 -12.832031 9.96875 -13.335938 9.96875 -13.859375 C 9.96875 -14.628906 9.753906 -15.203125 9.328125 -15.578125 C 8.898438 -15.960938 8.332031 -16.15625 7.625 -16.15625 C 6.875 -16.15625 6.144531 -15.984375 5.4375 -15.640625 C 4.738281 -15.296875 4.007812 -14.804688 3.25 -14.171875 L 1.03125 -16.796875 C 1.976562 -17.609375 2.765625 -18.179688 3.390625 -18.515625 C 4.015625 -18.847656 4.695312 -19.101562 5.4375 -19.28125 C 6.175781 -19.457031 7 -19.546875 7.90625 -19.546875 C 9.113281 -19.546875 10.175781 -19.328125 11.09375 -18.890625 C 12.019531 -18.453125 12.738281 -17.835938 13.25 -17.046875 C 13.757812 -16.253906 14.015625 -15.347656 14.015625 -14.328125 C 14.015625 -13.441406 13.859375 -12.609375 13.546875 -11.828125 C 13.234375 -11.054688 12.75 -10.257812 12.09375 -9.4375 C 11.4375 -8.625 10.285156 -7.460938 8.640625 -5.953125 L 6.15625 -3.609375 L 6.15625 -3.421875 L 14.5625 -3.421875 Z M 14.5625 0 "/></g></g><g transform="translate(157.22493, 596.374214)"><g><path d="M 14.453125 -9.640625 C 14.453125 -6.273438 13.898438 -3.78125 12.796875 -2.15625 C 11.691406 -0.539062 9.992188 0.265625 7.703125 0.265625 C 5.472656 0.265625 3.789062 -0.566406 2.65625 -2.234375 C 1.53125 -3.910156 0.96875 -6.378906 0.96875 -9.640625 C 0.96875 -13.035156 1.515625 -15.539062 2.609375 -17.15625 C 3.710938 -18.769531 5.410156 -19.578125 7.703125 -19.578125 C 9.921875 -19.578125 11.597656 -18.734375 12.734375 -17.046875 C 13.878906 -15.359375 14.453125 -12.890625 14.453125 -9.640625 Z M 5.015625 -9.640625 C 5.015625 -7.273438 5.21875 -5.578125 5.625 -4.546875 C 6.039062 -3.523438 6.734375 -3.015625 7.703125 -3.015625 C 8.648438 -3.015625 9.332031 -3.53125 9.75 -4.5625 C 10.175781 -5.601562 10.390625 -7.296875 10.390625 -9.640625 C 10.390625 -12.003906 10.175781 -13.703125 9.75 -14.734375 C 9.320312 -15.765625 8.640625 -16.28125 7.703125 -16.28125 C 6.742188 -16.28125 6.054688 -15.765625 5.640625 -14.734375 C 5.222656 -13.703125 5.015625 -12.003906 5.015625 -9.640625 Z M 5.015625 -9.640625 "/></g></g></g><g fill="#000000" fill-opacity="1"><g transform="translate(141.814174, 464.832645)"><g><path d="M 14.984375 -4 L 12.671875 -4 L 12.671875 0 L 8.6875 0 L 8.6875 -4 L 0.46875 -4 L 0.46875 -6.828125 L 8.90625 -19.28125 L 12.671875 -19.28125 L 12.671875 -7.15625 L 14.984375 -7.15625 Z M 8.6875 -7.15625 L 8.6875 -10.421875 C 8.6875 -10.972656 8.707031 -11.765625 8.75 -12.796875 C 8.789062 -13.835938 8.828125 -14.441406 8.859375 -14.609375 L 8.75 -14.609375 C 8.425781 -13.890625 8.035156 -13.1875 7.578125 -12.5 L 4.046875 -7.15625 Z M 8.6875 -7.15625 "/></g></g><g transform="translate(157.22493, 464.832645)"><g><path d="M 14.453125 -9.640625 C 14.453125 -6.273438 13.898438 -3.78125 12.796875 -2.15625 C 11.691406 -0.539062 9.992188 0.265625 7.703125 0.265625 C 5.472656 0.265625 3.789062 -0.566406 2.65625 -2.234375 C 1.53125 -3.910156 0.96875 -6.378906 0.96875 -9.640625 C 0.96875 -13.035156 1.515625 -15.539062 2.609375 -17.15625 C 3.710938 -18.769531 5.410156 -19.578125 7.703125 -19.578125 C 9.921875 -19.578125 11.597656 -18.734375 12.734375 -17.046875 C 13.878906 -15.359375 14.453125 -12.890625 14.453125 -9.640625 Z M 5.015625 -9.640625 C 5.015625 -7.273438 5.21875 -5.578125 5.625 -4.546875 C 6.039062 -3.523438 6.734375 -3.015625 7.703125 -3.015625 C 8.648438 -3.015625 9.332031 -3.53125 9.75 -4.5625 C 10.175781 -5.601562 10.390625 -7.296875 10.390625 -9.640625 C 10.390625 -12.003906 10.175781 -13.703125 9.75 -14.734375 C 9.320312 -15.765625 8.640625 -16.28125 7.703125 -16.28125 C 6.742188 -16.28125 6.054688 -15.765625 5.640625 -14.734375 C 5.222656 -13.703125 5.015625 -12.003906 5.015625 -9.640625 Z M 5.015625 -9.640625 "/></g></g></g><g fill="#000000" fill-opacity="1"><g transform="translate(141.814174, 333.291332)"><g><path d="M 0.953125 -8.1875 C 0.953125 -12 1.753906 -14.835938 3.359375 -16.703125 C 4.972656 -18.566406 7.390625 -19.5 10.609375 -19.5 C 11.710938 -19.5 12.578125 -19.429688 13.203125 -19.296875 L 13.203125 -16.046875 C 12.421875 -16.222656 11.644531 -16.3125 10.875 -16.3125 C 9.476562 -16.3125 8.335938 -16.097656 7.453125 -15.671875 C 6.566406 -15.253906 5.90625 -14.628906 5.46875 -13.796875 C 5.03125 -12.972656 4.769531 -11.800781 4.6875 -10.28125 L 4.859375 -10.28125 C 5.734375 -11.78125 7.128906 -12.53125 9.046875 -12.53125 C 10.765625 -12.53125 12.113281 -11.988281 13.09375 -10.90625 C 14.070312 -9.820312 14.5625 -8.328125 14.5625 -6.421875 C 14.5625 -4.359375 13.976562 -2.726562 12.8125 -1.53125 C 11.65625 -0.332031 10.046875 0.265625 7.984375 0.265625 C 6.566406 0.265625 5.328125 -0.0625 4.265625 -0.71875 C 3.203125 -1.382812 2.382812 -2.347656 1.8125 -3.609375 C 1.238281 -4.878906 0.953125 -6.40625 0.953125 -8.1875 Z M 7.90625 -3 C 8.78125 -3 9.445312 -3.289062 9.90625 -3.875 C 10.375 -4.457031 10.609375 -5.289062 10.609375 -6.375 C 10.609375 -7.3125 10.390625 -8.050781 9.953125 -8.59375 C 9.523438 -9.132812 8.867188 -9.40625 7.984375 -9.40625 C 7.160156 -9.40625 6.457031 -9.132812 5.875 -8.59375 C 5.289062 -8.0625 5 -7.4375 5 -6.71875 C 5 -5.675781 5.269531 -4.796875 5.8125 -4.078125 C 6.363281 -3.359375 7.0625 -3 7.90625 -3 Z M 7.90625 -3 "/></g></g><g transform="translate(157.22493, 333.291332)"><g><path d="M 14.453125 -9.640625 C 14.453125 -6.273438 13.898438 -3.78125 12.796875 -2.15625 C 11.691406 -0.539062 9.992188 0.265625 7.703125 0.265625 C 5.472656 0.265625 3.789062 -0.566406 2.65625 -2.234375 C 1.53125 -3.910156 0.96875 -6.378906 0.96875 -9.640625 C 0.96875 -13.035156 1.515625 -15.539062 2.609375 -17.15625 C 3.710938 -18.769531 5.410156 -19.578125 7.703125 -19.578125 C 9.921875 -19.578125 11.597656 -18.734375 12.734375 -17.046875 C 13.878906 -15.359375 14.453125 -12.890625 14.453125 -9.640625 Z M 5.015625 -9.640625 C 5.015625 -7.273438 5.21875 -5.578125 5.625 -4.546875 C 6.039062 -3.523438 6.734375 -3.015625 7.703125 -3.015625 C 8.648438 -3.015625 9.332031 -3.53125 9.75 -4.5625 C 10.175781 -5.601562 10.390625 -7.296875 10.390625 -9.640625 C 10.390625 -12.003906 10.175781 -13.703125 9.75 -14.734375 C 9.320312 -15.765625 8.640625 -16.28125 7.703125 -16.28125 C 6.742188 -16.28125 6.054688 -15.765625 5.640625 -14.734375 C 5.222656 -13.703125 5.015625 -12.003906 5.015625 -9.640625 Z M 5.015625 -9.640625 "/></g></g></g><g fill="#000000" fill-opacity="1"><g transform="translate(141.814174, 201.749775)"><g><path d="M 7.71875 -19.53125 C 9.570312 -19.53125 11.0625 -19.109375 12.1875 -18.265625 C 13.3125 -17.421875 13.875 -16.289062 13.875 -14.875 C 13.875 -13.882812 13.601562 -13.003906 13.0625 -12.234375 C 12.519531 -11.472656 11.640625 -10.785156 10.421875 -10.171875 C 11.867188 -9.398438 12.90625 -8.59375 13.53125 -7.75 C 14.15625 -6.914062 14.46875 -6 14.46875 -5 C 14.46875 -3.414062 13.847656 -2.140625 12.609375 -1.171875 C 11.378906 -0.210938 9.75 0.265625 7.71875 0.265625 C 5.613281 0.265625 3.957031 -0.179688 2.75 -1.078125 C 1.550781 -1.972656 0.953125 -3.242188 0.953125 -4.890625 C 0.953125 -5.992188 1.242188 -6.96875 1.828125 -7.8125 C 2.410156 -8.664062 3.347656 -9.421875 4.640625 -10.078125 C 3.546875 -10.765625 2.753906 -11.503906 2.265625 -12.296875 C 1.785156 -13.085938 1.546875 -13.953125 1.546875 -14.890625 C 1.546875 -16.273438 2.113281 -17.394531 3.25 -18.25 C 4.394531 -19.101562 5.882812 -19.53125 7.71875 -19.53125 Z M 4.71875 -5.125 C 4.71875 -4.375 4.976562 -3.785156 5.5 -3.359375 C 6.03125 -2.941406 6.753906 -2.734375 7.671875 -2.734375 C 8.679688 -2.734375 9.4375 -2.945312 9.9375 -3.375 C 10.4375 -3.8125 10.6875 -4.390625 10.6875 -5.109375 C 10.6875 -5.691406 10.4375 -6.238281 9.9375 -6.75 C 9.445312 -7.269531 8.644531 -7.816406 7.53125 -8.390625 C 5.65625 -7.535156 4.71875 -6.445312 4.71875 -5.125 Z M 7.703125 -16.546875 C 7.003906 -16.546875 6.441406 -16.367188 6.015625 -16.015625 C 5.585938 -15.660156 5.375 -15.179688 5.375 -14.578125 C 5.375 -14.054688 5.539062 -13.582031 5.875 -13.15625 C 6.21875 -12.738281 6.832031 -12.3125 7.71875 -11.875 C 8.582031 -12.28125 9.1875 -12.691406 9.53125 -13.109375 C 9.875 -13.535156 10.046875 -14.023438 10.046875 -14.578125 C 10.046875 -15.179688 9.828125 -15.660156 9.390625 -16.015625 C 8.953125 -16.367188 8.390625 -16.546875 7.703125 -16.546875 Z M 7.703125 -16.546875 "/></g></g><g transform="translate(157.22493, 201.749775)"><g><path d="M 14.453125 -9.640625 C 14.453125 -6.273438 13.898438 -3.78125 12.796875 -2.15625 C 11.691406 -0.539062 9.992188 0.265625 7.703125 0.265625 C 5.472656 0.265625 3.789062 -0.566406 2.65625 -2.234375 C 1.53125 -3.910156 0.96875 -6.378906 0.96875 -9.640625 C 0.96875 -13.035156 1.515625 -15.539062 2.609375 -17.15625 C 3.710938 -18.769531 5.410156 -19.578125 7.703125 -19.578125 C 9.921875 -19.578125 11.597656 -18.734375 12.734375 -17.046875 C 13.878906 -15.359375 14.453125 -12.890625 14.453125 -9.640625 Z M 5.015625 -9.640625 C 5.015625 -7.273438 5.21875 -5.578125 5.625 -4.546875 C 6.039062 -3.523438 6.734375 -3.015625 7.703125 -3.015625 C 8.648438 -3.015625 9.332031 -3.53125 9.75 -4.5625 C 10.175781 -5.601562 10.390625 -7.296875 10.390625 -9.640625 C 10.390625 -12.003906 10.175781 -13.703125 9.75 -14.734375 C 9.320312 -15.765625 8.640625 -16.28125 7.703125 -16.28125 C 6.742188 -16.28125 6.054688 -15.765625 5.640625 -14.734375 C 5.222656 -13.703125 5.015625 -12.003906 5.015625 -9.640625 Z M 5.015625 -9.640625 "/></g></g></g><g fill="#000000" fill-opacity="1"><g transform="translate(125.993161, 70.20822)"><g><path d="M 11.15625 0 L 7.078125 0 L 7.078125 -11.15625 L 7.125 -12.984375 L 7.1875 -14.984375 C 6.507812 -14.304688 6.039062 -13.863281 5.78125 -13.65625 L 3.5625 -11.875 L 1.59375 -14.328125 L 7.8125 -19.28125 L 11.15625 -19.28125 Z M 11.15625 0 "/></g></g><g transform="translate(141.403917, 70.20822)"><g><path d="M 14.453125 -9.640625 C 14.453125 -6.273438 13.898438 -3.78125 12.796875 -2.15625 C 11.691406 -0.539062 9.992188 0.265625 7.703125 0.265625 C 5.472656 0.265625 3.789062 -0.566406 2.65625 -2.234375 C 1.53125 -3.910156 0.96875 -6.378906 0.96875 -9.640625 C 0.96875 -13.035156 1.515625 -15.539062 2.609375 -17.15625 C 3.710938 -18.769531 5.410156 -19.578125 7.703125 -19.578125 C 9.921875 -19.578125 11.597656 -18.734375 12.734375 -17.046875 C 13.878906 -15.359375 14.453125 -12.890625 14.453125 -9.640625 Z M 5.015625 -9.640625 C 5.015625 -7.273438 5.21875 -5.578125 5.625 -4.546875 C 6.039062 -3.523438 6.734375 -3.015625 7.703125 -3.015625 C 8.648438 -3.015625 9.332031 -3.53125 9.75 -4.5625 C 10.175781 -5.601562 10.390625 -7.296875 10.390625 -9.640625 C 10.390625 -12.003906 10.175781 -13.703125 9.75 -14.734375 C 9.320312 -15.765625 8.640625 -16.28125 7.703125 -16.28125 C 6.742188 -16.28125 6.054688 -15.765625 5.640625 -14.734375 C 5.222656 -13.703125 5.015625 -12.003906 5.015625 -9.640625 Z M 5.015625 -9.640625 "/></g></g><g transform="translate(156.814672, 70.20822)"><g><path d="M 14.453125 -9.640625 C 14.453125 -6.273438 13.898438 -3.78125 12.796875 -2.15625 C 11.691406 -0.539062 9.992188 0.265625 7.703125 0.265625 C 5.472656 0.265625 3.789062 -0.566406 2.65625 -2.234375 C 1.53125 -3.910156 0.96875 -6.378906 0.96875 -9.640625 C 0.96875 -13.035156 1.515625 -15.539062 2.609375 -17.15625 C 3.710938 -18.769531 5.410156 -19.578125 7.703125 -19.578125 C 9.921875 -19.578125 11.597656 -18.734375 12.734375 -17.046875 C 13.878906 -15.359375 14.453125 -12.890625 14.453125 -9.640625 Z M 5.015625 -9.640625 C 5.015625 -7.273438 5.21875 -5.578125 5.625 -4.546875 C 6.039062 -3.523438 6.734375 -3.015625 7.703125 -3.015625 C 8.648438 -3.015625 9.332031 -3.53125 9.75 -4.5625 C 10.175781 -5.601562 10.390625 -7.296875 10.390625 -9.640625 C 10.390625 -12.003906 10.175781 -13.703125 9.75 -14.734375 C 9.320312 -15.765625 8.640625 -16.28125 7.703125 -16.28125 C 6.742188 -16.28125 6.054688 -15.765625 5.640625 -14.734375 C 5.222656 -13.703125 5.015625 -12.003906 5.015625 -9.640625 Z M 5.015625 -9.640625 "/></g></g></g><path stroke-linecap="butt" transform="matrix(0.811984, 0, 0, 0.811984, 192.358194, 60.464314)" fill="none" stroke-linejoin="miter" d="M 0.00145428 810.000172 L 1323.259327 810.000172 " stroke="#000000" stroke-width="1" stroke-opacity="0.6" stroke-miterlimit="4"/><path stroke-linecap="butt" transform="matrix(0.811984, 0, 0, 0.811984, 192.358194, 60.464314)" fill="none" stroke-linejoin="miter" d="M 0.00145428 647.998344 L 1323.259327 647.998344 " stroke="#000000" stroke-width="1" stroke-opacity="0.251" stroke-miterlimit="4"/><path stroke-linecap="butt" transform="matrix(0.811984, 0, 0, 0.811984, 192.358194, 60.464314)" fill="none" stroke-linejoin="miter" d="M 0.00145428 486.001326 L 1323.259327 486.001326 " stroke="#000000" stroke-width="1" stroke-opacity="0.251" stroke-miterlimit="4"/><path stroke-linecap="butt" transform="matrix(0.811984, 0, 0, 0.811984, 192.358194, 60.464314)" fill="none" stroke-linejoin="miter" d="M 0.00145428 323.999498 L 1323.259327 323.999498 " stroke="#000000" stroke-width="1" stroke-opacity="0.251" stroke-miterlimit="4"/><path stroke-linecap="butt" transform="matrix(0.811984, 0, 0, 0.811984, 192.358194, 60.464314)" fill="none" stroke-linejoin="miter" d="M 0.00145428 161.99767 L 1323.259327 161.99767 " stroke="#000000" stroke-width="1" stroke-opacity="0.251" stroke-miterlimit="4"/><path stroke-linecap="butt" transform="matrix(0.811984, 0, 0, 0.811984, 192.358194, 60.464314)" fill="none" stroke-linejoin="miter" d="M 0.00145428 0.000652712 L 1323.259327 0.000652712 " stroke="#000000" stroke-width="1" stroke-opacity="0.251" stroke-miterlimit="4"/></svg>